G04*
G04 #@! TF.GenerationSoftware,Altium Limited,Altium Designer,21.8.1 (53)*
G04*
G04 Layer_Color=32896*
%FSLAX23Y23*%
%MOIN*%
G70*
G04*
G04 #@! TF.SameCoordinates,9A98099C-E915-48DC-B274-BBC1B63A1E23*
G04*
G04*
G04 #@! TF.FilePolarity,Positive*
G04*
G01*
G75*
%ADD11C,0.008*%
%ADD12C,0.004*%
%ADD13C,0.006*%
%ADD95C,0.006*%
D11*
X947Y-844D02*
X1053D01*
Y-2656D02*
Y-844D01*
X947Y-2656D02*
X1053D01*
X947D02*
Y-844D01*
X299Y-2672D02*
X346D01*
X243Y-2074D02*
X444D01*
X535D02*
X669D01*
X759D02*
X795D01*
Y-2558D02*
Y-2074D01*
X243Y-2597D02*
Y-2074D01*
X346Y-2672D02*
Y-2639D01*
X417D01*
Y-2615D01*
X739D01*
X47Y-2656D02*
Y-844D01*
Y-2656D02*
X153D01*
Y-844D01*
X47D02*
X153D01*
D12*
X50Y-850D02*
X150D01*
X50Y-2650D02*
X150D01*
X50D02*
Y-850D01*
X150Y-2650D02*
Y-850D01*
X115Y-827D02*
Y-807D01*
X106D01*
X102Y-810D01*
Y-817D01*
X106Y-820D01*
X115D01*
X83Y-827D02*
X96D01*
X83Y-814D01*
Y-810D01*
X86Y-807D01*
X92D01*
X96Y-810D01*
X1085Y-819D02*
Y-799D01*
X1076D01*
X1072Y-802D01*
Y-809D01*
X1076Y-812D01*
X1085D01*
X1066Y-802D02*
X1062Y-799D01*
X1056D01*
X1053Y-802D01*
Y-806D01*
X1056Y-809D01*
X1059D01*
X1056D01*
X1053Y-812D01*
Y-816D01*
X1056Y-819D01*
X1062D01*
X1066Y-816D01*
X282Y-2038D02*
X289D01*
X286D01*
Y-2055D01*
X289Y-2058D01*
X292D01*
X296Y-2055D01*
X263Y-2058D02*
X276D01*
X263Y-2045D01*
Y-2041D01*
X266Y-2038D01*
X273D01*
X276Y-2041D01*
X664Y-1215D02*
X660Y-1218D01*
X654D01*
X650Y-1215D01*
Y-1201D01*
X654Y-1198D01*
X660D01*
X664Y-1201D01*
X670Y-1198D02*
X677D01*
X673D01*
Y-1218D01*
X670Y-1215D01*
X686Y-1218D02*
X700D01*
Y-1215D01*
X686Y-1201D01*
Y-1198D01*
X542Y-1209D02*
X538Y-1212D01*
X532D01*
X528Y-1209D01*
Y-1195D01*
X532Y-1192D01*
X538D01*
X542Y-1195D01*
X548Y-1192D02*
X555D01*
X551D01*
Y-1212D01*
X548Y-1209D01*
X578Y-1212D02*
X571Y-1209D01*
X564Y-1202D01*
Y-1195D01*
X568Y-1192D01*
X574D01*
X578Y-1195D01*
Y-1199D01*
X574Y-1202D01*
X564D01*
X758Y-1465D02*
X755Y-1461D01*
Y-1455D01*
X758Y-1451D01*
X772D01*
X775Y-1455D01*
Y-1461D01*
X772Y-1465D01*
X775Y-1471D02*
Y-1478D01*
Y-1474D01*
X755D01*
X758Y-1471D01*
X755Y-1501D02*
Y-1487D01*
X765D01*
X762Y-1494D01*
Y-1497D01*
X765Y-1501D01*
X772D01*
X775Y-1497D01*
Y-1491D01*
X772Y-1487D01*
X743Y-1408D02*
X740Y-1404D01*
Y-1398D01*
X743Y-1394D01*
X756D01*
X759Y-1398D01*
Y-1404D01*
X756Y-1408D01*
X759Y-1424D02*
X740D01*
X750Y-1414D01*
Y-1427D01*
X576Y-1378D02*
X579Y-1381D01*
Y-1388D01*
X576Y-1391D01*
X563D01*
X559Y-1388D01*
Y-1381D01*
X563Y-1378D01*
X576Y-1371D02*
X579Y-1368D01*
Y-1361D01*
X576Y-1358D01*
X572D01*
X569Y-1361D01*
Y-1365D01*
Y-1361D01*
X566Y-1358D01*
X563D01*
X559Y-1361D01*
Y-1368D01*
X563Y-1371D01*
X482Y-1209D02*
X479Y-1212D01*
X473D01*
X469Y-1209D01*
Y-1196D01*
X473Y-1192D01*
X479D01*
X482Y-1196D01*
X502Y-1192D02*
X489D01*
X502Y-1205D01*
Y-1209D01*
X499Y-1212D01*
X492D01*
X489Y-1209D01*
X615Y-1199D02*
X618Y-1196D01*
X625D01*
X628Y-1199D01*
Y-1213D01*
X625Y-1216D01*
X618D01*
X615Y-1213D01*
X608Y-1216D02*
X602D01*
X605D01*
Y-1196D01*
X608Y-1199D01*
D13*
X460Y-1277D02*
X516D01*
X504Y-1332D02*
X516D01*
Y-1222D01*
X504D02*
X516D01*
X460D02*
X472D01*
X460Y-1332D02*
Y-1222D01*
Y-1332D02*
X472D01*
X495Y-1404D02*
Y-1348D01*
X550Y-1360D02*
Y-1348D01*
X440D02*
X550D01*
X440Y-1360D02*
Y-1348D01*
Y-1404D02*
Y-1392D01*
Y-1404D02*
X550D01*
Y-1392D01*
X670Y-1442D02*
Y-1386D01*
X725Y-1398D02*
Y-1386D01*
X615D02*
X725D01*
X615Y-1398D02*
Y-1386D01*
Y-1442D02*
Y-1430D01*
Y-1442D02*
X725D01*
Y-1430D01*
X523Y-1331D02*
X535D01*
X523D02*
Y-1221D01*
X535D01*
X567D02*
X579D01*
Y-1331D02*
Y-1221D01*
X567Y-1331D02*
X579D01*
X523Y-1276D02*
X579D01*
X648Y-1335D02*
X660D01*
X648D02*
Y-1224D01*
X660D01*
X692D02*
X704D01*
Y-1335D02*
Y-1224D01*
X692Y-1335D02*
X704D01*
X648Y-1280D02*
X704D01*
X586Y-1278D02*
X642D01*
X630Y-1333D02*
X642D01*
Y-1223D01*
X630D02*
X642D01*
X586D02*
X598D01*
X586Y-1333D02*
Y-1223D01*
Y-1333D02*
X598D01*
X725Y-1503D02*
Y-1491D01*
X615Y-1503D02*
X725D01*
X615D02*
Y-1491D01*
Y-1459D02*
Y-1448D01*
X725D01*
Y-1459D02*
Y-1448D01*
X670Y-1503D02*
Y-1448D01*
D95*
X1065Y-2605D02*
Y-2592D01*
Y-2598D01*
X1105D01*
X1098Y-2605D01*
X1035Y-827D02*
X1022D01*
X1029D01*
Y-787D01*
X1035Y-794D01*
X1002D02*
X995Y-787D01*
X982D01*
X975Y-794D01*
Y-801D01*
X982Y-807D01*
X975Y-814D01*
Y-821D01*
X982Y-827D01*
X995D01*
X1002Y-821D01*
Y-814D01*
X995Y-807D01*
X1002Y-801D01*
Y-794D01*
X995Y-807D02*
X982D01*
X74Y-798D02*
X61D01*
X67D01*
Y-758D01*
X74Y-765D01*
X41D02*
X34Y-758D01*
X21D01*
X14Y-765D01*
Y-771D01*
X21Y-778D01*
X14Y-785D01*
Y-791D01*
X21Y-798D01*
X34D01*
X41Y-791D01*
Y-785D01*
X34Y-778D01*
X41Y-771D01*
Y-765D01*
X34Y-778D02*
X21D01*
X167Y-2605D02*
Y-2591D01*
Y-2598D01*
X207D01*
X200Y-2605D01*
M02*
