G04*
G04 #@! TF.GenerationSoftware,Altium Limited,Altium Designer,21.8.1 (53)*
G04*
G04 Layer_Physical_Order=1*
G04 Layer_Color=255*
%FSLAX23Y23*%
%MOIN*%
G70*
G04*
G04 #@! TF.SameCoordinates,9A98099C-E915-48DC-B274-BBC1B63A1E23*
G04*
G04*
G04 #@! TF.FilePolarity,Positive*
G04*
G01*
G75*
%ADD11C,0.008*%
%ADD14C,0.005*%
%ADD15R,0.067X0.067*%
%ADD16R,0.100X0.039*%
%ADD17R,0.070X0.028*%
%ADD18R,0.071X0.051*%
%ADD19R,0.045X0.053*%
%ADD20R,0.047X0.047*%
%ADD21R,0.053X0.045*%
%ADD22R,0.063X0.059*%
%ADD23R,0.024X0.045*%
%ADD24R,0.012X0.045*%
G04:AMPARAMS|DCode=25|XSize=8mil|YSize=33mil|CornerRadius=1mil|HoleSize=0mil|Usage=FLASHONLY|Rotation=0.000|XOffset=0mil|YOffset=0mil|HoleType=Round|Shape=RoundedRectangle|*
%AMROUNDEDRECTD25*
21,1,0.008,0.031,0,0,0.0*
21,1,0.006,0.033,0,0,0.0*
1,1,0.002,0.003,-0.016*
1,1,0.002,-0.003,-0.016*
1,1,0.002,-0.003,0.016*
1,1,0.002,0.003,0.016*
%
%ADD25ROUNDEDRECTD25*%
G04:AMPARAMS|DCode=26|XSize=33mil|YSize=8mil|CornerRadius=1mil|HoleSize=0mil|Usage=FLASHONLY|Rotation=0.000|XOffset=0mil|YOffset=0mil|HoleType=Round|Shape=RoundedRectangle|*
%AMROUNDEDRECTD26*
21,1,0.033,0.006,0,0,0.0*
21,1,0.031,0.008,0,0,0.0*
1,1,0.002,0.016,-0.003*
1,1,0.002,-0.016,-0.003*
1,1,0.002,-0.016,0.003*
1,1,0.002,0.016,0.003*
%
%ADD26ROUNDEDRECTD26*%
%ADD28R,0.035X0.039*%
%ADD29R,0.039X0.035*%
%ADD30R,0.022X0.067*%
%ADD31R,0.039X0.035*%
%ADD32R,0.039X0.024*%
%ADD33R,0.096X0.085*%
%ADD34R,0.059X0.079*%
%ADD35R,0.150X0.079*%
%ADD36R,0.055X0.051*%
%ADD37R,0.055X0.047*%
%ADD71R,0.122X0.122*%
%ADD72C,0.012*%
%ADD73C,0.028*%
%ADD74C,0.012*%
%ADD75C,0.020*%
%ADD76C,0.004*%
%ADD77C,0.039*%
%ADD78C,0.063*%
G04:AMPARAMS|DCode=79|XSize=63mil|YSize=63mil|CornerRadius=16mil|HoleSize=0mil|Usage=FLASHONLY|Rotation=90.000|XOffset=0mil|YOffset=0mil|HoleType=Round|Shape=RoundedRectangle|*
%AMROUNDEDRECTD79*
21,1,0.063,0.031,0,0,90.0*
21,1,0.031,0.063,0,0,90.0*
1,1,0.031,0.016,0.016*
1,1,0.031,0.016,-0.016*
1,1,0.031,-0.016,-0.016*
1,1,0.031,-0.016,0.016*
%
%ADD79ROUNDEDRECTD79*%
G04:AMPARAMS|DCode=80|XSize=63mil|YSize=63mil|CornerRadius=16mil|HoleSize=0mil|Usage=FLASHONLY|Rotation=180.000|XOffset=0mil|YOffset=0mil|HoleType=Round|Shape=RoundedRectangle|*
%AMROUNDEDRECTD80*
21,1,0.063,0.031,0,0,180.0*
21,1,0.031,0.063,0,0,180.0*
1,1,0.031,-0.016,0.016*
1,1,0.031,0.016,0.016*
1,1,0.031,0.016,-0.016*
1,1,0.031,-0.016,-0.016*
%
%ADD80ROUNDEDRECTD80*%
G04:AMPARAMS|DCode=81|XSize=65mil|YSize=65mil|CornerRadius=16mil|HoleSize=0mil|Usage=FLASHONLY|Rotation=90.000|XOffset=0mil|YOffset=0mil|HoleType=Round|Shape=RoundedRectangle|*
%AMROUNDEDRECTD81*
21,1,0.065,0.032,0,0,90.0*
21,1,0.032,0.065,0,0,90.0*
1,1,0.032,0.016,0.016*
1,1,0.032,0.016,-0.016*
1,1,0.032,-0.016,-0.016*
1,1,0.032,-0.016,0.016*
%
%ADD81ROUNDEDRECTD81*%
%ADD82C,0.065*%
%ADD83O,0.039X0.079*%
%ADD84O,0.041X0.083*%
%ADD85C,0.026*%
%ADD86C,0.024*%
%ADD87C,0.020*%
%ADD88C,0.047*%
G36*
X1100Y-50D02*
Y-667D01*
X1095Y-669D01*
X1095Y-668D01*
X1088Y-663D01*
X1084Y-663D01*
Y-684D01*
Y-705D01*
X1088Y-705D01*
X1095Y-700D01*
X1095Y-699D01*
X1100Y-701D01*
Y-2650D01*
X1050Y-2700D01*
X50D01*
X0Y-2650D01*
Y-50D01*
X50Y0D01*
X1050D01*
X1100Y-50D01*
D02*
G37*
%LPC*%
G36*
X743Y-9D02*
Y-53D01*
X768D01*
Y-38D01*
X767Y-30D01*
X764Y-23D01*
X759Y-17D01*
X753Y-12D01*
X745Y-9D01*
X743Y-9D01*
D02*
G37*
G36*
X733Y-9D02*
X730Y-9D01*
X723Y-12D01*
X716Y-17D01*
X712Y-23D01*
X709Y-30D01*
X708Y-38D01*
Y-53D01*
X733D01*
Y-9D01*
D02*
G37*
G36*
X397Y-13D02*
X388Y-15D01*
X380Y-20D01*
X374Y-28D01*
X372Y-38D01*
Y-77D01*
X374Y-87D01*
X380Y-95D01*
X388Y-101D01*
X397Y-103D01*
X407Y-101D01*
X415Y-95D01*
X421Y-87D01*
X423Y-77D01*
Y-38D01*
X421Y-28D01*
X415Y-20D01*
X407Y-15D01*
X397Y-13D01*
D02*
G37*
G36*
X733Y-63D02*
X708D01*
Y-77D01*
X709Y-85D01*
X712Y-92D01*
X716Y-99D01*
X723Y-103D01*
X730Y-106D01*
X733Y-107D01*
Y-63D01*
D02*
G37*
G36*
X768D02*
X743D01*
Y-107D01*
X745Y-106D01*
X753Y-103D01*
X759Y-99D01*
X764Y-92D01*
X767Y-85D01*
X768Y-77D01*
Y-63D01*
D02*
G37*
G36*
X1041Y-60D02*
X964D01*
Y-137D01*
X1041D01*
Y-60D01*
D02*
G37*
G36*
X589Y-133D02*
X582Y-134D01*
X578Y-137D01*
X575Y-138D01*
X571Y-137D01*
X567Y-134D01*
X560Y-133D01*
X554Y-134D01*
X548Y-138D01*
X545Y-143D01*
X543Y-150D01*
X545Y-157D01*
X548Y-162D01*
X554Y-166D01*
X560Y-167D01*
X563Y-169D01*
Y-178D01*
X538Y-202D01*
X536Y-205D01*
X536Y-208D01*
Y-217D01*
X471D01*
X469Y-212D01*
X471Y-210D01*
X472Y-203D01*
X471Y-196D01*
X467Y-190D01*
X461Y-186D01*
X454Y-185D01*
X447Y-186D01*
X441Y-190D01*
X437Y-196D01*
X436Y-203D01*
X437Y-207D01*
X433Y-212D01*
X428D01*
Y-202D01*
X427Y-194D01*
X424Y-186D01*
X419Y-180D01*
X413Y-175D01*
X405Y-172D01*
X402Y-171D01*
Y-222D01*
Y-273D01*
X405Y-273D01*
X413Y-270D01*
X415Y-268D01*
X420Y-271D01*
Y-278D01*
X437D01*
Y-245D01*
X447D01*
Y-278D01*
X456D01*
Y-291D01*
X453Y-293D01*
X449Y-299D01*
X448Y-305D01*
X449Y-312D01*
X453Y-317D01*
X459Y-321D01*
X465Y-322D01*
X472Y-321D01*
X477Y-317D01*
X481Y-312D01*
X481Y-310D01*
X482Y-310D01*
X485Y-305D01*
X486Y-299D01*
Y-273D01*
X536D01*
Y-372D01*
X536Y-374D01*
X538Y-377D01*
X577Y-416D01*
Y-528D01*
X514D01*
Y-584D01*
X578D01*
Y-544D01*
X582D01*
X584Y-544D01*
X587Y-542D01*
X589Y-540D01*
X591Y-542D01*
X593Y-544D01*
X596Y-544D01*
X599D01*
Y-585D01*
X663D01*
Y-530D01*
X611D01*
X611Y-530D01*
X601D01*
Y-409D01*
X601Y-409D01*
X600Y-406D01*
X599Y-404D01*
X599Y-404D01*
X571Y-376D01*
X574Y-372D01*
X581Y-373D01*
X587Y-372D01*
X593Y-368D01*
X597Y-363D01*
X598Y-358D01*
X600Y-355D01*
X602Y-353D01*
X608Y-352D01*
X613Y-348D01*
X617Y-343D01*
X618Y-336D01*
X617Y-329D01*
X613Y-324D01*
X608Y-320D01*
X601Y-319D01*
X595Y-320D01*
X594Y-320D01*
X590Y-318D01*
Y-300D01*
X597Y-293D01*
X599Y-291D01*
X599Y-288D01*
Y-273D01*
X645D01*
Y-286D01*
X643Y-288D01*
X642Y-295D01*
X643Y-302D01*
X647Y-307D01*
X652Y-311D01*
X659Y-312D01*
X666Y-311D01*
X671Y-307D01*
X675Y-302D01*
X676Y-295D01*
X675Y-290D01*
Y-278D01*
X689D01*
Y-245D01*
X699D01*
Y-278D01*
X715D01*
Y-271D01*
X720Y-268D01*
X722Y-270D01*
X730Y-273D01*
X733Y-273D01*
Y-222D01*
Y-171D01*
X730Y-172D01*
X722Y-175D01*
X716Y-180D01*
X711Y-186D01*
X708Y-194D01*
X707Y-202D01*
Y-212D01*
X702D01*
X699Y-207D01*
X699Y-203D01*
X698Y-196D01*
X694Y-190D01*
X688Y-186D01*
X681Y-185D01*
X674Y-186D01*
X668Y-190D01*
X665Y-196D01*
X663Y-203D01*
X665Y-210D01*
X666Y-212D01*
X664Y-217D01*
X564D01*
X562Y-212D01*
X585Y-190D01*
X586Y-187D01*
X587Y-185D01*
Y-169D01*
X589Y-167D01*
X596Y-166D01*
X601Y-162D01*
X605Y-157D01*
X606Y-150D01*
X605Y-143D01*
X601Y-138D01*
X596Y-134D01*
X589Y-133D01*
D02*
G37*
G36*
X342Y-70D02*
X235D01*
Y-164D01*
X342D01*
Y-151D01*
X346Y-148D01*
X348Y-149D01*
X355Y-150D01*
X362Y-149D01*
X369Y-146D01*
X375Y-141D01*
X380Y-135D01*
X383Y-128D01*
X384Y-121D01*
X383Y-114D01*
X380Y-107D01*
X375Y-101D01*
X369Y-96D01*
X362Y-93D01*
X355Y-92D01*
X348Y-93D01*
X346Y-94D01*
X342Y-91D01*
Y-70D01*
D02*
G37*
G36*
X173D02*
X66D01*
Y-164D01*
X85D01*
X90Y-169D01*
X89Y-173D01*
X90Y-180D01*
X93Y-187D01*
X98Y-193D01*
X104Y-198D01*
X111Y-201D01*
X118Y-202D01*
X125Y-201D01*
X132Y-198D01*
X138Y-193D01*
X143Y-187D01*
X146Y-180D01*
X147Y-173D01*
X146Y-169D01*
X151Y-164D01*
X173D01*
Y-70D01*
D02*
G37*
G36*
X743Y-171D02*
Y-217D01*
X769D01*
Y-202D01*
X767Y-194D01*
X764Y-186D01*
X759Y-180D01*
X753Y-175D01*
X746Y-172D01*
X743Y-171D01*
D02*
G37*
G36*
X392D02*
X389Y-172D01*
X382Y-175D01*
X376Y-180D01*
X371Y-186D01*
X368Y-194D01*
X367Y-202D01*
Y-217D01*
X392D01*
Y-171D01*
D02*
G37*
G36*
X921Y-188D02*
X811D01*
Y-237D01*
X921D01*
Y-231D01*
X924Y-229D01*
X926Y-229D01*
X932Y-230D01*
X939Y-229D01*
X944Y-225D01*
X948Y-220D01*
X949Y-213D01*
X948Y-206D01*
X944Y-201D01*
X939Y-197D01*
X932Y-196D01*
X926Y-197D01*
X924Y-197D01*
X921Y-195D01*
Y-188D01*
D02*
G37*
G36*
X268Y-217D02*
Y-238D01*
X258D01*
Y-217D01*
X254Y-217D01*
X247Y-222D01*
X242Y-229D01*
X242Y-234D01*
X216D01*
Y-265D01*
X306D01*
Y-234D01*
X284D01*
X284Y-229D01*
X279Y-222D01*
X272Y-217D01*
X268Y-217D01*
D02*
G37*
G36*
X82Y-220D02*
Y-241D01*
X72D01*
Y-220D01*
X68Y-220D01*
X61Y-225D01*
X57Y-231D01*
X35D01*
Y-262D01*
X80D01*
Y-267D01*
X85D01*
Y-302D01*
X125D01*
Y-302D01*
X128Y-301D01*
X131Y-305D01*
Y-314D01*
X169D01*
Y-324D01*
X131D01*
Y-355D01*
X136D01*
Y-362D01*
X120D01*
Y-350D01*
X40D01*
Y-412D01*
X120D01*
Y-401D01*
X136D01*
Y-413D01*
X150D01*
Y-429D01*
X123D01*
Y-441D01*
X118Y-443D01*
X112Y-441D01*
X105Y-440D01*
X98Y-441D01*
X91Y-444D01*
X85Y-449D01*
X80Y-455D01*
X77Y-462D01*
X76Y-469D01*
X77Y-476D01*
X80Y-483D01*
X85Y-489D01*
X91Y-494D01*
X98Y-497D01*
X105Y-498D01*
X112Y-497D01*
X118Y-495D01*
X123Y-497D01*
Y-517D01*
X192D01*
Y-429D01*
X188D01*
Y-413D01*
X202D01*
Y-355D01*
X207D01*
Y-318D01*
X218D01*
X218Y-318D01*
X224Y-317D01*
X228Y-314D01*
X237Y-305D01*
X256D01*
Y-275D01*
X216D01*
Y-284D01*
X212Y-288D01*
X207Y-288D01*
Y-283D01*
X192D01*
X192Y-280D01*
X187Y-273D01*
X180Y-268D01*
X176Y-268D01*
Y-289D01*
X166D01*
Y-268D01*
X162Y-268D01*
X155Y-273D01*
X153Y-277D01*
X147Y-277D01*
X141Y-272D01*
X136Y-269D01*
X131Y-267D01*
X131Y-267D01*
X125D01*
Y-231D01*
X97D01*
X93Y-225D01*
X86Y-220D01*
X82Y-220D01*
D02*
G37*
G36*
X769Y-227D02*
X743D01*
Y-273D01*
X746Y-273D01*
X753Y-270D01*
X759Y-265D01*
X764Y-258D01*
X767Y-251D01*
X769Y-243D01*
Y-227D01*
D02*
G37*
G36*
X392D02*
X367D01*
Y-243D01*
X368Y-251D01*
X371Y-258D01*
X376Y-265D01*
X382Y-270D01*
X389Y-273D01*
X392Y-273D01*
Y-227D01*
D02*
G37*
G36*
X356Y-259D02*
Y-275D01*
X372D01*
X372Y-271D01*
X367Y-264D01*
X360Y-259D01*
X356Y-259D01*
D02*
G37*
G36*
X346D02*
X342Y-259D01*
X335Y-264D01*
X330Y-271D01*
X330Y-275D01*
X346D01*
Y-259D01*
D02*
G37*
G36*
X946Y-269D02*
Y-285D01*
X962D01*
X962Y-281D01*
X957Y-274D01*
X950Y-269D01*
X946Y-269D01*
D02*
G37*
G36*
X861Y-261D02*
X806D01*
Y-286D01*
X861D01*
Y-261D01*
D02*
G37*
G36*
X75Y-272D02*
X35D01*
Y-302D01*
X75D01*
Y-272D01*
D02*
G37*
G36*
X962Y-295D02*
X946D01*
Y-311D01*
X950Y-311D01*
X957Y-306D01*
X962Y-299D01*
X962Y-295D01*
D02*
G37*
G36*
X926Y-261D02*
X871D01*
Y-291D01*
X866D01*
D01*
X871D01*
Y-321D01*
X926D01*
Y-312D01*
X930Y-309D01*
X932Y-311D01*
X936Y-311D01*
Y-290D01*
Y-269D01*
X932Y-269D01*
X930Y-271D01*
X926Y-268D01*
Y-261D01*
D02*
G37*
G36*
X861Y-296D02*
X806D01*
Y-321D01*
X861D01*
Y-296D01*
D02*
G37*
G36*
X921Y-345D02*
X811D01*
Y-394D01*
X921D01*
Y-345D01*
D02*
G37*
G36*
X306Y-275D02*
X266D01*
Y-305D01*
X285D01*
X297Y-317D01*
X302Y-321D01*
X308Y-322D01*
X308Y-322D01*
X314D01*
Y-358D01*
X319D01*
Y-416D01*
X385D01*
Y-411D01*
X386Y-410D01*
X390Y-408D01*
X395Y-409D01*
X402Y-408D01*
X407Y-404D01*
X411Y-399D01*
X412Y-392D01*
X411Y-385D01*
X407Y-380D01*
X402Y-376D01*
X395Y-375D01*
X390Y-376D01*
X385Y-373D01*
Y-358D01*
X390D01*
Y-328D01*
X352D01*
Y-318D01*
X390D01*
Y-287D01*
X376D01*
X374Y-285D01*
X328D01*
X326Y-287D01*
X314D01*
Y-287D01*
X310Y-287D01*
X306Y-283D01*
Y-275D01*
D02*
G37*
G36*
X334Y-424D02*
X299D01*
Y-468D01*
X334D01*
Y-424D01*
D02*
G37*
G36*
X378D02*
X344D01*
Y-473D01*
Y-522D01*
X378D01*
Y-496D01*
X385Y-495D01*
X392Y-490D01*
X397Y-483D01*
X397Y-479D01*
X376D01*
Y-469D01*
X397D01*
X397Y-465D01*
X392Y-458D01*
X385Y-453D01*
X378Y-452D01*
Y-424D01*
D02*
G37*
G36*
X334Y-478D02*
X299D01*
Y-522D01*
X334D01*
Y-478D01*
D02*
G37*
G36*
X1041Y-445D02*
X964D01*
Y-522D01*
X1041D01*
Y-445D01*
D02*
G37*
G36*
X857Y-571D02*
X832D01*
Y-593D01*
X857D01*
Y-571D01*
D02*
G37*
G36*
X822D02*
X798D01*
Y-593D01*
X822D01*
Y-571D01*
D02*
G37*
G36*
X1043Y-571D02*
X988D01*
Y-613D01*
X979Y-622D01*
X974Y-620D01*
Y-571D01*
X919D01*
Y-581D01*
X915Y-584D01*
X914Y-584D01*
X908Y-583D01*
X901Y-584D01*
X896Y-588D01*
X892Y-593D01*
X891Y-600D01*
X892Y-607D01*
X896Y-612D01*
X901Y-616D01*
X908Y-617D01*
X914Y-616D01*
X919Y-616D01*
Y-635D01*
X960D01*
X962Y-639D01*
X950Y-651D01*
X946Y-656D01*
X946Y-656D01*
X918D01*
Y-714D01*
X975D01*
Y-673D01*
X976Y-671D01*
X976Y-671D01*
Y-668D01*
X991Y-653D01*
X996Y-655D01*
Y-680D01*
X1024D01*
Y-651D01*
X999D01*
X997Y-646D01*
X1009Y-635D01*
X1043D01*
Y-571D01*
D02*
G37*
G36*
X789Y-576D02*
X740D01*
Y-621D01*
X776D01*
X784Y-629D01*
Y-658D01*
X780Y-660D01*
X778Y-658D01*
X774Y-658D01*
Y-679D01*
Y-700D01*
X778Y-700D01*
X780Y-698D01*
X784Y-700D01*
Y-729D01*
X776Y-737D01*
X740D01*
Y-782D01*
X757D01*
Y-809D01*
X745D01*
Y-859D01*
X766D01*
Y-880D01*
X742D01*
Y-935D01*
X806D01*
Y-925D01*
X811Y-922D01*
X813Y-922D01*
X819Y-921D01*
X824Y-918D01*
X827Y-913D01*
X828Y-907D01*
X827Y-901D01*
X824Y-896D01*
X819Y-893D01*
X813Y-892D01*
X811Y-892D01*
X806Y-889D01*
Y-880D01*
X782D01*
Y-859D01*
X790D01*
X793Y-863D01*
Y-864D01*
X816D01*
Y-834D01*
X821D01*
Y-829D01*
X848D01*
Y-804D01*
X839D01*
Y-787D01*
X857D01*
Y-765D01*
X827D01*
Y-755D01*
X857D01*
Y-732D01*
X843D01*
Y-695D01*
X843Y-695D01*
X848Y-688D01*
X849Y-684D01*
X827D01*
Y-674D01*
X849D01*
X848Y-670D01*
X843Y-663D01*
X843Y-663D01*
Y-626D01*
X857D01*
Y-603D01*
X827D01*
X798D01*
Y-614D01*
X793Y-616D01*
X789Y-612D01*
Y-576D01*
D02*
G37*
G36*
X735Y-636D02*
X719D01*
Y-674D01*
X735D01*
Y-636D01*
D02*
G37*
G36*
X1063Y-651D02*
X1034D01*
Y-685D01*
Y-719D01*
X1063D01*
Y-706D01*
X1068Y-703D01*
X1070Y-705D01*
X1074Y-705D01*
Y-684D01*
Y-663D01*
X1070Y-663D01*
X1068Y-665D01*
X1063Y-662D01*
Y-651D01*
D02*
G37*
G36*
X1024Y-690D02*
X996D01*
Y-719D01*
X1024D01*
Y-690D01*
D02*
G37*
G36*
X761Y-636D02*
X745D01*
Y-679D01*
Y-722D01*
X761D01*
Y-704D01*
X764Y-701D01*
Y-679D01*
Y-657D01*
X761Y-654D01*
Y-636D01*
D02*
G37*
G36*
X735Y-684D02*
X719D01*
Y-722D01*
X735D01*
Y-684D01*
D02*
G37*
G36*
X301Y-353D02*
X221D01*
Y-415D01*
X229D01*
Y-429D01*
X213D01*
Y-517D01*
X224D01*
Y-543D01*
X223Y-548D01*
Y-648D01*
Y-677D01*
X168D01*
Y-765D01*
X328D01*
Y-677D01*
X273D01*
Y-648D01*
Y-552D01*
X274Y-547D01*
Y-517D01*
X283D01*
Y-429D01*
X280D01*
Y-415D01*
X301D01*
Y-353D01*
D02*
G37*
G36*
X356Y-783D02*
X301D01*
Y-847D01*
X356D01*
Y-838D01*
X359Y-837D01*
X361Y-836D01*
X367Y-837D01*
X374Y-836D01*
X379Y-832D01*
X383Y-827D01*
X384Y-820D01*
X383Y-813D01*
X379Y-808D01*
X374Y-804D01*
X367Y-803D01*
X361Y-804D01*
X359Y-803D01*
X356Y-802D01*
Y-783D01*
D02*
G37*
G36*
X463Y-838D02*
Y-854D01*
X479D01*
X479Y-850D01*
X474Y-843D01*
X467Y-838D01*
X463Y-838D01*
D02*
G37*
G36*
X453D02*
X449Y-838D01*
X442Y-843D01*
X437Y-850D01*
X437Y-854D01*
X453D01*
Y-838D01*
D02*
G37*
G36*
X848Y-839D02*
X826D01*
Y-864D01*
X848D01*
Y-839D01*
D02*
G37*
G36*
X397Y-840D02*
X390Y-841D01*
X385Y-845D01*
X381Y-850D01*
X380Y-857D01*
X381Y-864D01*
X382Y-864D01*
X380Y-869D01*
X377D01*
Y-879D01*
X355D01*
Y-862D01*
X300D01*
Y-926D01*
X355D01*
Y-909D01*
X377D01*
Y-919D01*
X420D01*
X422Y-919D01*
X425Y-923D01*
Y-924D01*
X448D01*
Y-894D01*
X453D01*
Y-889D01*
X480D01*
Y-864D01*
X480D01*
X480Y-864D01*
X433D01*
X433Y-864D01*
X425D01*
Y-865D01*
X422Y-869D01*
X420Y-869D01*
X413D01*
Y-863D01*
X414Y-857D01*
X413Y-850D01*
X409Y-845D01*
X404Y-841D01*
X397Y-840D01*
D02*
G37*
G36*
X1005Y-859D02*
Y-895D01*
X1041D01*
X1040Y-889D01*
X1036Y-879D01*
X1030Y-870D01*
X1021Y-864D01*
X1011Y-860D01*
X1005Y-859D01*
D02*
G37*
G36*
X105D02*
Y-895D01*
X141D01*
X140Y-889D01*
X136Y-879D01*
X130Y-870D01*
X121Y-864D01*
X111Y-860D01*
X105Y-859D01*
D02*
G37*
G36*
X995Y-859D02*
X989Y-860D01*
X979Y-864D01*
X970Y-870D01*
X964Y-879D01*
X960Y-889D01*
X959Y-895D01*
X995D01*
Y-859D01*
D02*
G37*
G36*
X95D02*
X89Y-860D01*
X79Y-864D01*
X70Y-870D01*
X64Y-879D01*
X60Y-889D01*
X59Y-895D01*
X95D01*
Y-859D01*
D02*
G37*
G36*
X480Y-899D02*
X458D01*
Y-924D01*
X480D01*
Y-899D01*
D02*
G37*
G36*
X1041Y-905D02*
X1005D01*
Y-941D01*
X1011Y-940D01*
X1021Y-936D01*
X1030Y-930D01*
X1036Y-921D01*
X1040Y-911D01*
X1041Y-905D01*
D02*
G37*
G36*
X141D02*
X105D01*
Y-941D01*
X111Y-940D01*
X121Y-936D01*
X130Y-930D01*
X136Y-921D01*
X140Y-911D01*
X141Y-905D01*
D02*
G37*
G36*
X995D02*
X959D01*
X960Y-911D01*
X964Y-921D01*
X970Y-930D01*
X979Y-936D01*
X989Y-940D01*
X995Y-941D01*
Y-905D01*
D02*
G37*
G36*
X95D02*
X59D01*
X60Y-911D01*
X64Y-921D01*
X70Y-930D01*
X79Y-936D01*
X89Y-940D01*
X95Y-941D01*
Y-905D01*
D02*
G37*
G36*
X410Y-957D02*
X405Y-959D01*
X405Y-958D01*
X398Y-957D01*
X391Y-958D01*
X386Y-962D01*
X382Y-967D01*
X381Y-974D01*
X382Y-981D01*
X386Y-986D01*
X391Y-990D01*
X398Y-991D01*
X404Y-990D01*
X410D01*
Y-995D01*
X490D01*
Y-957D01*
X410D01*
Y-957D01*
D02*
G37*
G36*
X578Y-597D02*
X514D01*
Y-653D01*
X576D01*
Y-757D01*
X577Y-760D01*
X578Y-762D01*
X626Y-810D01*
Y-1000D01*
X625Y-1001D01*
X624Y-1003D01*
X623Y-1006D01*
Y-1030D01*
X618Y-1031D01*
X618Y-1030D01*
X611Y-1025D01*
X607Y-1025D01*
Y-1046D01*
X602D01*
Y-1051D01*
X579D01*
X577Y-1053D01*
X572D01*
Y-1044D01*
X572Y-1044D01*
X571Y-1041D01*
X570Y-1039D01*
X554Y-1024D01*
X552Y-1022D01*
X549Y-1021D01*
X490D01*
Y-1007D01*
X410D01*
Y-1045D01*
X490D01*
Y-1037D01*
X546D01*
X557Y-1048D01*
Y-1073D01*
X552Y-1075D01*
X547Y-1071D01*
X545Y-1069D01*
X542Y-1068D01*
X490D01*
Y-1057D01*
X410D01*
Y-1095D01*
X490D01*
Y-1084D01*
X539D01*
X541Y-1086D01*
Y-1125D01*
X536Y-1127D01*
X532Y-1124D01*
X530Y-1122D01*
X527Y-1121D01*
X490D01*
Y-1107D01*
X410D01*
Y-1145D01*
X490D01*
Y-1137D01*
X524D01*
X525Y-1138D01*
Y-1156D01*
X520Y-1158D01*
X514Y-1153D01*
X512Y-1151D01*
X509Y-1150D01*
X396D01*
X316Y-1071D01*
X314Y-1069D01*
X311Y-1068D01*
X306D01*
Y-1057D01*
X226D01*
X225Y-1052D01*
Y-1050D01*
X226Y-1045D01*
X306D01*
Y-1007D01*
X226D01*
Y-1018D01*
X224D01*
X221Y-1019D01*
X219Y-1021D01*
X215Y-1025D01*
X210Y-1022D01*
Y-989D01*
X215Y-984D01*
X226D01*
Y-995D01*
X306D01*
Y-957D01*
X274D01*
Y-926D01*
X286D01*
Y-862D01*
X267D01*
Y-847D01*
X287D01*
Y-783D01*
X232D01*
Y-847D01*
X252D01*
Y-862D01*
X231D01*
Y-926D01*
X258D01*
Y-957D01*
X226D01*
Y-968D01*
X212D01*
X209Y-969D01*
X207Y-971D01*
X207Y-971D01*
X197Y-981D01*
X195Y-983D01*
X194Y-986D01*
Y-1155D01*
X195Y-1158D01*
X197Y-1160D01*
X207Y-1171D01*
X209Y-1172D01*
X212Y-1173D01*
X344D01*
X365Y-1193D01*
X367Y-1195D01*
X370Y-1196D01*
X476D01*
Y-1220D01*
X478Y-1225D01*
X483Y-1227D01*
X489D01*
X493Y-1225D01*
X494Y-1225D01*
X498Y-1227D01*
X504D01*
X509Y-1225D01*
X510Y-1225D01*
X514Y-1227D01*
X520D01*
X525Y-1225D01*
X525Y-1225D01*
X530Y-1227D01*
X536D01*
X540Y-1225D01*
X541Y-1225D01*
X546Y-1227D01*
X552D01*
X556Y-1225D01*
X557Y-1225D01*
X561Y-1227D01*
X567D01*
X567Y-1227D01*
X572Y-1230D01*
Y-1239D01*
X573Y-1242D01*
X575Y-1245D01*
X578Y-1248D01*
X580Y-1249D01*
X583Y-1250D01*
X626D01*
X629Y-1249D01*
X631Y-1248D01*
X638Y-1240D01*
X646D01*
X648Y-1243D01*
X653Y-1247D01*
X659Y-1248D01*
X665Y-1247D01*
X670Y-1243D01*
X673Y-1238D01*
X674Y-1233D01*
X674Y-1232D01*
X678Y-1227D01*
X682Y-1225D01*
X683Y-1225D01*
X687Y-1227D01*
X693D01*
X698Y-1225D01*
X700Y-1220D01*
Y-1220D01*
X701Y-1219D01*
X705Y-1218D01*
X709Y-1221D01*
X716Y-1222D01*
X723Y-1221D01*
X728Y-1217D01*
X732Y-1212D01*
X733Y-1205D01*
X732Y-1198D01*
X728Y-1193D01*
X723Y-1189D01*
X716Y-1188D01*
X709Y-1189D01*
X705Y-1192D01*
X701Y-1191D01*
X700Y-1190D01*
Y-1189D01*
X699Y-1188D01*
Y-1186D01*
X700Y-1185D01*
X701Y-1181D01*
Y-1170D01*
X715D01*
Y-1127D01*
X715Y-1124D01*
X719Y-1122D01*
X720D01*
Y-1099D01*
X660D01*
Y-1122D01*
X661D01*
X665Y-1124D01*
X665Y-1127D01*
Y-1170D01*
X679D01*
Y-1178D01*
X678Y-1181D01*
X674Y-1183D01*
X672D01*
X667Y-1185D01*
X666Y-1185D01*
X662Y-1183D01*
X656D01*
X652Y-1184D01*
X647Y-1182D01*
Y-1013D01*
X648Y-1012D01*
X650Y-1010D01*
X650Y-1007D01*
Y-803D01*
X650Y-803D01*
X650Y-800D01*
X648Y-798D01*
X648Y-798D01*
X600Y-750D01*
Y-654D01*
X663D01*
Y-599D01*
X599D01*
Y-619D01*
X595D01*
X593Y-620D01*
X590Y-621D01*
X588Y-623D01*
X586Y-621D01*
X584Y-620D01*
X581Y-619D01*
X578D01*
Y-597D01*
D02*
G37*
G36*
X806Y-949D02*
X742D01*
Y-1004D01*
X757D01*
X758Y-1006D01*
X759Y-1009D01*
X758Y-1015D01*
X759Y-1022D01*
X763Y-1027D01*
X768Y-1031D01*
X775Y-1032D01*
X782Y-1031D01*
X787Y-1027D01*
X791Y-1022D01*
X792Y-1015D01*
X791Y-1009D01*
X791Y-1008D01*
X794Y-1004D01*
X806D01*
Y-949D01*
D02*
G37*
G36*
X1000Y-963D02*
X990Y-964D01*
X982Y-968D01*
X974Y-974D01*
X968Y-982D01*
X964Y-990D01*
X963Y-1000D01*
X964Y-1010D01*
X968Y-1018D01*
X969Y-1020D01*
X942Y-1048D01*
X940Y-1050D01*
X939Y-1053D01*
Y-1173D01*
X866Y-1246D01*
X854D01*
Y-1226D01*
X826D01*
Y-1216D01*
X854D01*
Y-1195D01*
X854Y-1191D01*
X854Y-1191D01*
X853Y-1190D01*
X853D01*
Y-1165D01*
X826D01*
Y-1155D01*
X853D01*
Y-1130D01*
X853D01*
X851Y-1128D01*
X806D01*
X804Y-1130D01*
X798D01*
Y-1131D01*
X795Y-1135D01*
X787D01*
Y-1127D01*
X788Y-1127D01*
X789Y-1120D01*
X788Y-1113D01*
X784Y-1108D01*
X779Y-1104D01*
X772Y-1103D01*
X765Y-1104D01*
X760Y-1108D01*
X756Y-1113D01*
X755Y-1120D01*
X756Y-1127D01*
X757Y-1128D01*
Y-1135D01*
X750D01*
Y-1185D01*
X758D01*
Y-1196D01*
X750D01*
Y-1224D01*
X746Y-1225D01*
X742Y-1227D01*
X742Y-1227D01*
X741Y-1229D01*
X740D01*
X739Y-1228D01*
X708D01*
X703Y-1230D01*
X701Y-1235D01*
Y-1241D01*
X703Y-1245D01*
X703Y-1246D01*
X701Y-1250D01*
Y-1256D01*
X701Y-1257D01*
X703Y-1261D01*
X701Y-1266D01*
X701Y-1266D01*
Y-1272D01*
X703Y-1277D01*
X703Y-1277D01*
X701Y-1282D01*
Y-1288D01*
X703Y-1292D01*
X703Y-1293D01*
X701Y-1298D01*
Y-1304D01*
X701Y-1304D01*
X703Y-1309D01*
X701Y-1313D01*
X701Y-1313D01*
Y-1319D01*
X703Y-1324D01*
X703Y-1325D01*
X701Y-1329D01*
Y-1335D01*
X703Y-1338D01*
X702Y-1339D01*
X697Y-1338D01*
X696Y-1332D01*
X691Y-1325D01*
X684Y-1320D01*
X680Y-1320D01*
Y-1341D01*
X670D01*
Y-1320D01*
X666Y-1320D01*
X664Y-1322D01*
X659Y-1319D01*
Y-1269D01*
X593D01*
Y-1340D01*
X588D01*
Y-1345D01*
X517D01*
Y-1411D01*
X582D01*
X585Y-1415D01*
X584Y-1416D01*
X583Y-1423D01*
X584Y-1430D01*
X587Y-1433D01*
Y-1441D01*
X586Y-1442D01*
X585Y-1445D01*
X540D01*
Y-1450D01*
X536Y-1453D01*
X536Y-1453D01*
X533D01*
X529Y-1449D01*
X529Y-1447D01*
X532Y-1445D01*
X535Y-1440D01*
X536Y-1434D01*
X535Y-1428D01*
X532Y-1423D01*
X527Y-1420D01*
X521Y-1419D01*
X515Y-1420D01*
X510Y-1423D01*
X507Y-1428D01*
X506Y-1434D01*
X507Y-1440D01*
X510Y-1445D01*
X511Y-1445D01*
Y-1451D01*
X506Y-1454D01*
X505Y-1453D01*
X504Y-1453D01*
X498D01*
X494Y-1455D01*
X493Y-1455D01*
X489Y-1453D01*
X483D01*
X478Y-1455D01*
X476Y-1460D01*
Y-1465D01*
X387D01*
X385Y-1462D01*
X380Y-1459D01*
X374Y-1458D01*
X372Y-1458D01*
X370Y-1454D01*
X373Y-1450D01*
X433D01*
X437Y-1452D01*
X468D01*
X473Y-1450D01*
X475Y-1445D01*
Y-1439D01*
X473Y-1435D01*
X473Y-1434D01*
X475Y-1430D01*
Y-1424D01*
X475Y-1423D01*
X473Y-1419D01*
X475Y-1414D01*
X475Y-1414D01*
Y-1408D01*
X473Y-1403D01*
X473Y-1403D01*
X475Y-1398D01*
Y-1392D01*
X473Y-1388D01*
X473Y-1387D01*
X475Y-1382D01*
Y-1376D01*
X475Y-1376D01*
X473Y-1371D01*
X475Y-1367D01*
X475Y-1367D01*
Y-1361D01*
X473Y-1356D01*
X473Y-1355D01*
X475Y-1351D01*
Y-1345D01*
X473Y-1340D01*
X473Y-1340D01*
X475Y-1335D01*
Y-1329D01*
X473Y-1325D01*
X473Y-1324D01*
X475Y-1319D01*
Y-1313D01*
X475Y-1313D01*
X473Y-1309D01*
X475Y-1304D01*
X475Y-1304D01*
Y-1298D01*
X473Y-1293D01*
X473Y-1292D01*
X475Y-1288D01*
Y-1282D01*
X473Y-1277D01*
X473Y-1277D01*
X475Y-1272D01*
Y-1266D01*
X475Y-1266D01*
X473Y-1261D01*
X475Y-1257D01*
X475Y-1256D01*
Y-1250D01*
X473Y-1246D01*
X473Y-1245D01*
X475Y-1241D01*
Y-1235D01*
X473Y-1230D01*
X468Y-1228D01*
X444D01*
X438Y-1222D01*
X438Y-1221D01*
X437Y-1215D01*
X434Y-1210D01*
X429Y-1207D01*
X423Y-1206D01*
X417Y-1207D01*
X412Y-1210D01*
X409Y-1215D01*
X408Y-1221D01*
X409Y-1227D01*
X412Y-1232D01*
X417Y-1235D01*
X423Y-1236D01*
X425Y-1236D01*
X430Y-1241D01*
X430Y-1243D01*
X427Y-1246D01*
X188D01*
X183Y-1242D01*
X181Y-1240D01*
X178Y-1239D01*
X162D01*
X160Y-1236D01*
X155Y-1233D01*
X149Y-1232D01*
X143Y-1233D01*
X138Y-1236D01*
X135Y-1241D01*
X134Y-1247D01*
X135Y-1253D01*
X138Y-1258D01*
X143Y-1261D01*
X145Y-1261D01*
X149Y-1263D01*
X148Y-1267D01*
X148Y-1269D01*
X149Y-1275D01*
X152Y-1280D01*
X157Y-1283D01*
X163Y-1284D01*
X165Y-1284D01*
X169Y-1288D01*
X169Y-1289D01*
X170Y-1295D01*
X173Y-1300D01*
X178Y-1303D01*
X184Y-1304D01*
X187Y-1304D01*
X191Y-1308D01*
X191Y-1308D01*
X192Y-1314D01*
X195Y-1319D01*
X200Y-1322D01*
X206Y-1323D01*
X207Y-1323D01*
X212Y-1325D01*
X213Y-1331D01*
X216Y-1336D01*
X221Y-1339D01*
X224Y-1339D01*
X227Y-1341D01*
X227Y-1345D01*
X227Y-1347D01*
X228Y-1353D01*
X231Y-1358D01*
X236Y-1361D01*
X241Y-1362D01*
X242Y-1362D01*
X244Y-1367D01*
X244Y-1369D01*
X245Y-1375D01*
X248Y-1380D01*
X253Y-1383D01*
X259Y-1384D01*
X260Y-1384D01*
X264Y-1388D01*
X264Y-1389D01*
X265Y-1395D01*
X268Y-1400D01*
X273Y-1403D01*
X274Y-1403D01*
X278Y-1406D01*
X278Y-1409D01*
X277Y-1412D01*
X278Y-1418D01*
X281Y-1423D01*
X286Y-1426D01*
X288Y-1426D01*
X291Y-1431D01*
X290Y-1437D01*
X291Y-1443D01*
X293Y-1446D01*
X290Y-1451D01*
X262D01*
X131Y-1320D01*
X132Y-1318D01*
X136Y-1310D01*
X137Y-1300D01*
X136Y-1290D01*
X132Y-1282D01*
X126Y-1274D01*
X118Y-1268D01*
X110Y-1264D01*
X100Y-1263D01*
X90Y-1264D01*
X82Y-1268D01*
X74Y-1274D01*
X68Y-1282D01*
X64Y-1290D01*
X63Y-1300D01*
X64Y-1310D01*
X68Y-1318D01*
X74Y-1326D01*
X82Y-1332D01*
X90Y-1336D01*
X100Y-1337D01*
X110Y-1336D01*
X118Y-1332D01*
X120Y-1331D01*
X253Y-1464D01*
X255Y-1465D01*
X258Y-1466D01*
X318D01*
X320Y-1470D01*
X317Y-1474D01*
X185D01*
X131Y-1420D01*
X132Y-1418D01*
X136Y-1410D01*
X137Y-1400D01*
X136Y-1390D01*
X132Y-1382D01*
X126Y-1374D01*
X118Y-1368D01*
X110Y-1364D01*
X100Y-1363D01*
X90Y-1364D01*
X82Y-1368D01*
X74Y-1374D01*
X68Y-1382D01*
X64Y-1390D01*
X63Y-1400D01*
X64Y-1410D01*
X68Y-1418D01*
X74Y-1426D01*
X82Y-1432D01*
X90Y-1436D01*
X100Y-1437D01*
X110Y-1436D01*
X118Y-1432D01*
X120Y-1431D01*
X177Y-1487D01*
X179Y-1489D01*
X182Y-1490D01*
X319D01*
X320Y-1492D01*
X325Y-1495D01*
X331Y-1496D01*
X337Y-1495D01*
X342Y-1492D01*
X345Y-1487D01*
X346Y-1481D01*
X345Y-1475D01*
X342Y-1471D01*
X343Y-1468D01*
X344Y-1466D01*
X354D01*
X355Y-1466D01*
X359Y-1469D01*
X360Y-1470D01*
X359Y-1473D01*
X360Y-1479D01*
X363Y-1484D01*
X368Y-1487D01*
X374Y-1488D01*
X380Y-1487D01*
X385Y-1484D01*
X387Y-1481D01*
X391Y-1481D01*
X393Y-1486D01*
X390Y-1487D01*
X387Y-1492D01*
X386Y-1498D01*
X387Y-1504D01*
X390Y-1509D01*
X392Y-1510D01*
X392Y-1516D01*
X392Y-1516D01*
X392Y-1516D01*
X377Y-1531D01*
X375Y-1533D01*
X374Y-1536D01*
Y-1862D01*
X369Y-1864D01*
X367Y-1860D01*
X358Y-1854D01*
X348Y-1850D01*
X342Y-1849D01*
Y-1890D01*
Y-1931D01*
X348Y-1930D01*
X358Y-1926D01*
X367Y-1920D01*
X369Y-1916D01*
X374Y-1918D01*
Y-1944D01*
X375Y-1947D01*
X377Y-1949D01*
X377Y-1949D01*
X691Y-2263D01*
X693Y-2265D01*
X696Y-2266D01*
X820D01*
Y-2286D01*
X884D01*
Y-2230D01*
X820D01*
Y-2250D01*
X699D01*
X670Y-2221D01*
X672Y-2217D01*
X673Y-2217D01*
X882D01*
X894Y-2229D01*
Y-2302D01*
X895Y-2305D01*
X897Y-2307D01*
X969Y-2380D01*
X968Y-2382D01*
X964Y-2390D01*
X963Y-2400D01*
X964Y-2410D01*
X968Y-2418D01*
X974Y-2426D01*
X982Y-2432D01*
X990Y-2436D01*
X1000Y-2437D01*
X1010Y-2436D01*
X1018Y-2432D01*
X1026Y-2426D01*
X1032Y-2418D01*
X1036Y-2410D01*
X1037Y-2400D01*
X1036Y-2390D01*
X1032Y-2382D01*
X1026Y-2374D01*
X1018Y-2368D01*
X1010Y-2364D01*
X1000Y-2363D01*
X990Y-2364D01*
X982Y-2368D01*
X980Y-2369D01*
X910Y-2299D01*
Y-2226D01*
X909Y-2223D01*
X907Y-2221D01*
X890Y-2204D01*
X888Y-2202D01*
X885Y-2201D01*
X676D01*
X402Y-1927D01*
Y-1912D01*
X407Y-1910D01*
X411Y-1916D01*
X419Y-1922D01*
X427Y-1926D01*
X437Y-1927D01*
X447Y-1926D01*
X455Y-1922D01*
X463Y-1916D01*
X469Y-1908D01*
X473Y-1900D01*
X474Y-1890D01*
X473Y-1880D01*
X469Y-1872D01*
X463Y-1864D01*
X455Y-1858D01*
X447Y-1854D01*
X437Y-1853D01*
X427Y-1854D01*
X419Y-1858D01*
X411Y-1864D01*
X407Y-1870D01*
X402Y-1868D01*
Y-1690D01*
X427D01*
Y-1696D01*
X422Y-1699D01*
X417Y-1706D01*
X417Y-1710D01*
X459D01*
X459Y-1706D01*
X454Y-1699D01*
X449Y-1696D01*
Y-1690D01*
X677D01*
X678Y-1692D01*
X679Y-1695D01*
X674Y-1701D01*
X674Y-1705D01*
X695D01*
Y-1710D01*
X700D01*
Y-1731D01*
X701Y-1731D01*
X704Y-1736D01*
X571Y-1868D01*
X566Y-1868D01*
X563Y-1864D01*
X555Y-1858D01*
X547Y-1854D01*
X537Y-1853D01*
X527Y-1854D01*
X519Y-1858D01*
X511Y-1864D01*
X505Y-1872D01*
X501Y-1880D01*
X500Y-1890D01*
X501Y-1900D01*
X505Y-1908D01*
X511Y-1916D01*
X519Y-1922D01*
X527Y-1926D01*
X537Y-1927D01*
X547Y-1926D01*
X555Y-1922D01*
X563Y-1916D01*
X569Y-1908D01*
X573Y-1900D01*
X574Y-1890D01*
X573Y-1886D01*
X574Y-1886D01*
X577Y-1884D01*
X598Y-1863D01*
X602Y-1866D01*
X600Y-1874D01*
Y-1906D01*
X602Y-1914D01*
X606Y-1921D01*
X613Y-1925D01*
X621Y-1927D01*
X653D01*
X661Y-1925D01*
X668Y-1921D01*
X672Y-1914D01*
X674Y-1906D01*
Y-1874D01*
X672Y-1866D01*
X668Y-1859D01*
X661Y-1855D01*
X653Y-1853D01*
X621D01*
X613Y-1855D01*
X610Y-1851D01*
X743Y-1718D01*
X748Y-1720D01*
X749Y-1722D01*
X716Y-1755D01*
X714Y-1757D01*
X713Y-1760D01*
Y-1969D01*
X714Y-1972D01*
X716Y-1974D01*
X804Y-2062D01*
X804Y-2062D01*
X805Y-2064D01*
X805Y-2064D01*
X805Y-2064D01*
X925Y-2183D01*
Y-2187D01*
X925Y-2190D01*
X927Y-2193D01*
X992Y-2258D01*
Y-2264D01*
X990Y-2264D01*
X982Y-2268D01*
X974Y-2274D01*
X968Y-2282D01*
X964Y-2290D01*
X963Y-2300D01*
X964Y-2310D01*
X968Y-2318D01*
X974Y-2326D01*
X982Y-2332D01*
X990Y-2336D01*
X1000Y-2337D01*
X1010Y-2336D01*
X1018Y-2332D01*
X1026Y-2326D01*
X1032Y-2318D01*
X1036Y-2310D01*
X1037Y-2300D01*
X1036Y-2290D01*
X1032Y-2282D01*
X1026Y-2274D01*
X1018Y-2268D01*
X1010Y-2264D01*
X1008Y-2264D01*
Y-2255D01*
X1008Y-2255D01*
X1007Y-2252D01*
X1005Y-2250D01*
X997Y-2241D01*
X999Y-2237D01*
X1000Y-2237D01*
X1010Y-2236D01*
X1018Y-2232D01*
X1026Y-2226D01*
X1032Y-2218D01*
X1036Y-2210D01*
X1037Y-2200D01*
X1036Y-2190D01*
X1032Y-2182D01*
X1026Y-2174D01*
X1018Y-2168D01*
X1010Y-2164D01*
X1008Y-2164D01*
Y-2155D01*
X1008Y-2155D01*
X1007Y-2152D01*
X1005Y-2150D01*
X997Y-2141D01*
X999Y-2137D01*
X1000Y-2137D01*
X1010Y-2136D01*
X1018Y-2132D01*
X1026Y-2126D01*
X1032Y-2118D01*
X1036Y-2110D01*
X1037Y-2100D01*
X1036Y-2090D01*
X1032Y-2082D01*
X1026Y-2074D01*
X1018Y-2068D01*
X1010Y-2064D01*
X1008Y-2064D01*
Y-2055D01*
X1007Y-2052D01*
X1005Y-2050D01*
X997Y-2041D01*
X999Y-2037D01*
X1000Y-2037D01*
X1010Y-2036D01*
X1018Y-2032D01*
X1026Y-2026D01*
X1032Y-2018D01*
X1036Y-2010D01*
X1037Y-2000D01*
X1036Y-1990D01*
X1032Y-1982D01*
X1026Y-1974D01*
X1018Y-1968D01*
X1010Y-1964D01*
X1008Y-1964D01*
Y-1955D01*
X1008Y-1955D01*
X1007Y-1952D01*
X1005Y-1950D01*
X1005Y-1950D01*
X997Y-1941D01*
X999Y-1937D01*
X1000Y-1937D01*
X1010Y-1936D01*
X1018Y-1932D01*
X1026Y-1926D01*
X1032Y-1918D01*
X1036Y-1910D01*
X1037Y-1900D01*
X1036Y-1890D01*
X1032Y-1882D01*
X1026Y-1874D01*
X1018Y-1868D01*
X1010Y-1864D01*
X1008Y-1864D01*
Y-1855D01*
X1007Y-1852D01*
X1005Y-1850D01*
X997Y-1841D01*
X999Y-1837D01*
X1000Y-1837D01*
X1010Y-1836D01*
X1018Y-1832D01*
X1026Y-1826D01*
X1032Y-1818D01*
X1036Y-1810D01*
X1037Y-1800D01*
X1036Y-1790D01*
X1032Y-1782D01*
X1026Y-1774D01*
X1018Y-1768D01*
X1010Y-1764D01*
X1000Y-1763D01*
X990Y-1764D01*
X982Y-1768D01*
X980Y-1769D01*
X930Y-1719D01*
Y-1647D01*
X934Y-1645D01*
X969Y-1680D01*
X968Y-1682D01*
X964Y-1690D01*
X963Y-1700D01*
X964Y-1710D01*
X968Y-1718D01*
X974Y-1726D01*
X982Y-1732D01*
X990Y-1736D01*
X1000Y-1737D01*
X1010Y-1736D01*
X1018Y-1732D01*
X1026Y-1726D01*
X1032Y-1718D01*
X1036Y-1710D01*
X1037Y-1700D01*
X1036Y-1690D01*
X1032Y-1682D01*
X1026Y-1674D01*
X1018Y-1668D01*
X1010Y-1664D01*
X1000Y-1663D01*
X990Y-1664D01*
X982Y-1668D01*
X980Y-1669D01*
X941Y-1630D01*
Y-1454D01*
X945Y-1452D01*
X948Y-1454D01*
Y-1543D01*
X949Y-1546D01*
X951Y-1548D01*
X974Y-1572D01*
X974Y-1574D01*
X968Y-1582D01*
X964Y-1590D01*
X963Y-1600D01*
X964Y-1610D01*
X968Y-1618D01*
X974Y-1626D01*
X982Y-1632D01*
X990Y-1636D01*
X1000Y-1637D01*
X1010Y-1636D01*
X1018Y-1632D01*
X1026Y-1626D01*
X1032Y-1618D01*
X1036Y-1610D01*
X1037Y-1600D01*
X1036Y-1590D01*
X1032Y-1582D01*
X1026Y-1574D01*
X1018Y-1568D01*
X1010Y-1564D01*
X1000Y-1563D01*
X990Y-1564D01*
X989Y-1565D01*
X964Y-1540D01*
Y-1520D01*
X966Y-1519D01*
X969Y-1519D01*
X974Y-1526D01*
X982Y-1532D01*
X990Y-1536D01*
X1000Y-1537D01*
X1010Y-1536D01*
X1018Y-1532D01*
X1026Y-1526D01*
X1032Y-1518D01*
X1036Y-1510D01*
X1037Y-1500D01*
X1036Y-1490D01*
X1032Y-1482D01*
X1026Y-1474D01*
X1018Y-1468D01*
X1010Y-1464D01*
X1008Y-1464D01*
Y-1464D01*
X1007Y-1461D01*
X1005Y-1459D01*
X986Y-1439D01*
X989Y-1435D01*
X990Y-1436D01*
X1000Y-1437D01*
X1010Y-1436D01*
X1018Y-1432D01*
X1026Y-1426D01*
X1032Y-1418D01*
X1036Y-1410D01*
X1037Y-1400D01*
X1036Y-1390D01*
X1032Y-1382D01*
X1026Y-1374D01*
X1018Y-1368D01*
X1010Y-1364D01*
X1000Y-1363D01*
X990Y-1364D01*
X982Y-1368D01*
X974Y-1374D01*
X968Y-1382D01*
X967Y-1385D01*
X962Y-1386D01*
X889Y-1313D01*
X891Y-1308D01*
X964D01*
X964Y-1310D01*
X968Y-1318D01*
X974Y-1326D01*
X982Y-1332D01*
X990Y-1336D01*
X1000Y-1337D01*
X1010Y-1336D01*
X1018Y-1332D01*
X1026Y-1326D01*
X1032Y-1318D01*
X1036Y-1310D01*
X1037Y-1300D01*
X1036Y-1290D01*
X1032Y-1282D01*
X1026Y-1274D01*
X1018Y-1268D01*
X1010Y-1264D01*
X1000Y-1263D01*
X990Y-1264D01*
X982Y-1268D01*
X974Y-1274D01*
X968Y-1282D01*
X964Y-1290D01*
X964Y-1293D01*
X899D01*
X897Y-1288D01*
X964Y-1221D01*
X970Y-1221D01*
X974Y-1226D01*
X982Y-1232D01*
X990Y-1236D01*
X1000Y-1237D01*
X1010Y-1236D01*
X1018Y-1232D01*
X1026Y-1226D01*
X1032Y-1218D01*
X1036Y-1210D01*
X1037Y-1200D01*
X1036Y-1190D01*
X1032Y-1182D01*
X1026Y-1174D01*
X1018Y-1168D01*
X1010Y-1164D01*
X1000Y-1163D01*
X998Y-1163D01*
X995Y-1159D01*
X996Y-1158D01*
X997Y-1155D01*
Y-1140D01*
X1000Y-1137D01*
X1010Y-1136D01*
X1018Y-1132D01*
X1026Y-1126D01*
X1032Y-1118D01*
X1036Y-1110D01*
X1037Y-1100D01*
X1036Y-1090D01*
X1032Y-1082D01*
X1026Y-1074D01*
X1018Y-1068D01*
X1010Y-1064D01*
X1000Y-1063D01*
X990Y-1064D01*
X982Y-1068D01*
X974Y-1074D01*
X968Y-1082D01*
X964Y-1090D01*
X963Y-1100D01*
X964Y-1110D01*
X968Y-1118D01*
X974Y-1126D01*
X981Y-1132D01*
Y-1152D01*
X960Y-1174D01*
X955Y-1171D01*
Y-1056D01*
X980Y-1031D01*
X982Y-1032D01*
X990Y-1036D01*
X1000Y-1037D01*
X1010Y-1036D01*
X1018Y-1032D01*
X1026Y-1026D01*
X1032Y-1018D01*
X1036Y-1010D01*
X1037Y-1000D01*
X1036Y-990D01*
X1032Y-982D01*
X1026Y-974D01*
X1018Y-968D01*
X1010Y-964D01*
X1000Y-963D01*
D02*
G37*
G36*
X100D02*
X90Y-964D01*
X82Y-968D01*
X74Y-974D01*
X68Y-982D01*
X64Y-990D01*
X63Y-1000D01*
X64Y-1010D01*
X68Y-1018D01*
X74Y-1026D01*
X82Y-1032D01*
X90Y-1036D01*
X100Y-1037D01*
X110Y-1036D01*
X118Y-1032D01*
X126Y-1026D01*
X132Y-1018D01*
X136Y-1010D01*
X137Y-1000D01*
X136Y-990D01*
X132Y-982D01*
X126Y-974D01*
X118Y-968D01*
X110Y-964D01*
X100Y-963D01*
D02*
G37*
G36*
X597Y-1025D02*
X593Y-1025D01*
X586Y-1030D01*
X581Y-1037D01*
X581Y-1041D01*
X597D01*
Y-1025D01*
D02*
G37*
G36*
X694Y-1041D02*
Y-1062D01*
X684D01*
Y-1041D01*
X680Y-1041D01*
X673Y-1046D01*
X668Y-1053D01*
X667Y-1062D01*
X667Y-1062D01*
X664Y-1066D01*
X660D01*
Y-1089D01*
X720D01*
Y-1066D01*
X714D01*
X711Y-1062D01*
X711Y-1062D01*
X710Y-1053D01*
X705Y-1046D01*
X698Y-1041D01*
X694Y-1041D01*
D02*
G37*
G36*
X834Y-1102D02*
Y-1118D01*
X850D01*
X850Y-1114D01*
X845Y-1107D01*
X838Y-1102D01*
X834Y-1102D01*
D02*
G37*
G36*
X824D02*
X820Y-1102D01*
X813Y-1107D01*
X808Y-1114D01*
X808Y-1118D01*
X824D01*
Y-1102D01*
D02*
G37*
G36*
X100Y-1063D02*
X90Y-1064D01*
X82Y-1068D01*
X74Y-1074D01*
X68Y-1082D01*
X64Y-1090D01*
X63Y-1100D01*
X64Y-1110D01*
X68Y-1118D01*
X74Y-1126D01*
X82Y-1132D01*
X90Y-1136D01*
X100Y-1137D01*
X110Y-1136D01*
X118Y-1132D01*
X126Y-1126D01*
X132Y-1118D01*
X136Y-1110D01*
X137Y-1100D01*
X136Y-1090D01*
X132Y-1082D01*
X126Y-1074D01*
X118Y-1068D01*
X110Y-1064D01*
X100Y-1063D01*
D02*
G37*
G36*
Y-1163D02*
X90Y-1164D01*
X82Y-1168D01*
X74Y-1174D01*
X68Y-1182D01*
X64Y-1190D01*
X63Y-1200D01*
X64Y-1210D01*
X68Y-1218D01*
X74Y-1226D01*
X82Y-1232D01*
X90Y-1236D01*
X100Y-1237D01*
X110Y-1236D01*
X118Y-1232D01*
X126Y-1226D01*
X132Y-1218D01*
X136Y-1210D01*
X137Y-1200D01*
X136Y-1190D01*
X132Y-1182D01*
X126Y-1174D01*
X118Y-1168D01*
X110Y-1164D01*
X100Y-1163D01*
D02*
G37*
G36*
X583Y-1269D02*
X517D01*
Y-1335D01*
X583D01*
Y-1269D01*
D02*
G37*
G36*
X100Y-1463D02*
X90Y-1464D01*
X82Y-1468D01*
X74Y-1474D01*
X68Y-1482D01*
X64Y-1490D01*
X63Y-1500D01*
X64Y-1510D01*
X68Y-1518D01*
X74Y-1526D01*
X82Y-1532D01*
X90Y-1536D01*
X100Y-1537D01*
X110Y-1536D01*
X118Y-1532D01*
X126Y-1526D01*
X131Y-1531D01*
X131Y-1531D01*
X133Y-1533D01*
X136Y-1534D01*
X136Y-1534D01*
X285D01*
X287Y-1538D01*
X292Y-1541D01*
X298Y-1542D01*
X304Y-1541D01*
X309Y-1538D01*
X312Y-1533D01*
X313Y-1527D01*
X312Y-1521D01*
X309Y-1516D01*
X304Y-1513D01*
X298Y-1512D01*
X292Y-1513D01*
X287Y-1516D01*
X286Y-1518D01*
X139D01*
X134Y-1513D01*
X136Y-1510D01*
X137Y-1500D01*
X136Y-1490D01*
X132Y-1482D01*
X126Y-1474D01*
X118Y-1468D01*
X110Y-1464D01*
X100Y-1463D01*
D02*
G37*
G36*
Y-1563D02*
X90Y-1564D01*
X82Y-1568D01*
X74Y-1574D01*
X68Y-1582D01*
X64Y-1590D01*
X63Y-1600D01*
X64Y-1610D01*
X68Y-1618D01*
X74Y-1626D01*
X82Y-1632D01*
X90Y-1636D01*
X100Y-1637D01*
X110Y-1636D01*
X118Y-1632D01*
X126Y-1626D01*
X132Y-1618D01*
X136Y-1610D01*
X136Y-1604D01*
X267D01*
X267Y-1605D01*
X272Y-1608D01*
X278Y-1609D01*
X284Y-1608D01*
X289Y-1605D01*
X292Y-1600D01*
X293Y-1594D01*
X292Y-1588D01*
X289Y-1583D01*
X284Y-1580D01*
X278Y-1579D01*
X272Y-1580D01*
X267Y-1583D01*
X264Y-1588D01*
X264Y-1589D01*
X135D01*
X132Y-1582D01*
X126Y-1574D01*
X118Y-1568D01*
X110Y-1564D01*
X100Y-1563D01*
D02*
G37*
G36*
Y-1663D02*
X90Y-1664D01*
X82Y-1668D01*
X74Y-1674D01*
X68Y-1682D01*
X64Y-1690D01*
X63Y-1700D01*
X64Y-1710D01*
X68Y-1718D01*
X74Y-1726D01*
X82Y-1732D01*
X90Y-1736D01*
X100Y-1737D01*
X110Y-1736D01*
X118Y-1732D01*
X126Y-1726D01*
X132Y-1718D01*
X136Y-1710D01*
X136Y-1708D01*
X255D01*
X257Y-1712D01*
X262Y-1715D01*
X268Y-1716D01*
X274Y-1715D01*
X279Y-1712D01*
X282Y-1707D01*
X283Y-1701D01*
X282Y-1695D01*
X279Y-1690D01*
X274Y-1687D01*
X268Y-1686D01*
X262Y-1687D01*
X257Y-1690D01*
X256Y-1693D01*
X136D01*
X136Y-1690D01*
X132Y-1682D01*
X126Y-1674D01*
X118Y-1668D01*
X110Y-1664D01*
X100Y-1663D01*
D02*
G37*
G36*
X690Y-1715D02*
X674D01*
X674Y-1719D01*
X679Y-1726D01*
X686Y-1731D01*
X690Y-1731D01*
Y-1715D01*
D02*
G37*
G36*
X459Y-1720D02*
X443D01*
Y-1736D01*
X447Y-1736D01*
X454Y-1731D01*
X459Y-1724D01*
X459Y-1720D01*
D02*
G37*
G36*
X433D02*
X417D01*
X417Y-1724D01*
X422Y-1731D01*
X429Y-1736D01*
X433Y-1736D01*
Y-1720D01*
D02*
G37*
G36*
X100Y-1763D02*
X90Y-1764D01*
X82Y-1768D01*
X74Y-1774D01*
X68Y-1782D01*
X64Y-1790D01*
X63Y-1800D01*
X64Y-1810D01*
X68Y-1818D01*
X74Y-1826D01*
X82Y-1832D01*
X90Y-1836D01*
X100Y-1837D01*
X110Y-1836D01*
X118Y-1832D01*
X126Y-1826D01*
X132Y-1818D01*
X136Y-1810D01*
X232D01*
X232Y-1810D01*
X235Y-1815D01*
X240Y-1818D01*
X246Y-1819D01*
X252Y-1818D01*
X257Y-1815D01*
X260Y-1810D01*
X261Y-1804D01*
X260Y-1798D01*
X257Y-1793D01*
X252Y-1790D01*
X246Y-1789D01*
X240Y-1790D01*
X235Y-1793D01*
X235Y-1794D01*
X136D01*
X136Y-1790D01*
X132Y-1782D01*
X126Y-1774D01*
X118Y-1768D01*
X110Y-1764D01*
X100Y-1763D01*
D02*
G37*
G36*
X332Y-1849D02*
X326Y-1850D01*
X316Y-1854D01*
X307Y-1860D01*
X301Y-1869D01*
X297Y-1879D01*
X296Y-1885D01*
X332D01*
Y-1849D01*
D02*
G37*
G36*
X100Y-1863D02*
X90Y-1864D01*
X82Y-1868D01*
X74Y-1874D01*
X68Y-1882D01*
X64Y-1890D01*
X63Y-1900D01*
X64Y-1910D01*
X68Y-1918D01*
X74Y-1926D01*
X82Y-1932D01*
X90Y-1936D01*
X100Y-1937D01*
X110Y-1936D01*
X118Y-1932D01*
X126Y-1926D01*
X132Y-1918D01*
X136Y-1910D01*
X136Y-1908D01*
X222D01*
X224Y-1912D01*
X229Y-1915D01*
X235Y-1916D01*
X241Y-1915D01*
X246Y-1912D01*
X249Y-1907D01*
X250Y-1901D01*
X249Y-1895D01*
X246Y-1890D01*
X241Y-1887D01*
X235Y-1886D01*
X229Y-1887D01*
X224Y-1890D01*
X223Y-1893D01*
X136D01*
X136Y-1890D01*
X132Y-1882D01*
X126Y-1874D01*
X118Y-1868D01*
X110Y-1864D01*
X100Y-1863D01*
D02*
G37*
G36*
X332Y-1895D02*
X296D01*
X297Y-1901D01*
X301Y-1911D01*
X307Y-1920D01*
X316Y-1926D01*
X326Y-1930D01*
X332Y-1931D01*
Y-1895D01*
D02*
G37*
G36*
X100Y-1963D02*
X90Y-1964D01*
X82Y-1968D01*
X74Y-1974D01*
X68Y-1982D01*
X64Y-1990D01*
X63Y-2000D01*
X64Y-2010D01*
X68Y-2018D01*
X74Y-2026D01*
X82Y-2032D01*
X90Y-2036D01*
X100Y-2037D01*
X110Y-2036D01*
X118Y-2032D01*
X126Y-2026D01*
X132Y-2018D01*
X135Y-2011D01*
X197D01*
X197Y-2013D01*
X200Y-2018D01*
X205Y-2021D01*
X211Y-2022D01*
X217Y-2021D01*
X222Y-2018D01*
X225Y-2013D01*
X226Y-2007D01*
X225Y-2001D01*
X222Y-1996D01*
X217Y-1993D01*
X211Y-1992D01*
X205Y-1993D01*
X201Y-1996D01*
X136D01*
X136Y-1990D01*
X132Y-1982D01*
X126Y-1974D01*
X118Y-1968D01*
X110Y-1964D01*
X100Y-1963D01*
D02*
G37*
G36*
Y-2063D02*
X90Y-2064D01*
X82Y-2068D01*
X74Y-2074D01*
X68Y-2082D01*
X64Y-2090D01*
X63Y-2100D01*
X64Y-2110D01*
X68Y-2118D01*
X74Y-2126D01*
X82Y-2132D01*
X90Y-2136D01*
X100Y-2137D01*
X110Y-2136D01*
X118Y-2132D01*
X126Y-2126D01*
X132Y-2118D01*
X136Y-2110D01*
X136Y-2108D01*
X177D01*
X179Y-2111D01*
X184Y-2114D01*
X190Y-2115D01*
X196Y-2114D01*
X201Y-2111D01*
X204Y-2106D01*
X205Y-2100D01*
X204Y-2094D01*
X201Y-2089D01*
X196Y-2086D01*
X190Y-2085D01*
X184Y-2086D01*
X179Y-2089D01*
X177Y-2092D01*
X136D01*
X136Y-2090D01*
X132Y-2082D01*
X126Y-2074D01*
X118Y-2068D01*
X110Y-2064D01*
X100Y-2063D01*
D02*
G37*
G36*
X478Y-2133D02*
Y-2149D01*
X494D01*
X494Y-2145D01*
X489Y-2138D01*
X482Y-2133D01*
X478Y-2133D01*
D02*
G37*
G36*
X468D02*
X464Y-2133D01*
X457Y-2138D01*
X452Y-2145D01*
X452Y-2149D01*
X468D01*
Y-2133D01*
D02*
G37*
G36*
X391Y-2171D02*
X341D01*
Y-2172D01*
X336Y-2175D01*
X335Y-2174D01*
X329Y-2173D01*
X323Y-2174D01*
X318Y-2177D01*
X315Y-2182D01*
X314Y-2188D01*
X315Y-2194D01*
X318Y-2199D01*
X323Y-2202D01*
X329Y-2203D01*
X335Y-2202D01*
X336Y-2201D01*
X341Y-2204D01*
X341Y-2205D01*
Y-2209D01*
X341Y-2210D01*
Y-2241D01*
X341Y-2242D01*
Y-2246D01*
X341Y-2247D01*
Y-2280D01*
X391D01*
Y-2247D01*
X391Y-2246D01*
Y-2242D01*
X391Y-2241D01*
Y-2235D01*
X423D01*
X448Y-2259D01*
Y-2280D01*
X457D01*
Y-2289D01*
X455Y-2292D01*
X454Y-2299D01*
X455Y-2306D01*
X459Y-2311D01*
X464Y-2315D01*
X471Y-2316D01*
X478Y-2315D01*
X483Y-2311D01*
X487Y-2306D01*
X488Y-2299D01*
X487Y-2295D01*
Y-2280D01*
X497D01*
Y-2246D01*
X461D01*
X433Y-2219D01*
X431Y-2217D01*
X427Y-2216D01*
X391D01*
Y-2210D01*
X391Y-2209D01*
Y-2205D01*
X391Y-2204D01*
Y-2171D01*
D02*
G37*
G36*
X494Y-2159D02*
X452D01*
X452Y-2161D01*
X449Y-2166D01*
X443D01*
Y-2183D01*
X472D01*
X502D01*
Y-2166D01*
X497D01*
X494Y-2161D01*
X494Y-2159D01*
D02*
G37*
G36*
X532Y-2182D02*
X507D01*
Y-2205D01*
X532D01*
Y-2182D01*
D02*
G37*
G36*
X585Y-2189D02*
Y-2205D01*
X601D01*
X601Y-2201D01*
X596Y-2194D01*
X589Y-2189D01*
X585Y-2189D01*
D02*
G37*
G36*
X502Y-2193D02*
X477D01*
Y-2210D01*
X502D01*
Y-2193D01*
D02*
G37*
G36*
X467D02*
X443D01*
Y-2210D01*
X467D01*
Y-2193D01*
D02*
G37*
G36*
X100Y-2163D02*
X90Y-2164D01*
X82Y-2168D01*
X74Y-2174D01*
X68Y-2182D01*
X64Y-2190D01*
X63Y-2200D01*
X64Y-2210D01*
X68Y-2218D01*
X74Y-2226D01*
X82Y-2232D01*
X90Y-2236D01*
X100Y-2237D01*
X110Y-2236D01*
X118Y-2232D01*
X126Y-2226D01*
X132Y-2218D01*
X134Y-2212D01*
X168D01*
X168Y-2214D01*
X171Y-2219D01*
X176Y-2222D01*
X182Y-2223D01*
X188Y-2222D01*
X193Y-2219D01*
X196Y-2214D01*
X197Y-2208D01*
X196Y-2202D01*
X193Y-2197D01*
X188Y-2194D01*
X182Y-2193D01*
X176Y-2194D01*
X172Y-2197D01*
X136D01*
X136Y-2190D01*
X132Y-2182D01*
X126Y-2174D01*
X118Y-2168D01*
X110Y-2164D01*
X100Y-2163D01*
D02*
G37*
G36*
X601Y-2215D02*
X585D01*
Y-2231D01*
X589Y-2231D01*
X596Y-2226D01*
X601Y-2219D01*
X601Y-2215D01*
D02*
G37*
G36*
X567Y-2182D02*
X542D01*
Y-2210D01*
X537D01*
Y-2215D01*
X507D01*
Y-2238D01*
X508D01*
X512Y-2240D01*
X512Y-2243D01*
Y-2286D01*
X521D01*
Y-2295D01*
X520Y-2296D01*
X519Y-2303D01*
X520Y-2310D01*
X524Y-2315D01*
X529Y-2319D01*
X536Y-2320D01*
X543Y-2319D01*
X548Y-2315D01*
X552Y-2310D01*
X553Y-2303D01*
X552Y-2296D01*
X552Y-2296D01*
Y-2286D01*
X562D01*
Y-2243D01*
X562Y-2240D01*
X566Y-2238D01*
X567D01*
Y-2233D01*
X571Y-2230D01*
X572Y-2231D01*
X575Y-2231D01*
Y-2210D01*
Y-2189D01*
X572Y-2189D01*
X571Y-2190D01*
X567Y-2187D01*
Y-2182D01*
D02*
G37*
G36*
X100Y-2263D02*
X90Y-2264D01*
X82Y-2268D01*
X74Y-2274D01*
X68Y-2282D01*
X64Y-2290D01*
X63Y-2300D01*
X64Y-2310D01*
X68Y-2318D01*
X74Y-2326D01*
X82Y-2332D01*
X90Y-2336D01*
X100Y-2337D01*
X110Y-2336D01*
X118Y-2332D01*
X126Y-2326D01*
X132Y-2318D01*
X136Y-2310D01*
X136Y-2307D01*
X170D01*
X171Y-2310D01*
X176Y-2313D01*
X182Y-2314D01*
X188Y-2313D01*
X193Y-2310D01*
X196Y-2305D01*
X197Y-2299D01*
X196Y-2293D01*
X193Y-2288D01*
X188Y-2285D01*
X182Y-2284D01*
X176Y-2285D01*
X171Y-2288D01*
X169Y-2292D01*
X136D01*
X136Y-2290D01*
X132Y-2282D01*
X126Y-2274D01*
X118Y-2268D01*
X110Y-2264D01*
X100Y-2263D01*
D02*
G37*
G36*
X488Y-2346D02*
X460D01*
Y-2378D01*
X488D01*
Y-2346D01*
D02*
G37*
G36*
X450D02*
X422D01*
Y-2360D01*
X420Y-2362D01*
X411Y-2363D01*
X404Y-2368D01*
X399Y-2375D01*
X399Y-2379D01*
X420D01*
Y-2389D01*
X399D01*
X399Y-2393D01*
X404Y-2400D01*
X411Y-2405D01*
X420Y-2406D01*
X422Y-2408D01*
Y-2420D01*
X428D01*
X429Y-2424D01*
X426Y-2428D01*
X424Y-2429D01*
X421Y-2429D01*
Y-2450D01*
Y-2471D01*
X424Y-2471D01*
X429Y-2473D01*
Y-2484D01*
X451D01*
Y-2454D01*
X461D01*
Y-2484D01*
X484D01*
Y-2483D01*
X487Y-2479D01*
X489Y-2479D01*
X499D01*
Y-2502D01*
X491D01*
Y-2566D01*
X547D01*
Y-2561D01*
X563D01*
X565Y-2563D01*
X572Y-2564D01*
X579Y-2563D01*
X584Y-2559D01*
X588Y-2554D01*
X589Y-2547D01*
X588Y-2540D01*
X584Y-2535D01*
X579Y-2531D01*
X572Y-2530D01*
X566Y-2531D01*
X547D01*
Y-2502D01*
X529D01*
Y-2479D01*
X532D01*
Y-2435D01*
X535Y-2434D01*
X535Y-2434D01*
X537Y-2432D01*
X537Y-2432D01*
X537Y-2432D01*
X539Y-2435D01*
X556Y-2451D01*
X556Y-2451D01*
X558Y-2453D01*
X561Y-2454D01*
X561Y-2454D01*
X601D01*
X604Y-2458D01*
X609Y-2462D01*
X616Y-2463D01*
X623Y-2462D01*
X628Y-2458D01*
X632Y-2453D01*
X633Y-2446D01*
X632Y-2439D01*
X628Y-2434D01*
X623Y-2430D01*
X616Y-2429D01*
X609Y-2430D01*
X604Y-2434D01*
X601Y-2438D01*
X564D01*
X552Y-2426D01*
Y-2403D01*
X552Y-2402D01*
Y-2351D01*
X496D01*
Y-2415D01*
X536D01*
Y-2423D01*
X536Y-2427D01*
X535Y-2428D01*
X535Y-2428D01*
X532Y-2429D01*
Y-2429D01*
X532Y-2429D01*
X532Y-2429D01*
X530Y-2429D01*
X489D01*
X487Y-2429D01*
X486Y-2428D01*
X484Y-2424D01*
X486Y-2420D01*
X488D01*
Y-2388D01*
X455D01*
Y-2383D01*
X450D01*
Y-2346D01*
D02*
G37*
G36*
X100Y-2363D02*
X90Y-2364D01*
X82Y-2368D01*
X74Y-2374D01*
X68Y-2382D01*
X64Y-2390D01*
X63Y-2400D01*
X64Y-2410D01*
X68Y-2418D01*
X74Y-2426D01*
X82Y-2432D01*
X90Y-2436D01*
X100Y-2437D01*
X110Y-2436D01*
X118Y-2432D01*
X126Y-2426D01*
X132Y-2418D01*
X136Y-2410D01*
X137Y-2400D01*
X136Y-2390D01*
X132Y-2382D01*
X126Y-2374D01*
X118Y-2368D01*
X110Y-2364D01*
X100Y-2363D01*
D02*
G37*
G36*
X411Y-2429D02*
X407Y-2429D01*
X400Y-2434D01*
X395Y-2441D01*
X395Y-2445D01*
X411D01*
Y-2429D01*
D02*
G37*
G36*
X641Y-2245D02*
X635Y-2246D01*
X630Y-2249D01*
X627Y-2254D01*
X626Y-2260D01*
X627Y-2266D01*
X630Y-2271D01*
X633Y-2273D01*
Y-2347D01*
X634Y-2350D01*
X636Y-2353D01*
X662Y-2380D01*
Y-2380D01*
X662Y-2381D01*
Y-2428D01*
X715D01*
X731Y-2444D01*
X730Y-2449D01*
X731Y-2455D01*
X734Y-2460D01*
X739Y-2463D01*
X745Y-2464D01*
X751Y-2463D01*
X756Y-2460D01*
X759Y-2455D01*
X760Y-2449D01*
X759Y-2443D01*
X756Y-2438D01*
X751Y-2435D01*
X745Y-2434D01*
X743Y-2434D01*
X726Y-2417D01*
Y-2373D01*
X677D01*
X675Y-2371D01*
X668Y-2364D01*
X670Y-2359D01*
X726D01*
Y-2325D01*
X748Y-2303D01*
X748Y-2303D01*
X750Y-2300D01*
X750Y-2300D01*
X754Y-2295D01*
X755Y-2288D01*
X754Y-2281D01*
X750Y-2276D01*
X745Y-2272D01*
X738Y-2271D01*
X731Y-2272D01*
X726Y-2276D01*
X722Y-2281D01*
X721Y-2287D01*
X704Y-2304D01*
X662D01*
Y-2352D01*
X658Y-2353D01*
X649Y-2344D01*
Y-2273D01*
X652Y-2271D01*
X655Y-2266D01*
X656Y-2260D01*
X655Y-2254D01*
X652Y-2249D01*
X647Y-2246D01*
X641Y-2245D01*
D02*
G37*
G36*
X411Y-2455D02*
X395D01*
X395Y-2459D01*
X400Y-2466D01*
X407Y-2471D01*
X411Y-2471D01*
Y-2455D01*
D02*
G37*
G36*
X884Y-2299D02*
X820D01*
Y-2355D01*
X840D01*
Y-2406D01*
X817D01*
Y-2475D01*
X889D01*
Y-2406D01*
X856D01*
Y-2355D01*
X884D01*
Y-2299D01*
D02*
G37*
G36*
X1005Y-2459D02*
Y-2495D01*
X1041D01*
X1040Y-2489D01*
X1036Y-2479D01*
X1030Y-2470D01*
X1021Y-2464D01*
X1011Y-2460D01*
X1005Y-2459D01*
D02*
G37*
G36*
X105D02*
Y-2495D01*
X141D01*
X140Y-2489D01*
X136Y-2479D01*
X130Y-2470D01*
X121Y-2464D01*
X111Y-2460D01*
X105Y-2459D01*
D02*
G37*
G36*
X95Y-2459D02*
X89Y-2460D01*
X79Y-2464D01*
X70Y-2470D01*
X64Y-2479D01*
X60Y-2489D01*
X59Y-2495D01*
X95D01*
Y-2459D01*
D02*
G37*
G36*
X995D02*
X989Y-2460D01*
X979Y-2464D01*
X970Y-2470D01*
X964Y-2479D01*
X960Y-2489D01*
X959Y-2495D01*
X995D01*
Y-2459D01*
D02*
G37*
G36*
X1041Y-2505D02*
X1005D01*
Y-2541D01*
X1011Y-2540D01*
X1021Y-2536D01*
X1030Y-2530D01*
X1036Y-2521D01*
X1040Y-2511D01*
X1041Y-2505D01*
D02*
G37*
G36*
X141D02*
X105D01*
Y-2541D01*
X111Y-2540D01*
X121Y-2536D01*
X130Y-2530D01*
X136Y-2521D01*
X140Y-2511D01*
X141Y-2505D01*
D02*
G37*
G36*
X995D02*
X959D01*
X960Y-2511D01*
X964Y-2521D01*
X970Y-2530D01*
X979Y-2536D01*
X989Y-2540D01*
X995Y-2541D01*
Y-2505D01*
D02*
G37*
G36*
X95D02*
X59D01*
X60Y-2511D01*
X64Y-2521D01*
X70Y-2530D01*
X79Y-2536D01*
X89Y-2540D01*
X95Y-2541D01*
Y-2505D01*
D02*
G37*
G36*
X666Y-2533D02*
Y-2549D01*
X682D01*
X682Y-2545D01*
X677Y-2538D01*
X670Y-2533D01*
X666Y-2533D01*
D02*
G37*
G36*
X656D02*
X652Y-2533D01*
X645Y-2538D01*
X640Y-2545D01*
X640Y-2549D01*
X656D01*
Y-2533D01*
D02*
G37*
G36*
X407Y-2482D02*
X400Y-2483D01*
X395Y-2487D01*
X391Y-2492D01*
X390Y-2499D01*
X391Y-2506D01*
X395Y-2511D01*
X400Y-2515D01*
X407Y-2516D01*
X414Y-2515D01*
X418Y-2512D01*
X422Y-2515D01*
Y-2566D01*
X478D01*
Y-2502D01*
X433D01*
X428Y-2497D01*
X425Y-2495D01*
X423Y-2495D01*
X423Y-2492D01*
X419Y-2487D01*
X414Y-2483D01*
X407Y-2482D01*
D02*
G37*
G36*
X682Y-2559D02*
X666D01*
Y-2575D01*
X670Y-2575D01*
X677Y-2570D01*
X682Y-2563D01*
X682Y-2559D01*
D02*
G37*
G36*
X656D02*
X640D01*
X640Y-2563D01*
X645Y-2570D01*
X652Y-2575D01*
X656Y-2575D01*
Y-2559D01*
D02*
G37*
G36*
X894Y-2542D02*
X858D01*
Y-2577D01*
X894D01*
Y-2542D01*
D02*
G37*
G36*
X848D02*
X812D01*
Y-2577D01*
X848D01*
Y-2542D01*
D02*
G37*
G36*
X894Y-2587D02*
X853D01*
X812D01*
Y-2621D01*
X824D01*
X827Y-2626D01*
X827Y-2627D01*
X869D01*
X869Y-2626D01*
X873Y-2621D01*
X894D01*
Y-2587D01*
D02*
G37*
G36*
X1016Y-2563D02*
X984D01*
X976Y-2565D01*
X969Y-2569D01*
X965Y-2576D01*
X963Y-2584D01*
Y-2616D01*
X965Y-2624D01*
X969Y-2631D01*
X976Y-2635D01*
X984Y-2637D01*
X1016D01*
X1024Y-2635D01*
X1031Y-2631D01*
X1035Y-2624D01*
X1037Y-2616D01*
Y-2584D01*
X1035Y-2576D01*
X1031Y-2569D01*
X1024Y-2565D01*
X1016Y-2563D01*
D02*
G37*
G36*
X116D02*
X84D01*
X76Y-2565D01*
X69Y-2569D01*
X65Y-2576D01*
X63Y-2584D01*
Y-2616D01*
X65Y-2624D01*
X69Y-2631D01*
X76Y-2635D01*
X84Y-2637D01*
X116D01*
X124Y-2635D01*
X131Y-2631D01*
X135Y-2624D01*
X137Y-2616D01*
Y-2584D01*
X135Y-2576D01*
X131Y-2569D01*
X124Y-2565D01*
X116Y-2563D01*
D02*
G37*
G36*
X869Y-2637D02*
X853D01*
Y-2654D01*
X857Y-2653D01*
X864Y-2648D01*
X869Y-2641D01*
X869Y-2637D01*
D02*
G37*
G36*
X843D02*
X827D01*
X827Y-2641D01*
X832Y-2648D01*
X840Y-2653D01*
X843Y-2654D01*
Y-2637D01*
D02*
G37*
%LPD*%
G36*
X666Y-1382D02*
X671Y-1385D01*
X677Y-1386D01*
X682Y-1385D01*
X682Y-1386D01*
X685Y-1388D01*
X689Y-1388D01*
X699D01*
X701Y-1392D01*
Y-1398D01*
X703Y-1403D01*
X703Y-1403D01*
X701Y-1408D01*
Y-1414D01*
X701Y-1414D01*
X703Y-1419D01*
X701Y-1423D01*
X701Y-1424D01*
Y-1430D01*
X703Y-1434D01*
X703Y-1435D01*
X701Y-1439D01*
Y-1445D01*
X703Y-1450D01*
X708Y-1452D01*
X723D01*
X725Y-1457D01*
X721Y-1459D01*
X716Y-1466D01*
X716Y-1470D01*
X758D01*
X758Y-1466D01*
X753Y-1459D01*
X746Y-1455D01*
X747Y-1451D01*
X747Y-1450D01*
X796D01*
X821Y-1475D01*
Y-1604D01*
X816Y-1607D01*
X700Y-1490D01*
Y-1460D01*
X698Y-1455D01*
X693Y-1453D01*
X687D01*
X683Y-1455D01*
X682Y-1455D01*
X678Y-1453D01*
X672D01*
X671Y-1453D01*
X667Y-1455D01*
X662Y-1453D01*
X662Y-1453D01*
X656D01*
X651Y-1455D01*
X651Y-1455D01*
X646Y-1453D01*
X640D01*
X636Y-1455D01*
X635Y-1455D01*
X630Y-1453D01*
X624D01*
X624Y-1453D01*
X619Y-1455D01*
X615Y-1453D01*
X615Y-1453D01*
X611D01*
X610Y-1452D01*
X608Y-1448D01*
X609Y-1445D01*
X609Y-1445D01*
Y-1437D01*
X612Y-1435D01*
X616Y-1430D01*
X617Y-1423D01*
X616Y-1416D01*
X615Y-1415D01*
X618Y-1411D01*
X659D01*
Y-1380D01*
X664Y-1378D01*
X666Y-1382D01*
D02*
G37*
G36*
X879Y-1492D02*
Y-1752D01*
X875Y-1756D01*
X874Y-1757D01*
X869Y-1756D01*
X859Y-1757D01*
X850Y-1761D01*
X842Y-1767D01*
X841Y-1768D01*
X837Y-1767D01*
Y-1472D01*
X836Y-1469D01*
X834Y-1467D01*
X834Y-1467D01*
X807Y-1439D01*
X809Y-1434D01*
X820D01*
X879Y-1492D01*
D02*
G37*
G36*
X806Y-1618D02*
Y-1773D01*
X803Y-1775D01*
X801Y-1775D01*
X796Y-1767D01*
X788Y-1761D01*
X779Y-1757D01*
X769Y-1756D01*
X759Y-1757D01*
X750Y-1761D01*
X742Y-1767D01*
X736Y-1775D01*
X734Y-1781D01*
X729Y-1780D01*
Y-1763D01*
X763Y-1728D01*
X765Y-1726D01*
X766Y-1723D01*
Y-1585D01*
X770Y-1582D01*
X770Y-1582D01*
X806Y-1618D01*
D02*
G37*
G36*
X736Y-1813D02*
X742Y-1821D01*
X750Y-1827D01*
X759Y-1831D01*
X769Y-1832D01*
X779Y-1831D01*
X788Y-1827D01*
X796Y-1821D01*
X801Y-1813D01*
X803Y-1813D01*
X806Y-1815D01*
Y-1873D01*
X803Y-1875D01*
X801Y-1875D01*
X796Y-1867D01*
X788Y-1861D01*
X779Y-1857D01*
X769Y-1856D01*
X759Y-1857D01*
X750Y-1861D01*
X742Y-1867D01*
X736Y-1875D01*
X734Y-1881D01*
X729Y-1880D01*
Y-1808D01*
X734Y-1807D01*
X736Y-1813D01*
D02*
G37*
G36*
X992Y-1958D02*
Y-1964D01*
X990Y-1964D01*
X982Y-1968D01*
X974Y-1974D01*
X968Y-1982D01*
X964Y-1990D01*
X963Y-2000D01*
X963Y-2001D01*
X959Y-2003D01*
X934Y-1978D01*
Y-1907D01*
X939Y-1905D01*
X992Y-1958D01*
D02*
G37*
G36*
X859Y-1851D02*
X857Y-1856D01*
X853D01*
X844Y-1858D01*
X837Y-1862D01*
X833Y-1869D01*
X831Y-1878D01*
Y-1910D01*
X833Y-1919D01*
X837Y-1926D01*
X844Y-1930D01*
X853Y-1932D01*
X885D01*
X894Y-1930D01*
X901Y-1926D01*
X905Y-1919D01*
X907Y-1910D01*
Y-1884D01*
X912Y-1882D01*
X919Y-1889D01*
Y-1982D01*
X919Y-1985D01*
X921Y-1987D01*
X992Y-2058D01*
Y-2064D01*
X990Y-2064D01*
X982Y-2068D01*
X974Y-2074D01*
X968Y-2082D01*
X964Y-2090D01*
X963Y-2100D01*
X963Y-2101D01*
X959Y-2103D01*
X822Y-1966D01*
Y-1821D01*
X827Y-1819D01*
X859Y-1851D01*
D02*
G37*
G36*
X736Y-1913D02*
X742Y-1921D01*
X750Y-1927D01*
X759Y-1931D01*
X769Y-1932D01*
X779Y-1931D01*
X788Y-1927D01*
X796Y-1921D01*
X801Y-1913D01*
X803Y-1913D01*
X806Y-1915D01*
Y-1969D01*
X807Y-1972D01*
X809Y-1975D01*
X992Y-2158D01*
Y-2164D01*
X990Y-2164D01*
X982Y-2168D01*
X974Y-2174D01*
X968Y-2182D01*
X964Y-2190D01*
X963Y-2200D01*
X963Y-2201D01*
X959Y-2203D01*
X940Y-2184D01*
Y-2180D01*
X939Y-2177D01*
X938Y-2175D01*
X938Y-2175D01*
X816Y-2053D01*
X816Y-2053D01*
X814Y-2051D01*
X814Y-2051D01*
X729Y-1966D01*
Y-1908D01*
X734Y-1907D01*
X736Y-1913D01*
D02*
G37*
%LPC*%
G36*
X758Y-1480D02*
X742D01*
Y-1496D01*
X746Y-1496D01*
X753Y-1491D01*
X758Y-1484D01*
X758Y-1480D01*
D02*
G37*
G36*
X732D02*
X716D01*
X716Y-1484D01*
X721Y-1491D01*
X728Y-1496D01*
X732Y-1496D01*
Y-1480D01*
D02*
G37*
%LPD*%
D11*
X689Y-1379D02*
X723D01*
X680Y-1371D02*
X689Y-1379D01*
X677Y-1371D02*
X680D01*
X596Y-1475D02*
Y-1447D01*
X596Y-1447D01*
X766Y-1230D02*
X773Y-1223D01*
X747Y-1238D02*
X748Y-1237D01*
X723Y-1238D02*
X747D01*
X596Y-1163D02*
X600D01*
X612Y-1175D01*
X596Y-1205D02*
Y-1163D01*
X612Y-1205D02*
Y-1175D01*
X690Y-1205D02*
X716D01*
X675D02*
X690D01*
X690Y-1181D02*
X690Y-1181D01*
Y-1205D02*
Y-1181D01*
X773Y-1223D02*
Y-1221D01*
X675Y-1205D02*
Y-1205D01*
X690Y-1205D02*
Y-1205D01*
X366Y-2226D02*
X427D01*
X464Y-2263D01*
X472D01*
X690Y-1147D02*
X690Y-1148D01*
X423Y-1221D02*
X424D01*
X440Y-1238D01*
X453D01*
X404Y-1379D02*
X453D01*
X402Y-1378D02*
X404Y-1379D01*
D14*
X258Y-1458D02*
X354D01*
X370Y-1442D02*
X453D01*
X354Y-1458D02*
X370Y-1442D01*
X334Y-1441D02*
X348Y-1427D01*
X382Y-1536D02*
X397Y-1521D01*
X382Y-1944D02*
Y-1536D01*
Y-1944D02*
X696Y-2258D01*
X394Y-1930D02*
Y-1543D01*
Y-1930D02*
X673Y-2209D01*
X394Y-1543D02*
X404Y-1533D01*
X536Y-1549D02*
X564Y-1521D01*
Y-1475D01*
X493Y-1549D02*
X536D01*
X404Y-1533D02*
X521D01*
X442Y-1600D02*
X493Y-1549D01*
X533Y-1521D02*
Y-1475D01*
X521Y-1533D02*
X533Y-1521D01*
X440Y-1600D02*
X442D01*
X485Y-1643D01*
X524D01*
X746Y-1704D02*
Y-1591D01*
X758Y-1723D02*
Y-1583D01*
X675Y-1494D02*
X758Y-1583D01*
X701Y-1546D02*
X746Y-1591D01*
X571Y-1879D02*
X746Y-1704D01*
X721Y-1760D02*
X758Y-1723D01*
X721Y-1969D02*
X809Y-2057D01*
X721Y-1969D02*
Y-1760D01*
X690Y-1475D02*
X692Y-1477D01*
Y-1493D02*
X814Y-1615D01*
Y-1969D02*
Y-1615D01*
X692Y-1493D02*
Y-1477D01*
X774Y-908D02*
X775Y-907D01*
X813D01*
X643Y-1514D02*
X675Y-1546D01*
X701D01*
X643Y-1514D02*
Y-1475D01*
X675Y-1524D02*
X677D01*
X659Y-1508D02*
X675Y-1524D01*
X675Y-1494D02*
Y-1475D01*
X659Y-1508D02*
Y-1475D01*
X564Y-1205D02*
Y-1044D01*
X549Y-1029D02*
X564Y-1044D01*
X549Y-1205D02*
Y-1083D01*
X542Y-1076D02*
X549Y-1083D01*
X533Y-1205D02*
Y-1135D01*
X450Y-1076D02*
X542D01*
X527Y-1129D02*
X533Y-1135D01*
X212Y-1165D02*
X347D01*
X202Y-1155D02*
Y-986D01*
Y-1155D02*
X212Y-1165D01*
X212Y-976D02*
X266D01*
X202Y-986D02*
X212Y-976D01*
X867Y-213D02*
X932D01*
X866Y-212D02*
X867Y-213D01*
X328Y-815D02*
X333Y-820D01*
X367D01*
X635Y-1233D02*
X659D01*
X626Y-1242D02*
X635Y-1233D01*
X583Y-1242D02*
X626D01*
X580Y-1239D02*
X583Y-1242D01*
X453Y-1029D02*
X549D01*
X453Y-1129D02*
X527D01*
X501Y-1205D02*
Y-1176D01*
X372Y-1170D02*
X495D01*
X501Y-1176D01*
X306Y-1104D02*
X372Y-1170D01*
X481Y-1188D02*
X486Y-1192D01*
X370Y-1188D02*
X481D01*
X347Y-1165D02*
X370Y-1188D01*
X486Y-1205D02*
Y-1192D01*
X607Y-1514D02*
X610Y-1511D01*
Y-1502D02*
X612Y-1500D01*
X610Y-1511D02*
Y-1502D01*
X612Y-1500D02*
Y-1475D01*
X627Y-1519D02*
Y-1475D01*
Y-1519D02*
X637Y-1529D01*
X580Y-1239D02*
Y-1205D01*
X641Y-2347D02*
Y-2260D01*
X690Y-2400D02*
X694D01*
X670Y-2380D02*
X690Y-2400D01*
X670Y-2380D02*
Y-2376D01*
X641Y-2347D02*
X670Y-2376D01*
X696Y-2258D02*
X852D01*
X885Y-2209D02*
X902Y-2226D01*
X673Y-2209D02*
X885D01*
X829Y-1811D02*
Y-1472D01*
Y-1811D02*
X866Y-1848D01*
X799Y-1442D02*
X829Y-1472D01*
X550Y-1879D02*
X571D01*
X539Y-1890D02*
X550Y-1879D01*
X366Y-2188D02*
X366Y-2188D01*
X329Y-2188D02*
X366D01*
X881Y-1316D02*
X964Y-1399D01*
X723Y-1316D02*
X881D01*
X999Y-1399D02*
X1000Y-1400D01*
X964Y-1399D02*
X999D01*
X637Y-1533D02*
Y-1529D01*
X814Y-1969D02*
X1000Y-2155D01*
X810Y-2058D02*
X932Y-2180D01*
X809Y-2057D02*
X810Y-2058D01*
X849Y-1364D02*
X933Y-1448D01*
X723Y-1364D02*
X849D01*
X659Y-1233D02*
Y-1205D01*
X561Y-2446D02*
X616D01*
X544Y-2429D02*
X561Y-2446D01*
X524Y-2383D02*
X544Y-2403D01*
Y-2429D02*
Y-2403D01*
X423Y-2503D02*
X450Y-2530D01*
X411Y-2503D02*
X423D01*
X407Y-2499D02*
X411Y-2503D01*
X450Y-2534D02*
Y-2530D01*
X745Y-2449D02*
Y-2448D01*
X694Y-2400D02*
X698D01*
X745Y-2448D01*
X784Y-1237D02*
Y-1200D01*
X947Y-1053D02*
X1000Y-1000D01*
X947Y-1176D02*
Y-1053D01*
X870Y-1253D02*
X947Y-1176D01*
X875Y-1269D02*
X989Y-1155D01*
X723Y-1269D02*
X875D01*
X989Y-1155D02*
Y-1111D01*
X723Y-1285D02*
X889D01*
X964Y-1210D01*
X990D01*
X1000Y-1200D01*
X723Y-1253D02*
X870D01*
X784Y-1238D02*
X784Y-1237D01*
X723Y-1442D02*
X799D01*
X824Y-1427D02*
X886Y-1489D01*
X837Y-1411D02*
X906Y-1480D01*
X723Y-1427D02*
X824D01*
X723Y-1411D02*
X837D01*
X854Y-1348D02*
X956Y-1450D01*
X723Y-1348D02*
X854D01*
X851Y-1395D02*
X922Y-1466D01*
X723Y-1395D02*
X851D01*
X517Y-1475D02*
X519Y-1474D01*
Y-1436D01*
X521Y-1434D01*
X792Y-732D02*
Y-626D01*
X765Y-760D02*
X792Y-732D01*
X765Y-598D02*
X792Y-626D01*
X765Y-831D02*
Y-760D01*
Y-831D02*
X767Y-834D01*
X774Y-908D02*
Y-841D01*
X767Y-834D02*
X774Y-841D01*
X348Y-1427D02*
X453D01*
X100Y-1300D02*
X258Y-1458D01*
X305Y-1437D02*
X331Y-1411D01*
X453D01*
X182Y-1482D02*
X330D01*
X331Y-1481D01*
X100Y-1400D02*
X182Y-1482D01*
X413Y-1509D02*
X498D01*
X501Y-1506D02*
Y-1475D01*
X498Y-1509D02*
X501Y-1506D01*
X402Y-1498D02*
X413Y-1509D01*
X401Y-1498D02*
X402D01*
X397Y-1521D02*
X514D01*
X517Y-1518D01*
Y-1475D01*
X268Y-1701D02*
X268Y-1701D01*
X101Y-1701D02*
X268D01*
X102Y-1802D02*
X244D01*
X246Y-1804D01*
X486Y-1475D02*
Y-1474D01*
X374Y-1473D02*
X484D01*
X486Y-1474D01*
X902Y-2302D02*
X1000Y-2400D01*
X902Y-2302D02*
Y-2226D01*
X932Y-2187D02*
X1000Y-2255D01*
X932Y-2187D02*
Y-2180D01*
X416Y-2450D02*
X452D01*
X456Y-2454D01*
X454Y-2384D02*
X455Y-2383D01*
X420Y-2384D02*
X454D01*
X456Y-2454D02*
Y-2384D01*
X455Y-2383D02*
X456Y-2384D01*
X848Y-2331D02*
X852Y-2327D01*
X848Y-2435D02*
Y-2331D01*
Y-2435D02*
X853Y-2440D01*
X848Y-2587D02*
X853Y-2582D01*
X848Y-2632D02*
Y-2587D01*
X393Y-1158D02*
X509D01*
X517Y-1166D01*
Y-1205D02*
Y-1166D01*
X311Y-1076D02*
X393Y-1158D01*
X178Y-1247D02*
X184Y-1253D01*
X453D01*
X149Y-1247D02*
X178D01*
X297Y-1526D02*
X298Y-1527D01*
X136Y-1526D02*
X297D01*
X266Y-976D02*
Y-891D01*
X260Y-885D02*
Y-815D01*
Y-893D02*
Y-885D01*
X266Y-891D01*
X259Y-894D02*
X260Y-893D01*
X217Y-1093D02*
Y-1033D01*
Y-1093D02*
X228Y-1104D01*
X306D01*
X279Y-1389D02*
X308Y-1360D01*
X415D01*
X418Y-1364D01*
X311Y-1395D02*
X453D01*
X294Y-1412D02*
X311Y-1395D01*
X418Y-1364D02*
X453D01*
X280Y-1348D02*
X453D01*
X259Y-1369D02*
X280Y-1348D01*
X292Y-1412D02*
X294D01*
X163Y-1269D02*
X163Y-1269D01*
X453D01*
X206Y-1308D02*
X209D01*
X216Y-1301D02*
X453D01*
X209Y-1308D02*
X216Y-1301D01*
X110Y-1500D02*
X136Y-1526D01*
X100Y-1500D02*
X110D01*
X100Y-1600D02*
X103Y-1597D01*
X275D01*
X278Y-1594D01*
X100Y-1700D02*
X101Y-1701D01*
X100Y-1800D02*
X102Y-1802D01*
X242Y-1347D02*
X257Y-1332D01*
X453D01*
X231Y-1325D02*
X240Y-1316D01*
X453D01*
X227Y-1325D02*
X231D01*
X188Y-1289D02*
X192Y-1285D01*
X453D01*
X184Y-1289D02*
X188D01*
X235Y-1901D02*
X235Y-1901D01*
X100Y-1900D02*
X101Y-1901D01*
X235D01*
X104Y-2003D02*
X207D01*
X100Y-2000D02*
X104Y-2003D01*
X207D02*
X211Y-2007D01*
X100Y-2100D02*
X190D01*
X104Y-2204D02*
X178D01*
X100Y-2200D02*
X104Y-2204D01*
X178D02*
X182Y-2208D01*
X101Y-2299D02*
X182D01*
X100Y-2300D02*
X101Y-2299D01*
X182D02*
X182Y-2299D01*
X217Y-1033D02*
X224Y-1026D01*
X886Y-1755D02*
Y-1489D01*
Y-1755D02*
X937Y-1805D01*
X906Y-1760D02*
X947Y-1801D01*
X906Y-1760D02*
Y-1480D01*
X922Y-1722D02*
X1000Y-1800D01*
X922Y-1722D02*
Y-1466D01*
X933Y-1633D02*
Y-1448D01*
X956Y-1543D02*
Y-1450D01*
Y-1543D02*
X1000Y-1587D01*
X1000Y-1500D02*
X1000Y-1500D01*
X868Y-1332D02*
X1000Y-1464D01*
X723Y-1332D02*
X868D01*
X1000Y-1500D02*
Y-1464D01*
X1000Y-2300D02*
Y-2255D01*
Y-2200D02*
Y-2155D01*
X889Y-1848D02*
X927Y-1885D01*
X866Y-1848D02*
X889D01*
X927Y-1982D02*
Y-1885D01*
Y-1982D02*
X1000Y-2055D01*
Y-2100D02*
Y-2055D01*
X937Y-1892D02*
Y-1805D01*
X947Y-1802D02*
Y-1801D01*
X1000Y-2000D02*
Y-1955D01*
X947Y-1802D02*
X1000Y-1855D01*
X937Y-1892D02*
X1000Y-1955D01*
Y-1900D02*
Y-1855D01*
X933Y-1633D02*
X1000Y-1700D01*
Y-1600D02*
Y-1587D01*
X989Y-1111D02*
X1000Y-1100D01*
X723Y-1301D02*
X724Y-1300D01*
X1000D01*
X1000Y-1300D01*
X672Y-1581D02*
X697Y-1605D01*
X699D01*
X610Y-1581D02*
X672D01*
X580Y-1520D02*
Y-1475D01*
X610Y-1581D02*
Y-1550D01*
X580Y-1520D02*
X610Y-1550D01*
X224Y-1026D02*
X266D01*
Y-1076D02*
X311D01*
X450Y-1026D02*
X453Y-1029D01*
X450Y-1126D02*
X453Y-1129D01*
D15*
X1003Y-98D02*
D03*
Y-484D02*
D03*
D16*
X866Y-370D02*
D03*
Y-291D02*
D03*
Y-212D02*
D03*
D17*
X450Y-976D02*
D03*
Y-1026D02*
D03*
Y-1076D02*
D03*
Y-1126D02*
D03*
X266D02*
D03*
Y-1076D02*
D03*
Y-1026D02*
D03*
Y-976D02*
D03*
D18*
X80Y-267D02*
D03*
Y-381D02*
D03*
X261Y-384D02*
D03*
Y-270D02*
D03*
D19*
X259Y-894D02*
D03*
X327D02*
D03*
X1015Y-603D02*
D03*
X947D02*
D03*
X328Y-815D02*
D03*
X260D02*
D03*
X450Y-2534D02*
D03*
X519D02*
D03*
X455Y-2383D02*
D03*
X524D02*
D03*
D20*
X947Y-685D02*
D03*
X1029D02*
D03*
D21*
X852Y-2258D02*
D03*
Y-2327D02*
D03*
X694Y-2332D02*
D03*
Y-2400D02*
D03*
X631Y-626D02*
D03*
Y-558D02*
D03*
X546Y-625D02*
D03*
Y-556D02*
D03*
X774Y-908D02*
D03*
Y-976D02*
D03*
D22*
X853Y-2582D02*
D03*
Y-2440D02*
D03*
D23*
X694Y-245D02*
D03*
X442D02*
D03*
X662D02*
D03*
X473D02*
D03*
D24*
X558D02*
D03*
X577D02*
D03*
X538D02*
D03*
X518D02*
D03*
X499D02*
D03*
X597D02*
D03*
X617D02*
D03*
X636D02*
D03*
D25*
X486Y-1475D02*
D03*
X501D02*
D03*
X517D02*
D03*
X533D02*
D03*
X549D02*
D03*
X564D02*
D03*
X580D02*
D03*
X596D02*
D03*
X612D02*
D03*
X627D02*
D03*
X643D02*
D03*
X659D02*
D03*
X675D02*
D03*
X690D02*
D03*
Y-1205D02*
D03*
X675D02*
D03*
X659D02*
D03*
X643D02*
D03*
X627D02*
D03*
X612D02*
D03*
X596D02*
D03*
X580D02*
D03*
X564D02*
D03*
X549D02*
D03*
X533D02*
D03*
X517D02*
D03*
X501D02*
D03*
X486D02*
D03*
D26*
X453Y-1238D02*
D03*
Y-1253D02*
D03*
Y-1269D02*
D03*
Y-1285D02*
D03*
Y-1301D02*
D03*
Y-1316D02*
D03*
Y-1332D02*
D03*
Y-1348D02*
D03*
Y-1364D02*
D03*
Y-1379D02*
D03*
Y-1395D02*
D03*
Y-1411D02*
D03*
Y-1427D02*
D03*
Y-1442D02*
D03*
X723D02*
D03*
Y-1427D02*
D03*
Y-1411D02*
D03*
Y-1395D02*
D03*
Y-1379D02*
D03*
Y-1364D02*
D03*
Y-1348D02*
D03*
Y-1332D02*
D03*
Y-1316D02*
D03*
Y-1301D02*
D03*
Y-1285D02*
D03*
Y-1269D02*
D03*
Y-1253D02*
D03*
Y-1238D02*
D03*
D28*
X399Y-894D02*
D03*
X453D02*
D03*
X767Y-834D02*
D03*
X821D02*
D03*
X510Y-2454D02*
D03*
X456D02*
D03*
X826Y-1160D02*
D03*
X772D02*
D03*
X826Y-1221D02*
D03*
X773D02*
D03*
D29*
X765Y-598D02*
D03*
X827D02*
D03*
Y-760D02*
D03*
X765D02*
D03*
D30*
X740Y-679D02*
D03*
D31*
X537Y-2263D02*
D03*
Y-2210D02*
D03*
X690Y-1094D02*
D03*
Y-1147D02*
D03*
X600Y-1080D02*
D03*
Y-1134D02*
D03*
X695Y-1652D02*
D03*
Y-1598D02*
D03*
X440Y-1653D02*
D03*
Y-1600D02*
D03*
D32*
X366Y-2188D02*
D03*
Y-2226D02*
D03*
Y-2263D02*
D03*
X472D02*
D03*
Y-2188D02*
D03*
D33*
X119Y-117D02*
D03*
X289D02*
D03*
D34*
X339Y-473D02*
D03*
X248D02*
D03*
X157D02*
D03*
D35*
X248Y-721D02*
D03*
D36*
X169Y-382D02*
D03*
Y-319D02*
D03*
X352Y-385D02*
D03*
Y-323D02*
D03*
D37*
X610Y-1581D02*
D03*
Y-1643D02*
D03*
X524Y-1581D02*
D03*
Y-1643D02*
D03*
D71*
X588Y-1340D02*
D03*
D72*
X438Y-1715D02*
Y-1655D01*
X440Y-1653D01*
X553Y-1598D02*
X581Y-1626D01*
X541Y-1598D02*
X553D01*
X593Y-1626D02*
X625Y-1659D01*
X581Y-1626D02*
X593D01*
X524Y-1581D02*
X541Y-1598D01*
X625Y-1659D02*
X697D01*
X596Y-1447D02*
X598Y-1445D01*
Y-1425D01*
X600Y-1423D01*
X750Y-1235D02*
X761D01*
X766Y-1230D01*
X748Y-1237D02*
X750Y-1235D01*
X596Y-1144D02*
X596Y-1144D01*
X596Y-1163D02*
Y-1144D01*
X690Y-1181D02*
Y-1147D01*
D73*
X155Y-471D02*
X157Y-473D01*
X107Y-471D02*
X155D01*
X105Y-469D02*
X107Y-471D01*
X118Y-173D02*
Y-118D01*
X169Y-461D02*
Y-382D01*
X157Y-473D02*
X169Y-461D01*
X118Y-118D02*
X119Y-117D01*
X80Y-382D02*
X169D01*
X169Y-382D01*
X80Y-381D02*
X80Y-382D01*
D74*
X695Y-1661D02*
X697Y-1659D01*
X695Y-1710D02*
Y-1661D01*
D75*
X358Y-391D02*
X394D01*
X352Y-385D02*
X358Y-391D01*
X394D02*
X395Y-392D01*
X339Y-473D02*
X340Y-474D01*
X376D01*
X77Y-264D02*
X96Y-283D01*
X77Y-264D02*
Y-241D01*
X170Y-290D02*
X171Y-289D01*
X169Y-319D02*
X170Y-318D01*
Y-290D01*
X263Y-268D02*
Y-238D01*
X261Y-270D02*
X263Y-268D01*
X600Y-1080D02*
X601Y-1079D01*
Y-1047D01*
X602Y-1046D01*
X826Y-1160D02*
X828Y-1157D01*
Y-1124D02*
X829Y-1123D01*
X828Y-1157D02*
Y-1124D01*
X536Y-2263D02*
X537Y-2263D01*
X536Y-2303D02*
Y-2263D01*
X536Y-2303D02*
X536Y-2303D01*
X472Y-2297D02*
Y-2263D01*
X471Y-2298D02*
X472Y-2297D01*
X471Y-2299D02*
Y-2298D01*
X473Y-2154D02*
X473Y-2154D01*
X472Y-2188D02*
X473Y-2188D01*
Y-2154D01*
X537Y-2210D02*
X580D01*
X537Y-2210D02*
X537Y-2210D01*
X580D02*
X580Y-2210D01*
X694Y-2332D02*
X698D01*
X737Y-2292D01*
Y-2289D01*
X738Y-2288D01*
X398Y-892D02*
Y-858D01*
Y-892D02*
X399Y-894D01*
X397Y-857D02*
X398Y-858D01*
X399Y-975D02*
X449D01*
X398Y-974D02*
X399Y-975D01*
X449D02*
X450Y-976D01*
X262Y-1130D02*
X266Y-1126D01*
X262Y-1146D02*
Y-1130D01*
X457Y-860D02*
X458Y-859D01*
X453Y-894D02*
X457Y-889D01*
Y-860D01*
X327Y-894D02*
X388D01*
X571Y-2546D02*
X572Y-2547D01*
X519Y-2534D02*
X531Y-2546D01*
X571D01*
X514Y-2529D02*
Y-2459D01*
Y-2529D02*
X519Y-2534D01*
X510Y-2454D02*
X514Y-2459D01*
X772Y-1160D02*
X772Y-1160D01*
X772Y-1160D02*
Y-1120D01*
X772Y-1120D02*
X772Y-1120D01*
X773Y-1221D02*
Y-1160D01*
X772Y-1160D02*
X773Y-1160D01*
Y-1221D02*
X773Y-1221D01*
X826Y-1221D02*
Y-1160D01*
Y-1221D02*
X826Y-1221D01*
X826Y-1160D02*
X826Y-1160D01*
X866Y-290D02*
X941D01*
X866Y-291D02*
X866Y-290D01*
X941D02*
X941Y-290D01*
X960Y-662D02*
X1015Y-607D01*
X947Y-685D02*
X960Y-671D01*
X1015Y-607D02*
Y-603D01*
X960Y-671D02*
Y-662D01*
X1030Y-684D02*
X1079D01*
X1029Y-685D02*
X1030Y-684D01*
X1079D02*
X1079Y-684D01*
X909Y-601D02*
X944D01*
X947Y-603D01*
X908Y-600D02*
X909Y-601D01*
X775Y-1015D02*
Y-977D01*
X774Y-976D02*
X775Y-977D01*
Y-1015D02*
X775Y-1015D01*
X689Y-1094D02*
Y-1062D01*
X689Y-1062D02*
X689Y-1062D01*
Y-1094D02*
X690Y-1094D01*
X824Y-763D02*
X827Y-760D01*
X824Y-831D02*
Y-763D01*
X821Y-834D02*
X824Y-831D01*
X740Y-679D02*
X769D01*
X827Y-760D02*
Y-598D01*
X352Y-322D02*
X352Y-323D01*
X336Y-307D02*
X352Y-322D01*
Y-280D01*
X351Y-280D02*
X352Y-280D01*
X293Y-121D02*
X355D01*
X289Y-117D02*
X293Y-121D01*
X659Y-295D02*
X660Y-294D01*
X660Y-247D02*
X662Y-245D01*
X660Y-293D02*
Y-247D01*
X471Y-299D02*
Y-247D01*
X473Y-245D01*
X131Y-283D02*
X167Y-319D01*
X96Y-283D02*
X131D01*
X167Y-319D02*
X169D01*
X271Y-270D02*
X308Y-307D01*
X336D01*
X261Y-270D02*
X271D01*
X251D02*
X261D01*
X169Y-319D02*
X185Y-303D01*
X218D01*
X251Y-270D01*
D76*
X593Y-535D02*
X596Y-537D01*
X593Y-535D02*
Y-409D01*
X611Y-537D02*
X631Y-558D01*
X596Y-537D02*
X611D01*
X553Y-267D02*
X558Y-262D01*
Y-245D01*
X553Y-368D02*
X593Y-409D01*
X553Y-368D02*
Y-267D01*
X584Y-535D02*
Y-413D01*
X543Y-372D02*
Y-267D01*
X582Y-537D02*
X584Y-535D01*
X565Y-537D02*
X582D01*
X546Y-556D02*
X565Y-537D01*
X538Y-262D02*
X543Y-267D01*
X538Y-262D02*
Y-245D01*
X543Y-372D02*
X584Y-413D01*
X589Y-153D02*
Y-150D01*
X579Y-162D02*
X589Y-153D01*
X579Y-185D02*
Y-162D01*
X553Y-211D02*
X579Y-185D01*
X553Y-223D02*
Y-211D01*
Y-223D02*
X558Y-228D01*
X560Y-153D02*
Y-150D01*
Y-153D02*
X570Y-162D01*
Y-181D02*
Y-162D01*
X558Y-245D02*
Y-228D01*
X543Y-223D02*
Y-208D01*
X570Y-181D01*
X538Y-245D02*
Y-228D01*
X543Y-223D01*
X583Y-297D02*
X592Y-288D01*
X583Y-331D02*
X586Y-334D01*
X583Y-331D02*
Y-297D01*
X586Y-334D02*
X599D01*
X597Y-262D02*
Y-245D01*
X573Y-335D02*
X579Y-341D01*
X573Y-335D02*
Y-294D01*
X583Y-284D01*
Y-267D01*
X577Y-262D02*
Y-245D01*
Y-262D02*
X583Y-267D01*
X579Y-354D02*
Y-341D01*
X592Y-288D02*
Y-267D01*
X597Y-262D01*
X599Y-334D02*
X601Y-336D01*
X579Y-354D02*
X581Y-356D01*
X593Y-753D02*
X643Y-803D01*
Y-1007D02*
Y-803D01*
X633Y-1003D02*
Y-807D01*
X640Y-1189D02*
X643Y-1192D01*
X631Y-1006D02*
X633Y-1003D01*
X640Y-1010D02*
X643Y-1007D01*
X627Y-1192D02*
X631Y-1189D01*
X643Y-1205D02*
Y-1192D01*
X640Y-1189D02*
Y-1010D01*
X631Y-1189D02*
Y-1006D01*
X627Y-1205D02*
Y-1192D01*
X593Y-629D02*
X595Y-626D01*
X593Y-753D02*
Y-629D01*
X595Y-626D02*
X631D01*
X584Y-757D02*
X633Y-807D01*
X581Y-626D02*
X584Y-629D01*
X547Y-626D02*
X581D01*
X546Y-625D02*
X547Y-626D01*
X584Y-757D02*
Y-629D01*
D77*
X255Y-466D02*
Y-390D01*
X260Y-384D01*
X261D01*
X248Y-473D02*
X255Y-466D01*
X248Y-648D02*
Y-548D01*
X249Y-547D02*
Y-474D01*
X248Y-721D02*
Y-648D01*
Y-473D02*
X249Y-474D01*
X248Y-548D02*
X249Y-547D01*
D78*
X1000Y-1200D02*
D03*
Y-1500D02*
D03*
Y-1600D02*
D03*
Y-1700D02*
D03*
Y-1900D02*
D03*
Y-2000D02*
D03*
Y-2200D02*
D03*
Y-2400D02*
D03*
Y-2500D02*
D03*
Y-2300D02*
D03*
Y-2100D02*
D03*
Y-1800D02*
D03*
Y-1400D02*
D03*
Y-1300D02*
D03*
Y-1100D02*
D03*
Y-1000D02*
D03*
Y-900D02*
D03*
X337Y-1890D02*
D03*
X437D02*
D03*
X537D02*
D03*
X100Y-900D02*
D03*
Y-1000D02*
D03*
Y-1100D02*
D03*
Y-1300D02*
D03*
Y-1400D02*
D03*
Y-1800D02*
D03*
Y-2100D02*
D03*
Y-2300D02*
D03*
Y-2500D02*
D03*
Y-2400D02*
D03*
Y-2200D02*
D03*
Y-2000D02*
D03*
Y-1900D02*
D03*
Y-1700D02*
D03*
Y-1600D02*
D03*
Y-1500D02*
D03*
Y-1200D02*
D03*
D79*
X1000Y-2600D02*
D03*
X100D02*
D03*
D80*
X637Y-1890D02*
D03*
D81*
X869Y-1894D02*
D03*
D82*
X769D02*
D03*
X869Y-1794D02*
D03*
X769D02*
D03*
D83*
X738Y-58D02*
D03*
X397D02*
D03*
D84*
X738Y-222D02*
D03*
X397D02*
D03*
D85*
X454Y-203D02*
D03*
X681D02*
D03*
D86*
X438Y-1715D02*
D03*
X695Y-1710D02*
D03*
X737Y-1475D02*
D03*
X596Y-1163D02*
D03*
X395Y-392D02*
D03*
X376Y-474D02*
D03*
X77Y-241D02*
D03*
X171Y-289D02*
D03*
X263Y-238D02*
D03*
X932Y-213D02*
D03*
X367Y-820D02*
D03*
X560Y-150D02*
D03*
X589D02*
D03*
X581Y-356D02*
D03*
X601Y-336D02*
D03*
X602Y-1046D02*
D03*
X829Y-1123D02*
D03*
X600Y-1423D02*
D03*
X716Y-1205D02*
D03*
X536Y-2303D02*
D03*
X738Y-2288D02*
D03*
X675Y-1341D02*
D03*
X397Y-857D02*
D03*
X398Y-974D02*
D03*
X262Y-1146D02*
D03*
X458Y-859D02*
D03*
X572Y-2547D02*
D03*
X616Y-2446D02*
D03*
X661Y-2554D02*
D03*
X407Y-2499D02*
D03*
X772Y-1120D02*
D03*
X941Y-290D02*
D03*
X1079Y-684D02*
D03*
X908Y-600D02*
D03*
X775Y-1015D02*
D03*
X689Y-1062D02*
D03*
X555Y-1336D02*
D03*
X551Y-1376D02*
D03*
X827Y-679D02*
D03*
X769D02*
D03*
X351Y-280D02*
D03*
X249Y-547D02*
D03*
X248Y-648D02*
D03*
Y-597D02*
D03*
X465Y-305D02*
D03*
X659Y-295D02*
D03*
X471Y-2299D02*
D03*
X473Y-2154D02*
D03*
X580Y-2210D02*
D03*
X416Y-2450D02*
D03*
X420Y-2384D02*
D03*
X848Y-2632D02*
D03*
D87*
X374Y-1473D02*
D03*
X334Y-1441D02*
D03*
X813Y-907D02*
D03*
X677Y-1524D02*
D03*
X677Y-1371D02*
D03*
X659Y-1233D02*
D03*
X607Y-1514D02*
D03*
X641Y-2260D02*
D03*
X329Y-2188D02*
D03*
X637Y-1533D02*
D03*
X745Y-2449D02*
D03*
X521Y-1434D02*
D03*
X305Y-1437D02*
D03*
X331Y-1481D02*
D03*
X401Y-1498D02*
D03*
X268Y-1701D02*
D03*
X246Y-1804D02*
D03*
X298Y-1527D02*
D03*
X423Y-1221D02*
D03*
X402Y-1378D02*
D03*
X292Y-1412D02*
D03*
X279Y-1389D02*
D03*
X149Y-1247D02*
D03*
X163Y-1269D02*
D03*
X278Y-1594D02*
D03*
X259Y-1369D02*
D03*
X242Y-1347D02*
D03*
X227Y-1325D02*
D03*
X206Y-1308D02*
D03*
X184Y-1289D02*
D03*
X235Y-1901D02*
D03*
X211Y-2007D02*
D03*
X190Y-2100D02*
D03*
X182Y-2208D02*
D03*
Y-2299D02*
D03*
D88*
X105Y-469D02*
D03*
X118Y-173D02*
D03*
X355Y-121D02*
D03*
M02*
