G04*
G04 #@! TF.GenerationSoftware,Altium Limited,Altium Designer,21.8.1 (53)*
G04*
G04 Layer_Color=32768*
%FSLAX23Y23*%
%MOIN*%
G70*
G04*
G04 #@! TF.SameCoordinates,9A98099C-E915-48DC-B274-BBC1B63A1E23*
G04*
G04*
G04 #@! TF.FilePolarity,Positive*
G04*
G01*
G75*
%ADD11C,0.008*%
%ADD12C,0.004*%
%ADD97C,0.002*%
D11*
X1154Y-543D02*
Y-39D01*
X792D02*
X1154D01*
X792Y-543D02*
Y-39D01*
Y-543D02*
X1154D01*
X957Y-291D02*
X997D01*
X977Y-311D02*
Y-271D01*
X227Y-943D02*
X489D01*
X227Y-1159D02*
Y-943D01*
Y-1159D02*
X489D01*
Y-943D01*
D12*
X519Y-2393D02*
Y-2353D01*
X499Y-2373D02*
X539D01*
X338Y-1051D02*
X378D01*
X358Y-1071D02*
Y-1031D01*
X469Y-1277D02*
X507D01*
X488Y-1296D02*
Y-1258D01*
X495Y-1395D02*
Y-1357D01*
X476Y-1376D02*
X514D01*
X80Y-344D02*
Y-304D01*
X60Y-324D02*
X100D01*
X273Y-894D02*
X313D01*
X293Y-914D02*
Y-874D01*
X981Y-623D02*
Y-583D01*
X961Y-603D02*
X1001D01*
X968Y-685D02*
X1008D01*
X988Y-705D02*
Y-665D01*
X852Y-2312D02*
Y-2273D01*
X832Y-2292D02*
X872D01*
X833Y-2511D02*
X873D01*
X853Y-2531D02*
Y-2491D01*
X670Y-1433D02*
Y-1395D01*
X651Y-1414D02*
X689D01*
X551Y-1295D02*
Y-1257D01*
X532Y-1276D02*
X570D01*
X676Y-1298D02*
Y-1261D01*
X657Y-1280D02*
X695D01*
X595Y-1278D02*
X633D01*
X614Y-1297D02*
Y-1259D01*
X651Y-1475D02*
X688D01*
X670Y-1494D02*
Y-1457D01*
X294Y-835D02*
Y-795D01*
X274Y-815D02*
X314D01*
X426Y-913D02*
Y-875D01*
X407Y-894D02*
X445D01*
X794Y-853D02*
Y-815D01*
X775Y-834D02*
X813D01*
X518Y-2236D02*
X556D01*
X537Y-2255D02*
Y-2218D01*
X399Y-2226D02*
X439D01*
X419Y-2245D02*
Y-2206D01*
X674Y-2366D02*
X714D01*
X694Y-2386D02*
Y-2346D01*
X204Y-137D02*
Y-97D01*
X184Y-117D02*
X224D01*
X248Y-617D02*
Y-577D01*
X228Y-597D02*
X268D01*
X483Y-2473D02*
Y-2435D01*
X464Y-2454D02*
X502D01*
X241Y-327D02*
X281D01*
X261Y-347D02*
Y-307D01*
X149Y-351D02*
X189D01*
X169Y-370D02*
Y-331D01*
X332Y-354D02*
X372D01*
X352Y-374D02*
Y-334D01*
X631Y-612D02*
Y-572D01*
X611Y-592D02*
X651D01*
X546Y-610D02*
Y-571D01*
X526Y-591D02*
X566D01*
X690Y-1139D02*
Y-1102D01*
X671Y-1121D02*
X709D01*
X600Y-1126D02*
Y-1088D01*
X581Y-1107D02*
X619D01*
X780Y-1160D02*
X818D01*
X799Y-1179D02*
Y-1141D01*
X781Y-1221D02*
X818D01*
X799Y-1240D02*
Y-1202D01*
X695Y-1644D02*
Y-1606D01*
X676Y-1625D02*
X714D01*
X774Y-962D02*
Y-922D01*
X754Y-942D02*
X794D01*
X465Y-2534D02*
X504D01*
X484Y-2554D02*
Y-2514D01*
X470Y-2383D02*
X509D01*
X490Y-2403D02*
Y-2363D01*
X440Y-1645D02*
Y-1608D01*
X421Y-1627D02*
X459D01*
X567Y-1632D02*
Y-1592D01*
X547Y-1612D02*
X587D01*
D97*
X224Y-2054D02*
X814D01*
X224Y-2692D02*
Y-2054D01*
Y-2692D02*
X814D01*
Y-2054D01*
X458Y-1330D02*
Y-1224D01*
X518Y-1330D02*
Y-1224D01*
X458D02*
X518D01*
X458Y-1330D02*
X518D01*
X442Y-1406D02*
X548D01*
X442Y-1346D02*
X548D01*
X442Y-1406D02*
Y-1346D01*
X548Y-1406D02*
Y-1346D01*
X35Y-231D02*
X125D01*
X35Y-416D02*
X125D01*
Y-231D01*
X35Y-416D02*
Y-231D01*
X226Y-931D02*
Y-857D01*
X360Y-931D02*
Y-857D01*
X226D02*
X360D01*
X226Y-931D02*
X360D01*
X914Y-640D02*
X1048D01*
X914Y-566D02*
X1048D01*
Y-640D02*
Y-566D01*
X914Y-640D02*
Y-566D01*
X913Y-722D02*
Y-648D01*
X1063Y-722D02*
Y-648D01*
X913D02*
X1063D01*
X913Y-722D02*
X1063D01*
X815Y-2226D02*
X889D01*
X815Y-2359D02*
X889D01*
Y-2226D01*
X815Y-2359D02*
Y-2226D01*
X810Y-2621D02*
Y-2401D01*
X896Y-2621D02*
Y-2401D01*
X810Y-2621D02*
X896D01*
X810Y-2401D02*
X896D01*
X617Y-1444D02*
X723D01*
X617Y-1384D02*
X723D01*
X617Y-1444D02*
Y-1384D01*
X723Y-1444D02*
Y-1384D01*
X521Y-1329D02*
X581D01*
X521Y-1223D02*
X581D01*
Y-1329D02*
Y-1223D01*
X521Y-1329D02*
Y-1223D01*
X646Y-1333D02*
X706D01*
X646Y-1226D02*
X706D01*
Y-1333D02*
Y-1226D01*
X646Y-1333D02*
Y-1226D01*
X584Y-1331D02*
Y-1225D01*
X644Y-1331D02*
Y-1225D01*
X584D02*
X644D01*
X584Y-1331D02*
X644D01*
X723Y-1505D02*
Y-1446D01*
X617Y-1505D02*
Y-1446D01*
X723D01*
X617Y-1505D02*
X723D01*
X768Y-277D02*
Y54D01*
X367D02*
X768D01*
X367Y-277D02*
Y54D01*
Y-277D02*
X768D01*
X227Y-852D02*
X361D01*
X227Y-778D02*
X361D01*
Y-852D02*
Y-778D01*
X227Y-852D02*
Y-778D01*
X426Y-1502D02*
X750D01*
X426Y-1178D02*
X750D01*
X426Y-1502D02*
Y-1178D01*
X750Y-1502D02*
Y-1178D01*
X373Y-864D02*
X479D01*
X373Y-924D02*
X479D01*
X373D02*
Y-864D01*
X479Y-924D02*
Y-864D01*
X741Y-804D02*
X847D01*
X741Y-864D02*
X847D01*
X741D02*
Y-804D01*
X847Y-864D02*
Y-804D01*
X507Y-2290D02*
Y-2183D01*
X567Y-2290D02*
Y-2183D01*
X507Y-2290D02*
X567D01*
X507Y-2183D02*
X567D01*
X336Y-2294D02*
Y-2157D01*
X502Y-2294D02*
Y-2157D01*
X336D02*
X502D01*
X336Y-2294D02*
X502D01*
X731Y-2433D02*
Y-2299D01*
X657Y-2433D02*
Y-2299D01*
X731D01*
X657Y-2433D02*
X731D01*
X58Y-34D02*
X350D01*
X58Y-200D02*
X350D01*
X58D02*
Y-34D01*
X350Y-200D02*
Y-34D01*
X106Y-430D02*
X390D01*
X106Y-764D02*
X390D01*
Y-430D01*
X106Y-764D02*
Y-430D01*
X430Y-2484D02*
X536D01*
X430Y-2424D02*
X536D01*
Y-2484D02*
Y-2424D01*
X430Y-2484D02*
Y-2424D01*
X216Y-419D02*
Y-234D01*
X306Y-419D02*
Y-234D01*
X216Y-419D02*
X306D01*
X216Y-234D02*
X306D01*
X132Y-417D02*
Y-284D01*
X206Y-417D02*
Y-284D01*
X132Y-417D02*
X206D01*
X132Y-284D02*
X206D01*
X315Y-421D02*
Y-287D01*
X389Y-421D02*
Y-287D01*
X315Y-421D02*
X389D01*
X315Y-287D02*
X389D01*
X594Y-659D02*
X668D01*
X594Y-525D02*
X668D01*
X594Y-659D02*
Y-525D01*
X668Y-659D02*
Y-525D01*
X509Y-657D02*
X583D01*
X509Y-524D02*
X583D01*
X509Y-657D02*
Y-524D01*
X583Y-657D02*
Y-524D01*
X660Y-1067D02*
X720D01*
X660Y-1174D02*
X720D01*
Y-1067D01*
X660Y-1174D02*
Y-1067D01*
X570Y-1054D02*
X630D01*
X570Y-1160D02*
X630D01*
Y-1054D01*
X570Y-1160D02*
Y-1054D01*
X852Y-1190D02*
Y-1130D01*
X746Y-1190D02*
Y-1130D01*
Y-1190D02*
X852D01*
X746Y-1130D02*
X852D01*
X853Y-1251D02*
Y-1191D01*
X746Y-1251D02*
Y-1191D01*
Y-1251D02*
X853D01*
X746Y-1191D02*
X853D01*
X665Y-1678D02*
X725D01*
X665Y-1572D02*
X725D01*
X665Y-1678D02*
Y-1572D01*
X725Y-1678D02*
Y-1572D01*
X737Y-875D02*
X811D01*
X737Y-1009D02*
X811D01*
Y-875D01*
X737Y-1009D02*
Y-875D01*
X418Y-2571D02*
Y-2497D01*
X551Y-2571D02*
Y-2497D01*
X418D02*
X551D01*
X418Y-2571D02*
X551D01*
X423Y-2420D02*
Y-2346D01*
X556Y-2420D02*
Y-2346D01*
X423D02*
X556D01*
X423Y-2420D02*
X556D01*
X410Y-1680D02*
X470D01*
X410Y-1573D02*
X470D01*
X410Y-1680D02*
Y-1573D01*
X470Y-1680D02*
Y-1573D01*
X473Y-1687D02*
X661D01*
X473Y-1537D02*
X661D01*
Y-1687D02*
Y-1537D01*
X473Y-1687D02*
Y-1537D01*
M02*
