G04*
G04 #@! TF.GenerationSoftware,Altium Limited,Altium Designer,21.8.1 (53)*
G04*
G04 Layer_Physical_Order=3*
G04 Layer_Color=16440176*
%FSLAX23Y23*%
%MOIN*%
G70*
G04*
G04 #@! TF.SameCoordinates,9A98099C-E915-48DC-B274-BBC1B63A1E23*
G04*
G04*
G04 #@! TF.FilePolarity,Positive*
G04*
G01*
G75*
%ADD78C,0.063*%
%ADD83O,0.039X0.079*%
%ADD84O,0.041X0.083*%
%ADD86C,0.024*%
G36*
X1100Y-50D02*
Y-667D01*
X1095Y-669D01*
X1095Y-668D01*
X1088Y-663D01*
X1084Y-663D01*
Y-684D01*
Y-705D01*
X1088Y-705D01*
X1095Y-700D01*
X1095Y-699D01*
X1100Y-701D01*
Y-2650D01*
X1050Y-2700D01*
X50D01*
X0Y-2650D01*
Y-50D01*
X50Y0D01*
X1050D01*
X1100Y-50D01*
D02*
G37*
%LPC*%
G36*
X743Y-9D02*
Y-53D01*
X768D01*
Y-38D01*
X767Y-30D01*
X764Y-23D01*
X759Y-17D01*
X753Y-12D01*
X745Y-9D01*
X743Y-9D01*
D02*
G37*
G36*
X733Y-9D02*
X730Y-9D01*
X723Y-12D01*
X716Y-17D01*
X712Y-23D01*
X709Y-30D01*
X708Y-38D01*
Y-53D01*
X733D01*
Y-9D01*
D02*
G37*
G36*
X397Y-13D02*
X388Y-15D01*
X380Y-20D01*
X374Y-28D01*
X372Y-38D01*
Y-77D01*
X374Y-87D01*
X380Y-95D01*
X388Y-101D01*
X397Y-103D01*
X407Y-101D01*
X415Y-95D01*
X421Y-87D01*
X423Y-77D01*
Y-38D01*
X421Y-28D01*
X415Y-20D01*
X407Y-15D01*
X397Y-13D01*
D02*
G37*
G36*
X733Y-63D02*
X708D01*
Y-77D01*
X709Y-85D01*
X712Y-92D01*
X716Y-99D01*
X723Y-103D01*
X730Y-106D01*
X733Y-107D01*
Y-63D01*
D02*
G37*
G36*
X768D02*
X743D01*
Y-107D01*
X745Y-106D01*
X753Y-103D01*
X759Y-99D01*
X764Y-92D01*
X767Y-85D01*
X768Y-77D01*
Y-63D01*
D02*
G37*
G36*
X589Y-133D02*
X582Y-134D01*
X578Y-137D01*
X575Y-138D01*
X571Y-137D01*
X567Y-134D01*
X560Y-133D01*
X554Y-134D01*
X548Y-138D01*
X545Y-143D01*
X543Y-150D01*
X545Y-157D01*
X548Y-162D01*
X554Y-166D01*
X560Y-167D01*
X567Y-166D01*
X571Y-163D01*
X575Y-162D01*
X578Y-163D01*
X582Y-166D01*
X589Y-167D01*
X596Y-166D01*
X601Y-162D01*
X605Y-157D01*
X606Y-150D01*
X605Y-143D01*
X601Y-138D01*
X596Y-134D01*
X589Y-133D01*
D02*
G37*
G36*
X355Y-92D02*
X348Y-93D01*
X341Y-96D01*
X335Y-101D01*
X330Y-107D01*
X327Y-114D01*
X326Y-121D01*
X327Y-128D01*
X330Y-135D01*
X335Y-141D01*
X341Y-146D01*
X348Y-149D01*
X355Y-150D01*
X362Y-149D01*
X369Y-146D01*
X375Y-141D01*
X380Y-135D01*
X383Y-128D01*
X384Y-121D01*
X383Y-114D01*
X380Y-107D01*
X375Y-101D01*
X369Y-96D01*
X362Y-93D01*
X355Y-92D01*
D02*
G37*
G36*
X118Y-144D02*
X111Y-145D01*
X104Y-148D01*
X98Y-153D01*
X93Y-159D01*
X90Y-166D01*
X89Y-173D01*
X90Y-180D01*
X93Y-187D01*
X98Y-193D01*
X104Y-198D01*
X111Y-201D01*
X118Y-202D01*
X125Y-201D01*
X132Y-198D01*
X138Y-193D01*
X143Y-187D01*
X146Y-180D01*
X147Y-173D01*
X146Y-166D01*
X143Y-159D01*
X138Y-153D01*
X132Y-148D01*
X125Y-145D01*
X118Y-144D01*
D02*
G37*
G36*
X743Y-171D02*
Y-217D01*
X769D01*
Y-202D01*
X767Y-194D01*
X764Y-186D01*
X759Y-180D01*
X753Y-175D01*
X746Y-172D01*
X743Y-171D01*
D02*
G37*
G36*
X402D02*
Y-217D01*
X428D01*
Y-202D01*
X427Y-194D01*
X424Y-186D01*
X419Y-180D01*
X413Y-175D01*
X405Y-172D01*
X402Y-171D01*
D02*
G37*
G36*
X733D02*
X730Y-172D01*
X722Y-175D01*
X716Y-180D01*
X711Y-186D01*
X708Y-194D01*
X707Y-202D01*
Y-217D01*
X733D01*
Y-171D01*
D02*
G37*
G36*
X392D02*
X389Y-172D01*
X382Y-175D01*
X376Y-180D01*
X371Y-186D01*
X368Y-194D01*
X367Y-202D01*
Y-217D01*
X392D01*
Y-171D01*
D02*
G37*
G36*
X681Y-185D02*
X674Y-186D01*
X668Y-190D01*
X665Y-196D01*
X663Y-203D01*
X665Y-210D01*
X668Y-216D01*
X674Y-219D01*
X681Y-221D01*
X688Y-219D01*
X694Y-216D01*
X698Y-210D01*
X699Y-203D01*
X698Y-196D01*
X694Y-190D01*
X688Y-186D01*
X681Y-185D01*
D02*
G37*
G36*
X454D02*
X447Y-186D01*
X441Y-190D01*
X437Y-196D01*
X436Y-203D01*
X437Y-210D01*
X441Y-216D01*
X447Y-219D01*
X454Y-221D01*
X461Y-219D01*
X467Y-216D01*
X471Y-210D01*
X472Y-203D01*
X471Y-196D01*
X467Y-190D01*
X461Y-186D01*
X454Y-185D01*
D02*
G37*
G36*
X932Y-196D02*
X925Y-197D01*
X920Y-201D01*
X916Y-206D01*
X915Y-213D01*
X916Y-220D01*
X920Y-225D01*
X925Y-229D01*
X932Y-230D01*
X939Y-229D01*
X944Y-225D01*
X948Y-220D01*
X949Y-213D01*
X948Y-206D01*
X944Y-201D01*
X939Y-197D01*
X932Y-196D01*
D02*
G37*
G36*
X268Y-217D02*
Y-233D01*
X284D01*
X284Y-229D01*
X279Y-222D01*
X272Y-217D01*
X268Y-217D01*
D02*
G37*
G36*
X258D02*
X254Y-217D01*
X247Y-222D01*
X242Y-229D01*
X242Y-233D01*
X258D01*
Y-217D01*
D02*
G37*
G36*
X82Y-220D02*
Y-236D01*
X98D01*
X98Y-232D01*
X93Y-225D01*
X86Y-220D01*
X82Y-220D01*
D02*
G37*
G36*
X72D02*
X68Y-220D01*
X61Y-225D01*
X56Y-232D01*
X56Y-236D01*
X72D01*
Y-220D01*
D02*
G37*
G36*
X284Y-243D02*
X268D01*
Y-259D01*
X272Y-259D01*
X279Y-254D01*
X284Y-247D01*
X284Y-243D01*
D02*
G37*
G36*
X258D02*
X242D01*
X242Y-247D01*
X247Y-254D01*
X254Y-259D01*
X258Y-259D01*
Y-243D01*
D02*
G37*
G36*
X98Y-246D02*
X82D01*
Y-262D01*
X86Y-262D01*
X93Y-257D01*
X98Y-250D01*
X98Y-246D01*
D02*
G37*
G36*
X72D02*
X56D01*
X56Y-250D01*
X61Y-257D01*
X68Y-262D01*
X72Y-262D01*
Y-246D01*
D02*
G37*
G36*
X769Y-227D02*
X743D01*
Y-273D01*
X746Y-273D01*
X753Y-270D01*
X759Y-265D01*
X764Y-258D01*
X767Y-251D01*
X769Y-243D01*
Y-227D01*
D02*
G37*
G36*
X428D02*
X402D01*
Y-273D01*
X405Y-273D01*
X413Y-270D01*
X419Y-265D01*
X424Y-258D01*
X427Y-251D01*
X428Y-243D01*
Y-227D01*
D02*
G37*
G36*
X733D02*
X707D01*
Y-243D01*
X708Y-251D01*
X711Y-258D01*
X716Y-265D01*
X722Y-270D01*
X730Y-273D01*
X733Y-273D01*
Y-227D01*
D02*
G37*
G36*
X392D02*
X367D01*
Y-243D01*
X368Y-251D01*
X371Y-258D01*
X376Y-265D01*
X382Y-270D01*
X389Y-273D01*
X392Y-273D01*
Y-227D01*
D02*
G37*
G36*
X356Y-259D02*
Y-275D01*
X372D01*
X372Y-271D01*
X367Y-264D01*
X360Y-259D01*
X356Y-259D01*
D02*
G37*
G36*
X346D02*
X342Y-259D01*
X335Y-264D01*
X330Y-271D01*
X330Y-275D01*
X346D01*
Y-259D01*
D02*
G37*
G36*
X176Y-268D02*
Y-284D01*
X192D01*
X192Y-280D01*
X187Y-273D01*
X180Y-268D01*
X176Y-268D01*
D02*
G37*
G36*
X166D02*
X162Y-268D01*
X155Y-273D01*
X150Y-280D01*
X150Y-284D01*
X166D01*
Y-268D01*
D02*
G37*
G36*
X946Y-269D02*
Y-285D01*
X962D01*
X962Y-281D01*
X957Y-274D01*
X950Y-269D01*
X946Y-269D01*
D02*
G37*
G36*
X936D02*
X932Y-269D01*
X925Y-274D01*
X920Y-281D01*
X920Y-285D01*
X936D01*
Y-269D01*
D02*
G37*
G36*
X372Y-285D02*
X356D01*
Y-301D01*
X360Y-301D01*
X367Y-296D01*
X372Y-289D01*
X372Y-285D01*
D02*
G37*
G36*
X346D02*
X330D01*
X330Y-289D01*
X335Y-296D01*
X342Y-301D01*
X346Y-301D01*
Y-285D01*
D02*
G37*
G36*
X192Y-294D02*
X176D01*
Y-310D01*
X180Y-310D01*
X187Y-305D01*
X192Y-298D01*
X192Y-294D01*
D02*
G37*
G36*
X166D02*
X150D01*
X150Y-298D01*
X155Y-305D01*
X162Y-310D01*
X166Y-310D01*
Y-294D01*
D02*
G37*
G36*
X962Y-295D02*
X946D01*
Y-311D01*
X950Y-311D01*
X957Y-306D01*
X962Y-299D01*
X962Y-295D01*
D02*
G37*
G36*
X936D02*
X920D01*
X920Y-299D01*
X925Y-306D01*
X932Y-311D01*
X936Y-311D01*
Y-295D01*
D02*
G37*
G36*
X659Y-278D02*
X652Y-279D01*
X647Y-283D01*
X643Y-288D01*
X642Y-295D01*
X643Y-302D01*
X647Y-307D01*
X652Y-311D01*
X659Y-312D01*
X666Y-311D01*
X671Y-307D01*
X675Y-302D01*
X676Y-295D01*
X675Y-288D01*
X671Y-283D01*
X666Y-279D01*
X659Y-278D01*
D02*
G37*
G36*
X465Y-288D02*
X459Y-289D01*
X453Y-293D01*
X449Y-299D01*
X448Y-305D01*
X449Y-312D01*
X453Y-317D01*
X459Y-321D01*
X465Y-322D01*
X472Y-321D01*
X477Y-317D01*
X481Y-312D01*
X482Y-305D01*
X481Y-299D01*
X477Y-293D01*
X472Y-289D01*
X465Y-288D01*
D02*
G37*
G36*
X601Y-319D02*
X594Y-320D01*
X589Y-324D01*
X585Y-329D01*
X584Y-335D01*
X582Y-337D01*
X579Y-339D01*
X574Y-340D01*
X569Y-344D01*
X565Y-350D01*
X564Y-356D01*
X565Y-363D01*
X569Y-368D01*
X574Y-372D01*
X581Y-373D01*
X587Y-372D01*
X593Y-368D01*
X597Y-363D01*
X598Y-358D01*
X600Y-355D01*
X602Y-353D01*
X608Y-352D01*
X613Y-348D01*
X617Y-343D01*
X618Y-336D01*
X617Y-329D01*
X613Y-324D01*
X608Y-320D01*
X601Y-319D01*
D02*
G37*
G36*
X395Y-375D02*
X388Y-376D01*
X383Y-380D01*
X379Y-385D01*
X378Y-392D01*
X379Y-399D01*
X383Y-404D01*
X388Y-408D01*
X395Y-409D01*
X402Y-408D01*
X407Y-404D01*
X411Y-399D01*
X412Y-392D01*
X411Y-385D01*
X407Y-380D01*
X402Y-376D01*
X395Y-375D01*
D02*
G37*
G36*
X381Y-453D02*
Y-469D01*
X397D01*
X397Y-465D01*
X392Y-458D01*
X385Y-453D01*
X381Y-453D01*
D02*
G37*
G36*
X371D02*
X367Y-453D01*
X360Y-458D01*
X355Y-465D01*
X355Y-469D01*
X371D01*
Y-453D01*
D02*
G37*
G36*
X397Y-479D02*
X381D01*
Y-495D01*
X385Y-495D01*
X392Y-490D01*
X397Y-483D01*
X397Y-479D01*
D02*
G37*
G36*
X371D02*
X355D01*
X355Y-483D01*
X360Y-490D01*
X367Y-495D01*
X371Y-495D01*
Y-479D01*
D02*
G37*
G36*
X105Y-440D02*
X98Y-441D01*
X91Y-444D01*
X85Y-449D01*
X80Y-455D01*
X77Y-462D01*
X76Y-469D01*
X77Y-476D01*
X80Y-483D01*
X85Y-489D01*
X91Y-494D01*
X98Y-497D01*
X105Y-498D01*
X112Y-497D01*
X119Y-494D01*
X125Y-489D01*
X130Y-483D01*
X133Y-476D01*
X134Y-469D01*
X133Y-462D01*
X130Y-455D01*
X125Y-449D01*
X119Y-444D01*
X112Y-441D01*
X105Y-440D01*
D02*
G37*
G36*
X249Y-530D02*
X242Y-531D01*
X237Y-535D01*
X233Y-540D01*
X232Y-547D01*
X233Y-554D01*
X237Y-559D01*
X242Y-563D01*
X249Y-564D01*
X256Y-563D01*
X261Y-559D01*
X265Y-554D01*
X266Y-547D01*
X265Y-540D01*
X261Y-535D01*
X256Y-531D01*
X249Y-530D01*
D02*
G37*
G36*
X248Y-580D02*
X241Y-581D01*
X236Y-585D01*
X232Y-590D01*
X231Y-597D01*
X232Y-604D01*
X236Y-609D01*
X241Y-613D01*
X248Y-614D01*
X255Y-613D01*
X260Y-609D01*
X264Y-604D01*
X265Y-597D01*
X264Y-590D01*
X260Y-585D01*
X255Y-581D01*
X248Y-580D01*
D02*
G37*
G36*
X908Y-583D02*
X901Y-584D01*
X896Y-588D01*
X892Y-593D01*
X891Y-600D01*
X892Y-607D01*
X896Y-612D01*
X901Y-616D01*
X908Y-617D01*
X915Y-616D01*
X920Y-612D01*
X924Y-607D01*
X925Y-600D01*
X924Y-593D01*
X920Y-588D01*
X915Y-584D01*
X908Y-583D01*
D02*
G37*
G36*
X248Y-631D02*
X241Y-632D01*
X236Y-636D01*
X232Y-641D01*
X231Y-648D01*
X232Y-655D01*
X236Y-660D01*
X241Y-664D01*
X248Y-665D01*
X255Y-664D01*
X260Y-660D01*
X264Y-655D01*
X265Y-648D01*
X264Y-641D01*
X260Y-636D01*
X255Y-632D01*
X248Y-631D01*
D02*
G37*
G36*
X832Y-658D02*
Y-674D01*
X849D01*
X848Y-670D01*
X843Y-663D01*
X836Y-658D01*
X832Y-658D01*
D02*
G37*
G36*
X822D02*
X819Y-658D01*
X812Y-663D01*
X807Y-670D01*
X806Y-674D01*
X822D01*
Y-658D01*
D02*
G37*
G36*
X774D02*
Y-674D01*
X790D01*
X790Y-670D01*
X785Y-663D01*
X778Y-658D01*
X774Y-658D01*
D02*
G37*
G36*
X764D02*
X760Y-658D01*
X753Y-663D01*
X748Y-670D01*
X748Y-674D01*
X764D01*
Y-658D01*
D02*
G37*
G36*
X1074Y-663D02*
X1070Y-663D01*
X1063Y-668D01*
X1058Y-675D01*
X1058Y-679D01*
X1074D01*
Y-663D01*
D02*
G37*
G36*
X849Y-684D02*
X832D01*
Y-700D01*
X836Y-700D01*
X843Y-695D01*
X848Y-688D01*
X849Y-684D01*
D02*
G37*
G36*
X822D02*
X806D01*
X807Y-688D01*
X812Y-695D01*
X819Y-700D01*
X822Y-700D01*
Y-684D01*
D02*
G37*
G36*
X790D02*
X774D01*
Y-700D01*
X778Y-700D01*
X785Y-695D01*
X790Y-688D01*
X790Y-684D01*
D02*
G37*
G36*
X764D02*
X748D01*
X748Y-688D01*
X753Y-695D01*
X760Y-700D01*
X764Y-700D01*
Y-684D01*
D02*
G37*
G36*
X1074Y-689D02*
X1058D01*
X1058Y-693D01*
X1063Y-700D01*
X1070Y-705D01*
X1074Y-705D01*
Y-689D01*
D02*
G37*
G36*
X367Y-803D02*
X360Y-804D01*
X355Y-808D01*
X351Y-813D01*
X350Y-820D01*
X351Y-827D01*
X355Y-832D01*
X360Y-836D01*
X367Y-837D01*
X374Y-836D01*
X379Y-832D01*
X383Y-827D01*
X384Y-820D01*
X383Y-813D01*
X379Y-808D01*
X374Y-804D01*
X367Y-803D01*
D02*
G37*
G36*
X463Y-838D02*
Y-854D01*
X479D01*
X479Y-850D01*
X474Y-843D01*
X467Y-838D01*
X463Y-838D01*
D02*
G37*
G36*
X453D02*
X449Y-838D01*
X442Y-843D01*
X437Y-850D01*
X437Y-854D01*
X453D01*
Y-838D01*
D02*
G37*
G36*
X397Y-840D02*
X390Y-841D01*
X385Y-845D01*
X381Y-850D01*
X380Y-857D01*
X381Y-864D01*
X385Y-869D01*
X390Y-873D01*
X397Y-874D01*
X404Y-873D01*
X409Y-869D01*
X413Y-864D01*
X414Y-857D01*
X413Y-850D01*
X409Y-845D01*
X404Y-841D01*
X397Y-840D01*
D02*
G37*
G36*
X479Y-864D02*
X463D01*
Y-880D01*
X467Y-880D01*
X474Y-875D01*
X479Y-868D01*
X479Y-864D01*
D02*
G37*
G36*
X453D02*
X437D01*
X437Y-868D01*
X442Y-875D01*
X449Y-880D01*
X453Y-880D01*
Y-864D01*
D02*
G37*
G36*
X1005Y-859D02*
Y-895D01*
X1041D01*
X1040Y-889D01*
X1036Y-879D01*
X1030Y-870D01*
X1021Y-864D01*
X1011Y-860D01*
X1005Y-859D01*
D02*
G37*
G36*
X105D02*
Y-895D01*
X141D01*
X140Y-889D01*
X136Y-879D01*
X130Y-870D01*
X121Y-864D01*
X111Y-860D01*
X105Y-859D01*
D02*
G37*
G36*
X995Y-859D02*
X989Y-860D01*
X979Y-864D01*
X970Y-870D01*
X964Y-879D01*
X960Y-889D01*
X959Y-895D01*
X995D01*
Y-859D01*
D02*
G37*
G36*
X95D02*
X89Y-860D01*
X79Y-864D01*
X70Y-870D01*
X64Y-879D01*
X60Y-889D01*
X59Y-895D01*
X95D01*
Y-859D01*
D02*
G37*
G36*
X813Y-892D02*
X807Y-893D01*
X802Y-896D01*
X799Y-901D01*
X798Y-907D01*
X799Y-913D01*
X802Y-918D01*
X807Y-921D01*
X813Y-922D01*
X819Y-921D01*
X824Y-918D01*
X827Y-913D01*
X828Y-907D01*
X827Y-901D01*
X824Y-896D01*
X819Y-893D01*
X813Y-892D01*
D02*
G37*
G36*
X1041Y-905D02*
X1005D01*
Y-941D01*
X1011Y-940D01*
X1021Y-936D01*
X1030Y-930D01*
X1036Y-921D01*
X1040Y-911D01*
X1041Y-905D01*
D02*
G37*
G36*
X141D02*
X105D01*
Y-941D01*
X111Y-940D01*
X121Y-936D01*
X130Y-930D01*
X136Y-921D01*
X140Y-911D01*
X141Y-905D01*
D02*
G37*
G36*
X995D02*
X959D01*
X960Y-911D01*
X964Y-921D01*
X970Y-930D01*
X979Y-936D01*
X989Y-940D01*
X995Y-941D01*
Y-905D01*
D02*
G37*
G36*
X95D02*
X59D01*
X60Y-911D01*
X64Y-921D01*
X70Y-930D01*
X79Y-936D01*
X89Y-940D01*
X95Y-941D01*
Y-905D01*
D02*
G37*
G36*
X398Y-957D02*
X391Y-958D01*
X386Y-962D01*
X382Y-967D01*
X381Y-974D01*
X382Y-981D01*
X386Y-986D01*
X391Y-990D01*
X398Y-991D01*
X405Y-990D01*
X410Y-986D01*
X414Y-981D01*
X415Y-974D01*
X414Y-967D01*
X410Y-962D01*
X405Y-958D01*
X398Y-957D01*
D02*
G37*
G36*
X775Y-998D02*
X768Y-999D01*
X763Y-1003D01*
X759Y-1008D01*
X758Y-1015D01*
X759Y-1022D01*
X763Y-1027D01*
X768Y-1031D01*
X775Y-1032D01*
X782Y-1031D01*
X787Y-1027D01*
X791Y-1022D01*
X792Y-1015D01*
X791Y-1008D01*
X787Y-1003D01*
X782Y-999D01*
X775Y-998D01*
D02*
G37*
G36*
X1000Y-963D02*
X990Y-964D01*
X982Y-968D01*
X974Y-974D01*
X968Y-982D01*
X964Y-990D01*
X963Y-1000D01*
X964Y-1010D01*
X968Y-1018D01*
X974Y-1026D01*
X982Y-1032D01*
X990Y-1036D01*
X1000Y-1037D01*
X1010Y-1036D01*
X1018Y-1032D01*
X1026Y-1026D01*
X1032Y-1018D01*
X1036Y-1010D01*
X1037Y-1000D01*
X1036Y-990D01*
X1032Y-982D01*
X1026Y-974D01*
X1018Y-968D01*
X1010Y-964D01*
X1000Y-963D01*
D02*
G37*
G36*
X100D02*
X90Y-964D01*
X82Y-968D01*
X74Y-974D01*
X68Y-982D01*
X64Y-990D01*
X63Y-1000D01*
X64Y-1010D01*
X68Y-1018D01*
X74Y-1026D01*
X82Y-1032D01*
X90Y-1036D01*
X100Y-1037D01*
X110Y-1036D01*
X118Y-1032D01*
X126Y-1026D01*
X132Y-1018D01*
X136Y-1010D01*
X137Y-1000D01*
X136Y-990D01*
X132Y-982D01*
X126Y-974D01*
X118Y-968D01*
X110Y-964D01*
X100Y-963D01*
D02*
G37*
G36*
X607Y-1025D02*
Y-1041D01*
X623D01*
X623Y-1037D01*
X618Y-1030D01*
X611Y-1025D01*
X607Y-1025D01*
D02*
G37*
G36*
X597D02*
X593Y-1025D01*
X586Y-1030D01*
X581Y-1037D01*
X581Y-1041D01*
X597D01*
Y-1025D01*
D02*
G37*
G36*
X694Y-1041D02*
Y-1057D01*
X710D01*
X710Y-1053D01*
X705Y-1046D01*
X698Y-1041D01*
X694Y-1041D01*
D02*
G37*
G36*
X684D02*
X680Y-1041D01*
X673Y-1046D01*
X668Y-1053D01*
X668Y-1057D01*
X684D01*
Y-1041D01*
D02*
G37*
G36*
X623Y-1051D02*
X607D01*
Y-1067D01*
X611Y-1067D01*
X618Y-1062D01*
X623Y-1055D01*
X623Y-1051D01*
D02*
G37*
G36*
X597D02*
X581D01*
X581Y-1055D01*
X586Y-1062D01*
X593Y-1067D01*
X597Y-1067D01*
Y-1051D01*
D02*
G37*
G36*
X710Y-1067D02*
X694D01*
Y-1083D01*
X698Y-1083D01*
X705Y-1078D01*
X710Y-1071D01*
X710Y-1067D01*
D02*
G37*
G36*
X684D02*
X668D01*
X668Y-1071D01*
X673Y-1078D01*
X680Y-1083D01*
X684Y-1083D01*
Y-1067D01*
D02*
G37*
G36*
X834Y-1102D02*
Y-1118D01*
X850D01*
X850Y-1114D01*
X845Y-1107D01*
X838Y-1102D01*
X834Y-1102D01*
D02*
G37*
G36*
X824D02*
X820Y-1102D01*
X813Y-1107D01*
X808Y-1114D01*
X808Y-1118D01*
X824D01*
Y-1102D01*
D02*
G37*
G36*
X1000Y-1063D02*
X990Y-1064D01*
X982Y-1068D01*
X974Y-1074D01*
X968Y-1082D01*
X964Y-1090D01*
X963Y-1100D01*
X964Y-1110D01*
X968Y-1118D01*
X974Y-1126D01*
X982Y-1132D01*
X990Y-1136D01*
X1000Y-1137D01*
X1010Y-1136D01*
X1018Y-1132D01*
X1026Y-1126D01*
X1032Y-1118D01*
X1036Y-1110D01*
X1037Y-1100D01*
X1036Y-1090D01*
X1032Y-1082D01*
X1026Y-1074D01*
X1018Y-1068D01*
X1010Y-1064D01*
X1000Y-1063D01*
D02*
G37*
G36*
X100D02*
X90Y-1064D01*
X82Y-1068D01*
X74Y-1074D01*
X68Y-1082D01*
X64Y-1090D01*
X63Y-1100D01*
X64Y-1110D01*
X68Y-1118D01*
X74Y-1126D01*
X82Y-1132D01*
X90Y-1136D01*
X100Y-1137D01*
X110Y-1136D01*
X118Y-1132D01*
X126Y-1126D01*
X132Y-1118D01*
X136Y-1110D01*
X137Y-1100D01*
X136Y-1090D01*
X132Y-1082D01*
X126Y-1074D01*
X118Y-1068D01*
X110Y-1064D01*
X100Y-1063D01*
D02*
G37*
G36*
X772Y-1103D02*
X765Y-1104D01*
X760Y-1108D01*
X756Y-1113D01*
X755Y-1120D01*
X756Y-1127D01*
X760Y-1132D01*
X765Y-1136D01*
X772Y-1137D01*
X779Y-1136D01*
X784Y-1132D01*
X788Y-1127D01*
X789Y-1120D01*
X788Y-1113D01*
X784Y-1108D01*
X779Y-1104D01*
X772Y-1103D01*
D02*
G37*
G36*
X267Y-1125D02*
Y-1141D01*
X283D01*
X283Y-1137D01*
X278Y-1130D01*
X271Y-1125D01*
X267Y-1125D01*
D02*
G37*
G36*
X257D02*
X253Y-1125D01*
X246Y-1130D01*
X241Y-1137D01*
X241Y-1141D01*
X257D01*
Y-1125D01*
D02*
G37*
G36*
X850Y-1128D02*
X834D01*
Y-1144D01*
X838Y-1144D01*
X845Y-1139D01*
X850Y-1132D01*
X850Y-1128D01*
D02*
G37*
G36*
X824D02*
X808D01*
X808Y-1132D01*
X813Y-1139D01*
X820Y-1144D01*
X824Y-1144D01*
Y-1128D01*
D02*
G37*
G36*
X283Y-1151D02*
X267D01*
Y-1167D01*
X271Y-1167D01*
X278Y-1162D01*
X283Y-1155D01*
X283Y-1151D01*
D02*
G37*
G36*
X257D02*
X241D01*
X241Y-1155D01*
X246Y-1162D01*
X253Y-1167D01*
X257Y-1167D01*
Y-1151D01*
D02*
G37*
G36*
X596Y-1146D02*
X589Y-1147D01*
X584Y-1151D01*
X580Y-1157D01*
X579Y-1163D01*
X580Y-1170D01*
X584Y-1175D01*
X589Y-1179D01*
X596Y-1180D01*
X602Y-1179D01*
X608Y-1175D01*
X612Y-1170D01*
X613Y-1163D01*
X612Y-1157D01*
X608Y-1151D01*
X602Y-1147D01*
X596Y-1146D01*
D02*
G37*
G36*
X716Y-1188D02*
X709Y-1189D01*
X704Y-1193D01*
X700Y-1198D01*
X699Y-1205D01*
X700Y-1212D01*
X704Y-1217D01*
X709Y-1221D01*
X716Y-1222D01*
X723Y-1221D01*
X728Y-1217D01*
X732Y-1212D01*
X733Y-1205D01*
X732Y-1198D01*
X728Y-1193D01*
X723Y-1189D01*
X716Y-1188D01*
D02*
G37*
G36*
X423Y-1206D02*
X417Y-1207D01*
X412Y-1210D01*
X409Y-1215D01*
X408Y-1221D01*
X409Y-1227D01*
X412Y-1232D01*
X417Y-1235D01*
X423Y-1236D01*
X429Y-1235D01*
X434Y-1232D01*
X437Y-1227D01*
X438Y-1221D01*
X437Y-1215D01*
X434Y-1210D01*
X429Y-1207D01*
X423Y-1206D01*
D02*
G37*
G36*
X1000Y-1163D02*
X990Y-1164D01*
X982Y-1168D01*
X974Y-1174D01*
X968Y-1182D01*
X964Y-1190D01*
X963Y-1200D01*
X964Y-1210D01*
X968Y-1218D01*
X974Y-1226D01*
X982Y-1232D01*
X990Y-1236D01*
X1000Y-1237D01*
X1010Y-1236D01*
X1018Y-1232D01*
X1026Y-1226D01*
X1032Y-1218D01*
X1036Y-1210D01*
X1037Y-1200D01*
X1036Y-1190D01*
X1032Y-1182D01*
X1026Y-1174D01*
X1018Y-1168D01*
X1010Y-1164D01*
X1000Y-1163D01*
D02*
G37*
G36*
X100D02*
X90Y-1164D01*
X82Y-1168D01*
X74Y-1174D01*
X68Y-1182D01*
X64Y-1190D01*
X63Y-1200D01*
X64Y-1210D01*
X68Y-1218D01*
X74Y-1226D01*
X82Y-1232D01*
X90Y-1236D01*
X100Y-1237D01*
X110Y-1236D01*
X118Y-1232D01*
X126Y-1226D01*
X132Y-1218D01*
X136Y-1210D01*
X137Y-1200D01*
X136Y-1190D01*
X132Y-1182D01*
X126Y-1174D01*
X118Y-1168D01*
X110Y-1164D01*
X100Y-1163D01*
D02*
G37*
G36*
X659Y-1218D02*
X653Y-1219D01*
X648Y-1222D01*
X645Y-1227D01*
X644Y-1233D01*
X645Y-1238D01*
X648Y-1243D01*
X653Y-1247D01*
X659Y-1248D01*
X665Y-1247D01*
X670Y-1243D01*
X673Y-1238D01*
X674Y-1233D01*
X673Y-1227D01*
X670Y-1222D01*
X665Y-1219D01*
X659Y-1218D01*
D02*
G37*
G36*
X560Y-1315D02*
Y-1331D01*
X576D01*
X576Y-1327D01*
X571Y-1320D01*
X564Y-1315D01*
X560Y-1315D01*
D02*
G37*
G36*
X550D02*
X546Y-1315D01*
X539Y-1320D01*
X534Y-1327D01*
X534Y-1331D01*
X550D01*
Y-1315D01*
D02*
G37*
G36*
X680Y-1320D02*
Y-1336D01*
X696D01*
X696Y-1332D01*
X691Y-1325D01*
X684Y-1320D01*
X680Y-1320D01*
D02*
G37*
G36*
X670D02*
X666Y-1320D01*
X659Y-1325D01*
X654Y-1332D01*
X654Y-1336D01*
X670D01*
Y-1320D01*
D02*
G37*
G36*
X1000Y-1263D02*
X990Y-1264D01*
X982Y-1268D01*
X974Y-1274D01*
X968Y-1282D01*
X964Y-1290D01*
X963Y-1300D01*
X964Y-1310D01*
X968Y-1318D01*
X974Y-1326D01*
X982Y-1332D01*
X990Y-1336D01*
X1000Y-1337D01*
X1010Y-1336D01*
X1018Y-1332D01*
X1026Y-1326D01*
X1032Y-1318D01*
X1036Y-1310D01*
X1037Y-1300D01*
X1036Y-1290D01*
X1032Y-1282D01*
X1026Y-1274D01*
X1018Y-1268D01*
X1010Y-1264D01*
X1000Y-1263D01*
D02*
G37*
G36*
X100D02*
X90Y-1264D01*
X82Y-1268D01*
X74Y-1274D01*
X68Y-1282D01*
X64Y-1290D01*
X63Y-1300D01*
X64Y-1310D01*
X68Y-1318D01*
X74Y-1326D01*
X82Y-1332D01*
X90Y-1336D01*
X100Y-1337D01*
X110Y-1336D01*
X118Y-1332D01*
X126Y-1326D01*
X132Y-1318D01*
X136Y-1310D01*
X137Y-1300D01*
X136Y-1290D01*
X132Y-1282D01*
X126Y-1274D01*
X118Y-1268D01*
X110Y-1264D01*
X100Y-1263D01*
D02*
G37*
G36*
X576Y-1341D02*
X534D01*
X534Y-1345D01*
X539Y-1352D01*
X539Y-1358D01*
X535Y-1360D01*
X530Y-1367D01*
X530Y-1371D01*
X572D01*
X572Y-1367D01*
X567Y-1360D01*
X567Y-1354D01*
X571Y-1352D01*
X576Y-1345D01*
X576Y-1341D01*
D02*
G37*
G36*
X696Y-1346D02*
X654D01*
X654Y-1350D01*
X659Y-1357D01*
X666Y-1361D01*
X663Y-1365D01*
X662Y-1371D01*
X663Y-1377D01*
X666Y-1382D01*
X671Y-1385D01*
X677Y-1386D01*
X683Y-1385D01*
X688Y-1382D01*
X691Y-1377D01*
X692Y-1371D01*
X691Y-1365D01*
X688Y-1360D01*
X691Y-1357D01*
X691Y-1357D01*
X691Y-1357D01*
X696Y-1350D01*
X696Y-1346D01*
D02*
G37*
G36*
X402Y-1363D02*
X396Y-1364D01*
X391Y-1367D01*
X388Y-1372D01*
X387Y-1378D01*
X388Y-1384D01*
X391Y-1388D01*
X396Y-1392D01*
X402Y-1393D01*
X408Y-1392D01*
X413Y-1388D01*
X416Y-1384D01*
X417Y-1378D01*
X416Y-1372D01*
X413Y-1367D01*
X408Y-1364D01*
X402Y-1363D01*
D02*
G37*
G36*
X572Y-1381D02*
X556D01*
Y-1397D01*
X560Y-1397D01*
X567Y-1392D01*
X572Y-1385D01*
X572Y-1381D01*
D02*
G37*
G36*
X546D02*
X530D01*
X530Y-1385D01*
X535Y-1392D01*
X542Y-1397D01*
X546Y-1397D01*
Y-1381D01*
D02*
G37*
G36*
X1000Y-1363D02*
X990Y-1364D01*
X982Y-1368D01*
X974Y-1374D01*
X968Y-1382D01*
X964Y-1390D01*
X963Y-1400D01*
X964Y-1410D01*
X968Y-1418D01*
X974Y-1426D01*
X982Y-1432D01*
X990Y-1436D01*
X1000Y-1437D01*
X1010Y-1436D01*
X1018Y-1432D01*
X1026Y-1426D01*
X1032Y-1418D01*
X1036Y-1410D01*
X1037Y-1400D01*
X1036Y-1390D01*
X1032Y-1382D01*
X1026Y-1374D01*
X1018Y-1368D01*
X1010Y-1364D01*
X1000Y-1363D01*
D02*
G37*
G36*
X100D02*
X90Y-1364D01*
X82Y-1368D01*
X74Y-1374D01*
X68Y-1382D01*
X64Y-1390D01*
X63Y-1400D01*
X64Y-1410D01*
X68Y-1418D01*
X74Y-1426D01*
X82Y-1432D01*
X90Y-1436D01*
X100Y-1437D01*
X110Y-1436D01*
X118Y-1432D01*
X126Y-1426D01*
X132Y-1418D01*
X136Y-1410D01*
X137Y-1400D01*
X136Y-1390D01*
X132Y-1382D01*
X126Y-1374D01*
X118Y-1368D01*
X110Y-1364D01*
X100Y-1363D01*
D02*
G37*
G36*
X600Y-1406D02*
X593Y-1407D01*
X588Y-1411D01*
X584Y-1416D01*
X583Y-1423D01*
X584Y-1430D01*
X588Y-1435D01*
X593Y-1439D01*
X600Y-1440D01*
X607Y-1439D01*
X612Y-1435D01*
X616Y-1430D01*
X617Y-1423D01*
X616Y-1416D01*
X612Y-1411D01*
X607Y-1407D01*
X600Y-1406D01*
D02*
G37*
G36*
X521Y-1419D02*
X515Y-1420D01*
X510Y-1423D01*
X507Y-1428D01*
X506Y-1434D01*
X507Y-1440D01*
X510Y-1445D01*
X515Y-1448D01*
X521Y-1449D01*
X527Y-1448D01*
X532Y-1445D01*
X535Y-1440D01*
X536Y-1434D01*
X535Y-1428D01*
X532Y-1423D01*
X527Y-1420D01*
X521Y-1419D01*
D02*
G37*
G36*
X149Y-1232D02*
X143Y-1233D01*
X138Y-1236D01*
X135Y-1241D01*
X134Y-1247D01*
X135Y-1253D01*
X138Y-1258D01*
X143Y-1261D01*
X145Y-1261D01*
X149Y-1263D01*
X148Y-1267D01*
X148Y-1269D01*
X149Y-1275D01*
X152Y-1280D01*
X157Y-1283D01*
X163Y-1284D01*
X165Y-1284D01*
X169Y-1288D01*
X169Y-1289D01*
X170Y-1295D01*
X173Y-1300D01*
X178Y-1303D01*
X184Y-1304D01*
X187Y-1304D01*
X191Y-1308D01*
X191Y-1308D01*
X192Y-1314D01*
X195Y-1319D01*
X200Y-1322D01*
X206Y-1323D01*
X207Y-1323D01*
X212Y-1325D01*
X213Y-1331D01*
X216Y-1336D01*
X221Y-1339D01*
X224Y-1339D01*
X227Y-1341D01*
X227Y-1345D01*
X227Y-1347D01*
X228Y-1353D01*
X231Y-1358D01*
X236Y-1361D01*
X241Y-1362D01*
X242Y-1362D01*
X244Y-1367D01*
X244Y-1369D01*
X245Y-1375D01*
X248Y-1380D01*
X253Y-1383D01*
X259Y-1384D01*
X260Y-1384D01*
X264Y-1388D01*
X264Y-1389D01*
X265Y-1395D01*
X268Y-1400D01*
X273Y-1403D01*
X274Y-1403D01*
X278Y-1406D01*
X278Y-1409D01*
X277Y-1412D01*
X278Y-1418D01*
X281Y-1423D01*
X286Y-1426D01*
X288Y-1426D01*
X291Y-1431D01*
X290Y-1437D01*
X291Y-1443D01*
X294Y-1448D01*
X299Y-1451D01*
X305Y-1452D01*
X311Y-1451D01*
X315Y-1448D01*
X316Y-1448D01*
X321Y-1449D01*
X323Y-1452D01*
X328Y-1455D01*
X334Y-1456D01*
X340Y-1455D01*
X345Y-1452D01*
X348Y-1447D01*
X349Y-1441D01*
X348Y-1435D01*
X345Y-1430D01*
X340Y-1427D01*
X334Y-1426D01*
X328Y-1427D01*
X324Y-1430D01*
X323Y-1430D01*
X318Y-1429D01*
X316Y-1426D01*
X311Y-1423D01*
X309Y-1423D01*
X306Y-1418D01*
X307Y-1412D01*
X306Y-1406D01*
X303Y-1401D01*
X298Y-1398D01*
X297Y-1398D01*
X293Y-1395D01*
X293Y-1392D01*
X294Y-1389D01*
X293Y-1383D01*
X290Y-1378D01*
X285Y-1375D01*
X279Y-1374D01*
X278Y-1374D01*
X274Y-1370D01*
X274Y-1369D01*
X273Y-1363D01*
X270Y-1358D01*
X265Y-1355D01*
X260Y-1354D01*
X259Y-1354D01*
X257Y-1349D01*
X257Y-1347D01*
X256Y-1341D01*
X253Y-1336D01*
X248Y-1333D01*
X245Y-1333D01*
X242Y-1331D01*
X242Y-1327D01*
X242Y-1325D01*
X241Y-1319D01*
X238Y-1314D01*
X233Y-1311D01*
X227Y-1310D01*
X226Y-1310D01*
X221Y-1308D01*
X220Y-1302D01*
X217Y-1297D01*
X212Y-1294D01*
X206Y-1293D01*
X203Y-1293D01*
X199Y-1289D01*
X199Y-1289D01*
X198Y-1283D01*
X195Y-1278D01*
X190Y-1275D01*
X184Y-1274D01*
X182Y-1274D01*
X178Y-1270D01*
X178Y-1269D01*
X177Y-1263D01*
X174Y-1258D01*
X169Y-1255D01*
X167Y-1255D01*
X163Y-1253D01*
X164Y-1249D01*
X164Y-1247D01*
X163Y-1241D01*
X160Y-1236D01*
X155Y-1233D01*
X149Y-1232D01*
D02*
G37*
G36*
X742Y-1454D02*
Y-1470D01*
X758D01*
X758Y-1466D01*
X753Y-1459D01*
X746Y-1454D01*
X742Y-1454D01*
D02*
G37*
G36*
X732D02*
X728Y-1454D01*
X721Y-1459D01*
X716Y-1466D01*
X716Y-1470D01*
X732D01*
Y-1454D01*
D02*
G37*
G36*
X374Y-1458D02*
X368Y-1459D01*
X363Y-1462D01*
X360Y-1467D01*
X359Y-1473D01*
X360Y-1479D01*
X363Y-1484D01*
X368Y-1487D01*
X374Y-1488D01*
X380Y-1487D01*
X385Y-1484D01*
X388Y-1479D01*
X389Y-1473D01*
X388Y-1467D01*
X385Y-1462D01*
X380Y-1459D01*
X374Y-1458D01*
D02*
G37*
G36*
X331Y-1466D02*
X325Y-1467D01*
X320Y-1470D01*
X317Y-1475D01*
X316Y-1481D01*
X317Y-1487D01*
X320Y-1492D01*
X325Y-1495D01*
X331Y-1496D01*
X337Y-1495D01*
X342Y-1492D01*
X345Y-1487D01*
X346Y-1481D01*
X345Y-1475D01*
X342Y-1470D01*
X337Y-1467D01*
X331Y-1466D01*
D02*
G37*
G36*
X758Y-1480D02*
X742D01*
Y-1496D01*
X746Y-1496D01*
X753Y-1491D01*
X758Y-1484D01*
X758Y-1480D01*
D02*
G37*
G36*
X732D02*
X716D01*
X716Y-1484D01*
X721Y-1491D01*
X728Y-1496D01*
X732Y-1496D01*
Y-1480D01*
D02*
G37*
G36*
X401Y-1483D02*
X395Y-1484D01*
X390Y-1487D01*
X387Y-1492D01*
X386Y-1498D01*
X387Y-1504D01*
X390Y-1509D01*
X395Y-1512D01*
X401Y-1513D01*
X407Y-1512D01*
X412Y-1509D01*
X415Y-1504D01*
X416Y-1498D01*
X415Y-1492D01*
X412Y-1487D01*
X407Y-1484D01*
X401Y-1483D01*
D02*
G37*
G36*
X607Y-1499D02*
X601Y-1500D01*
X596Y-1503D01*
X593Y-1508D01*
X592Y-1514D01*
X593Y-1520D01*
X596Y-1525D01*
X601Y-1528D01*
X607Y-1529D01*
X613Y-1528D01*
X618Y-1525D01*
X621Y-1520D01*
X622Y-1514D01*
X621Y-1508D01*
X618Y-1503D01*
X613Y-1500D01*
X607Y-1499D01*
D02*
G37*
G36*
X1000Y-1463D02*
X990Y-1464D01*
X982Y-1468D01*
X974Y-1474D01*
X968Y-1482D01*
X964Y-1490D01*
X963Y-1500D01*
X964Y-1510D01*
X968Y-1518D01*
X974Y-1526D01*
X982Y-1532D01*
X990Y-1536D01*
X1000Y-1537D01*
X1010Y-1536D01*
X1018Y-1532D01*
X1026Y-1526D01*
X1032Y-1518D01*
X1036Y-1510D01*
X1037Y-1500D01*
X1036Y-1490D01*
X1032Y-1482D01*
X1026Y-1474D01*
X1018Y-1468D01*
X1010Y-1464D01*
X1000Y-1463D01*
D02*
G37*
G36*
X100D02*
X90Y-1464D01*
X82Y-1468D01*
X74Y-1474D01*
X68Y-1482D01*
X64Y-1490D01*
X63Y-1500D01*
X64Y-1510D01*
X68Y-1518D01*
X74Y-1526D01*
X82Y-1532D01*
X90Y-1536D01*
X100Y-1537D01*
X110Y-1536D01*
X118Y-1532D01*
X126Y-1526D01*
X132Y-1518D01*
X136Y-1510D01*
X137Y-1500D01*
X136Y-1490D01*
X132Y-1482D01*
X126Y-1474D01*
X118Y-1468D01*
X110Y-1464D01*
X100Y-1463D01*
D02*
G37*
G36*
X677Y-1509D02*
X671Y-1510D01*
X667Y-1513D01*
X663Y-1518D01*
X662Y-1524D01*
X663Y-1530D01*
X667Y-1534D01*
X671Y-1538D01*
X677Y-1539D01*
X683Y-1538D01*
X688Y-1534D01*
X691Y-1530D01*
X692Y-1524D01*
X691Y-1518D01*
X688Y-1513D01*
X683Y-1510D01*
X677Y-1509D01*
D02*
G37*
G36*
X298Y-1512D02*
X292Y-1513D01*
X287Y-1516D01*
X284Y-1521D01*
X283Y-1527D01*
X284Y-1533D01*
X287Y-1538D01*
X292Y-1541D01*
X298Y-1542D01*
X304Y-1541D01*
X309Y-1538D01*
X312Y-1533D01*
X313Y-1527D01*
X312Y-1521D01*
X309Y-1516D01*
X304Y-1513D01*
X298Y-1512D01*
D02*
G37*
G36*
X637Y-1518D02*
X631Y-1519D01*
X627Y-1522D01*
X623Y-1527D01*
X622Y-1533D01*
X623Y-1539D01*
X627Y-1543D01*
X631Y-1547D01*
X637Y-1548D01*
X643Y-1547D01*
X648Y-1543D01*
X651Y-1539D01*
X652Y-1533D01*
X651Y-1527D01*
X648Y-1522D01*
X643Y-1519D01*
X637Y-1518D01*
D02*
G37*
G36*
X278Y-1579D02*
X272Y-1580D01*
X267Y-1583D01*
X264Y-1588D01*
X263Y-1594D01*
X264Y-1600D01*
X267Y-1605D01*
X272Y-1608D01*
X278Y-1609D01*
X284Y-1608D01*
X289Y-1605D01*
X292Y-1600D01*
X293Y-1594D01*
X292Y-1588D01*
X289Y-1583D01*
X284Y-1580D01*
X278Y-1579D01*
D02*
G37*
G36*
X1000Y-1563D02*
X990Y-1564D01*
X982Y-1568D01*
X974Y-1574D01*
X968Y-1582D01*
X964Y-1590D01*
X963Y-1600D01*
X964Y-1610D01*
X968Y-1618D01*
X974Y-1626D01*
X982Y-1632D01*
X990Y-1636D01*
X1000Y-1637D01*
X1010Y-1636D01*
X1018Y-1632D01*
X1026Y-1626D01*
X1032Y-1618D01*
X1036Y-1610D01*
X1037Y-1600D01*
X1036Y-1590D01*
X1032Y-1582D01*
X1026Y-1574D01*
X1018Y-1568D01*
X1010Y-1564D01*
X1000Y-1563D01*
D02*
G37*
G36*
X100D02*
X90Y-1564D01*
X82Y-1568D01*
X74Y-1574D01*
X68Y-1582D01*
X64Y-1590D01*
X63Y-1600D01*
X64Y-1610D01*
X68Y-1618D01*
X74Y-1626D01*
X82Y-1632D01*
X90Y-1636D01*
X100Y-1637D01*
X110Y-1636D01*
X118Y-1632D01*
X126Y-1626D01*
X132Y-1618D01*
X136Y-1610D01*
X137Y-1600D01*
X136Y-1590D01*
X132Y-1582D01*
X126Y-1574D01*
X118Y-1568D01*
X110Y-1564D01*
X100Y-1563D01*
D02*
G37*
G36*
X700Y-1689D02*
Y-1705D01*
X716D01*
X716Y-1701D01*
X711Y-1694D01*
X704Y-1689D01*
X700Y-1689D01*
D02*
G37*
G36*
X690D02*
X686Y-1689D01*
X679Y-1694D01*
X674Y-1701D01*
X674Y-1705D01*
X690D01*
Y-1689D01*
D02*
G37*
G36*
X443Y-1694D02*
Y-1710D01*
X459D01*
X459Y-1706D01*
X454Y-1699D01*
X447Y-1694D01*
X443Y-1694D01*
D02*
G37*
G36*
X433D02*
X429Y-1694D01*
X422Y-1699D01*
X417Y-1706D01*
X417Y-1710D01*
X433D01*
Y-1694D01*
D02*
G37*
G36*
X268Y-1686D02*
X262Y-1687D01*
X257Y-1690D01*
X254Y-1695D01*
X253Y-1701D01*
X254Y-1707D01*
X257Y-1712D01*
X262Y-1715D01*
X268Y-1716D01*
X274Y-1715D01*
X279Y-1712D01*
X282Y-1707D01*
X283Y-1701D01*
X282Y-1695D01*
X279Y-1690D01*
X274Y-1687D01*
X268Y-1686D01*
D02*
G37*
G36*
X716Y-1715D02*
X700D01*
Y-1731D01*
X704Y-1731D01*
X711Y-1726D01*
X716Y-1719D01*
X716Y-1715D01*
D02*
G37*
G36*
X690D02*
X674D01*
X674Y-1719D01*
X679Y-1726D01*
X686Y-1731D01*
X690Y-1731D01*
Y-1715D01*
D02*
G37*
G36*
X459Y-1720D02*
X443D01*
Y-1736D01*
X447Y-1736D01*
X454Y-1731D01*
X459Y-1724D01*
X459Y-1720D01*
D02*
G37*
G36*
X433D02*
X417D01*
X417Y-1724D01*
X422Y-1731D01*
X429Y-1736D01*
X433Y-1736D01*
Y-1720D01*
D02*
G37*
G36*
X1000Y-1663D02*
X990Y-1664D01*
X982Y-1668D01*
X974Y-1674D01*
X968Y-1682D01*
X964Y-1690D01*
X963Y-1700D01*
X964Y-1710D01*
X968Y-1718D01*
X974Y-1726D01*
X982Y-1732D01*
X990Y-1736D01*
X1000Y-1737D01*
X1010Y-1736D01*
X1018Y-1732D01*
X1026Y-1726D01*
X1032Y-1718D01*
X1036Y-1710D01*
X1037Y-1700D01*
X1036Y-1690D01*
X1032Y-1682D01*
X1026Y-1674D01*
X1018Y-1668D01*
X1010Y-1664D01*
X1000Y-1663D01*
D02*
G37*
G36*
X100D02*
X90Y-1664D01*
X82Y-1668D01*
X74Y-1674D01*
X68Y-1682D01*
X64Y-1690D01*
X63Y-1700D01*
X64Y-1710D01*
X68Y-1718D01*
X74Y-1726D01*
X82Y-1732D01*
X90Y-1736D01*
X100Y-1737D01*
X110Y-1736D01*
X118Y-1732D01*
X126Y-1726D01*
X132Y-1718D01*
X136Y-1710D01*
X137Y-1700D01*
X136Y-1690D01*
X132Y-1682D01*
X126Y-1674D01*
X118Y-1668D01*
X110Y-1664D01*
X100Y-1663D01*
D02*
G37*
G36*
X246Y-1789D02*
X240Y-1790D01*
X235Y-1793D01*
X232Y-1798D01*
X231Y-1804D01*
X232Y-1810D01*
X235Y-1815D01*
X240Y-1818D01*
X246Y-1819D01*
X252Y-1818D01*
X257Y-1815D01*
X260Y-1810D01*
X261Y-1804D01*
X260Y-1798D01*
X257Y-1793D01*
X252Y-1790D01*
X246Y-1789D01*
D02*
G37*
G36*
X869Y-1756D02*
X859Y-1757D01*
X850Y-1761D01*
X842Y-1767D01*
X836Y-1775D01*
X832Y-1784D01*
X831Y-1794D01*
X832Y-1804D01*
X836Y-1813D01*
X842Y-1821D01*
X850Y-1827D01*
X859Y-1831D01*
X869Y-1832D01*
X879Y-1831D01*
X888Y-1827D01*
X896Y-1821D01*
X902Y-1813D01*
X906Y-1804D01*
X907Y-1794D01*
X906Y-1784D01*
X902Y-1775D01*
X896Y-1767D01*
X888Y-1761D01*
X879Y-1757D01*
X869Y-1756D01*
D02*
G37*
G36*
X769D02*
X759Y-1757D01*
X750Y-1761D01*
X742Y-1767D01*
X736Y-1775D01*
X732Y-1784D01*
X731Y-1794D01*
X732Y-1804D01*
X736Y-1813D01*
X742Y-1821D01*
X750Y-1827D01*
X759Y-1831D01*
X769Y-1832D01*
X779Y-1831D01*
X788Y-1827D01*
X796Y-1821D01*
X802Y-1813D01*
X806Y-1804D01*
X807Y-1794D01*
X806Y-1784D01*
X802Y-1775D01*
X796Y-1767D01*
X788Y-1761D01*
X779Y-1757D01*
X769Y-1756D01*
D02*
G37*
G36*
X1000Y-1763D02*
X990Y-1764D01*
X982Y-1768D01*
X974Y-1774D01*
X968Y-1782D01*
X964Y-1790D01*
X963Y-1800D01*
X964Y-1810D01*
X968Y-1818D01*
X974Y-1826D01*
X982Y-1832D01*
X990Y-1836D01*
X1000Y-1837D01*
X1010Y-1836D01*
X1018Y-1832D01*
X1026Y-1826D01*
X1032Y-1818D01*
X1036Y-1810D01*
X1037Y-1800D01*
X1036Y-1790D01*
X1032Y-1782D01*
X1026Y-1774D01*
X1018Y-1768D01*
X1010Y-1764D01*
X1000Y-1763D01*
D02*
G37*
G36*
X100D02*
X90Y-1764D01*
X82Y-1768D01*
X74Y-1774D01*
X68Y-1782D01*
X64Y-1790D01*
X63Y-1800D01*
X64Y-1810D01*
X68Y-1818D01*
X74Y-1826D01*
X82Y-1832D01*
X90Y-1836D01*
X100Y-1837D01*
X110Y-1836D01*
X118Y-1832D01*
X126Y-1826D01*
X132Y-1818D01*
X136Y-1810D01*
X137Y-1800D01*
X136Y-1790D01*
X132Y-1782D01*
X126Y-1774D01*
X118Y-1768D01*
X110Y-1764D01*
X100Y-1763D01*
D02*
G37*
G36*
X342Y-1849D02*
Y-1885D01*
X378D01*
X377Y-1879D01*
X373Y-1869D01*
X367Y-1860D01*
X358Y-1854D01*
X348Y-1850D01*
X342Y-1849D01*
D02*
G37*
G36*
X332Y-1849D02*
X326Y-1850D01*
X316Y-1854D01*
X307Y-1860D01*
X301Y-1869D01*
X297Y-1879D01*
X296Y-1885D01*
X332D01*
Y-1849D01*
D02*
G37*
G36*
X235Y-1886D02*
X229Y-1887D01*
X224Y-1890D01*
X221Y-1895D01*
X220Y-1901D01*
X221Y-1907D01*
X224Y-1912D01*
X229Y-1915D01*
X235Y-1916D01*
X241Y-1915D01*
X246Y-1912D01*
X249Y-1907D01*
X250Y-1901D01*
X249Y-1895D01*
X246Y-1890D01*
X241Y-1887D01*
X235Y-1886D01*
D02*
G37*
G36*
X537Y-1853D02*
X527Y-1854D01*
X519Y-1858D01*
X511Y-1864D01*
X505Y-1872D01*
X501Y-1880D01*
X500Y-1890D01*
X501Y-1900D01*
X505Y-1908D01*
X511Y-1916D01*
X519Y-1922D01*
X527Y-1926D01*
X537Y-1927D01*
X547Y-1926D01*
X555Y-1922D01*
X563Y-1916D01*
X569Y-1908D01*
X573Y-1900D01*
X574Y-1890D01*
X573Y-1880D01*
X569Y-1872D01*
X563Y-1864D01*
X555Y-1858D01*
X547Y-1854D01*
X537Y-1853D01*
D02*
G37*
G36*
X437D02*
X427Y-1854D01*
X419Y-1858D01*
X411Y-1864D01*
X405Y-1872D01*
X401Y-1880D01*
X400Y-1890D01*
X401Y-1900D01*
X405Y-1908D01*
X411Y-1916D01*
X419Y-1922D01*
X427Y-1926D01*
X437Y-1927D01*
X447Y-1926D01*
X455Y-1922D01*
X463Y-1916D01*
X469Y-1908D01*
X473Y-1900D01*
X474Y-1890D01*
X473Y-1880D01*
X469Y-1872D01*
X463Y-1864D01*
X455Y-1858D01*
X447Y-1854D01*
X437Y-1853D01*
D02*
G37*
G36*
X653Y-1853D02*
X621D01*
X613Y-1855D01*
X606Y-1859D01*
X602Y-1866D01*
X600Y-1874D01*
Y-1906D01*
X602Y-1914D01*
X606Y-1921D01*
X613Y-1925D01*
X621Y-1927D01*
X653D01*
X661Y-1925D01*
X668Y-1921D01*
X672Y-1914D01*
X674Y-1906D01*
Y-1874D01*
X672Y-1866D01*
X668Y-1859D01*
X661Y-1855D01*
X653Y-1853D01*
D02*
G37*
G36*
X378Y-1895D02*
X342D01*
Y-1931D01*
X348Y-1930D01*
X358Y-1926D01*
X367Y-1920D01*
X373Y-1911D01*
X377Y-1901D01*
X378Y-1895D01*
D02*
G37*
G36*
X332D02*
X296D01*
X297Y-1901D01*
X301Y-1911D01*
X307Y-1920D01*
X316Y-1926D01*
X326Y-1930D01*
X332Y-1931D01*
Y-1895D01*
D02*
G37*
G36*
X769Y-1856D02*
X759Y-1857D01*
X750Y-1861D01*
X742Y-1867D01*
X736Y-1875D01*
X732Y-1884D01*
X731Y-1894D01*
X732Y-1904D01*
X736Y-1913D01*
X742Y-1921D01*
X750Y-1927D01*
X759Y-1931D01*
X769Y-1932D01*
X779Y-1931D01*
X788Y-1927D01*
X796Y-1921D01*
X802Y-1913D01*
X806Y-1904D01*
X807Y-1894D01*
X806Y-1884D01*
X802Y-1875D01*
X796Y-1867D01*
X788Y-1861D01*
X779Y-1857D01*
X769Y-1856D01*
D02*
G37*
G36*
X885Y-1856D02*
X853D01*
X844Y-1858D01*
X837Y-1862D01*
X833Y-1869D01*
X831Y-1878D01*
Y-1910D01*
X833Y-1919D01*
X837Y-1926D01*
X844Y-1930D01*
X853Y-1932D01*
X885D01*
X894Y-1930D01*
X901Y-1926D01*
X905Y-1919D01*
X907Y-1910D01*
Y-1878D01*
X905Y-1869D01*
X901Y-1862D01*
X894Y-1858D01*
X885Y-1856D01*
D02*
G37*
G36*
X1000Y-1863D02*
X990Y-1864D01*
X982Y-1868D01*
X974Y-1874D01*
X968Y-1882D01*
X964Y-1890D01*
X963Y-1900D01*
X964Y-1910D01*
X968Y-1918D01*
X974Y-1926D01*
X982Y-1932D01*
X990Y-1936D01*
X1000Y-1937D01*
X1010Y-1936D01*
X1018Y-1932D01*
X1026Y-1926D01*
X1032Y-1918D01*
X1036Y-1910D01*
X1037Y-1900D01*
X1036Y-1890D01*
X1032Y-1882D01*
X1026Y-1874D01*
X1018Y-1868D01*
X1010Y-1864D01*
X1000Y-1863D01*
D02*
G37*
G36*
X100D02*
X90Y-1864D01*
X82Y-1868D01*
X74Y-1874D01*
X68Y-1882D01*
X64Y-1890D01*
X63Y-1900D01*
X64Y-1910D01*
X68Y-1918D01*
X74Y-1926D01*
X82Y-1932D01*
X90Y-1936D01*
X100Y-1937D01*
X110Y-1936D01*
X118Y-1932D01*
X126Y-1926D01*
X132Y-1918D01*
X136Y-1910D01*
X137Y-1900D01*
X136Y-1890D01*
X132Y-1882D01*
X126Y-1874D01*
X118Y-1868D01*
X110Y-1864D01*
X100Y-1863D01*
D02*
G37*
G36*
X211Y-1992D02*
X205Y-1993D01*
X200Y-1996D01*
X197Y-2001D01*
X196Y-2007D01*
X197Y-2013D01*
X200Y-2018D01*
X205Y-2021D01*
X211Y-2022D01*
X217Y-2021D01*
X222Y-2018D01*
X225Y-2013D01*
X226Y-2007D01*
X225Y-2001D01*
X222Y-1996D01*
X217Y-1993D01*
X211Y-1992D01*
D02*
G37*
G36*
X1000Y-1963D02*
X990Y-1964D01*
X982Y-1968D01*
X974Y-1974D01*
X968Y-1982D01*
X964Y-1990D01*
X963Y-2000D01*
X964Y-2010D01*
X968Y-2018D01*
X974Y-2026D01*
X982Y-2032D01*
X990Y-2036D01*
X1000Y-2037D01*
X1010Y-2036D01*
X1018Y-2032D01*
X1026Y-2026D01*
X1032Y-2018D01*
X1036Y-2010D01*
X1037Y-2000D01*
X1036Y-1990D01*
X1032Y-1982D01*
X1026Y-1974D01*
X1018Y-1968D01*
X1010Y-1964D01*
X1000Y-1963D01*
D02*
G37*
G36*
X100D02*
X90Y-1964D01*
X82Y-1968D01*
X74Y-1974D01*
X68Y-1982D01*
X64Y-1990D01*
X63Y-2000D01*
X64Y-2010D01*
X68Y-2018D01*
X74Y-2026D01*
X82Y-2032D01*
X90Y-2036D01*
X100Y-2037D01*
X110Y-2036D01*
X118Y-2032D01*
X126Y-2026D01*
X132Y-2018D01*
X136Y-2010D01*
X137Y-2000D01*
X136Y-1990D01*
X132Y-1982D01*
X126Y-1974D01*
X118Y-1968D01*
X110Y-1964D01*
X100Y-1963D01*
D02*
G37*
G36*
X190Y-2085D02*
X184Y-2086D01*
X179Y-2089D01*
X176Y-2094D01*
X175Y-2100D01*
X176Y-2106D01*
X179Y-2111D01*
X184Y-2114D01*
X190Y-2115D01*
X196Y-2114D01*
X201Y-2111D01*
X204Y-2106D01*
X205Y-2100D01*
X204Y-2094D01*
X201Y-2089D01*
X196Y-2086D01*
X190Y-2085D01*
D02*
G37*
G36*
X1000Y-2063D02*
X990Y-2064D01*
X982Y-2068D01*
X974Y-2074D01*
X968Y-2082D01*
X964Y-2090D01*
X963Y-2100D01*
X964Y-2110D01*
X968Y-2118D01*
X974Y-2126D01*
X982Y-2132D01*
X990Y-2136D01*
X1000Y-2137D01*
X1010Y-2136D01*
X1018Y-2132D01*
X1026Y-2126D01*
X1032Y-2118D01*
X1036Y-2110D01*
X1037Y-2100D01*
X1036Y-2090D01*
X1032Y-2082D01*
X1026Y-2074D01*
X1018Y-2068D01*
X1010Y-2064D01*
X1000Y-2063D01*
D02*
G37*
G36*
X100D02*
X90Y-2064D01*
X82Y-2068D01*
X74Y-2074D01*
X68Y-2082D01*
X64Y-2090D01*
X63Y-2100D01*
X64Y-2110D01*
X68Y-2118D01*
X74Y-2126D01*
X82Y-2132D01*
X90Y-2136D01*
X100Y-2137D01*
X110Y-2136D01*
X118Y-2132D01*
X126Y-2126D01*
X132Y-2118D01*
X136Y-2110D01*
X137Y-2100D01*
X136Y-2090D01*
X132Y-2082D01*
X126Y-2074D01*
X118Y-2068D01*
X110Y-2064D01*
X100Y-2063D01*
D02*
G37*
G36*
X478Y-2133D02*
Y-2149D01*
X494D01*
X494Y-2145D01*
X489Y-2138D01*
X482Y-2133D01*
X478Y-2133D01*
D02*
G37*
G36*
X468D02*
X464Y-2133D01*
X457Y-2138D01*
X452Y-2145D01*
X452Y-2149D01*
X468D01*
Y-2133D01*
D02*
G37*
G36*
X494Y-2159D02*
X478D01*
Y-2175D01*
X482Y-2175D01*
X489Y-2170D01*
X494Y-2163D01*
X494Y-2159D01*
D02*
G37*
G36*
X468D02*
X452D01*
X452Y-2163D01*
X457Y-2170D01*
X464Y-2175D01*
X468Y-2175D01*
Y-2159D01*
D02*
G37*
G36*
X329Y-2173D02*
X323Y-2174D01*
X318Y-2177D01*
X315Y-2182D01*
X314Y-2188D01*
X315Y-2194D01*
X318Y-2199D01*
X323Y-2202D01*
X329Y-2203D01*
X335Y-2202D01*
X340Y-2199D01*
X343Y-2194D01*
X344Y-2188D01*
X343Y-2182D01*
X340Y-2177D01*
X335Y-2174D01*
X329Y-2173D01*
D02*
G37*
G36*
X585Y-2189D02*
Y-2205D01*
X601D01*
X601Y-2201D01*
X596Y-2194D01*
X589Y-2189D01*
X585Y-2189D01*
D02*
G37*
G36*
X575D02*
X571Y-2189D01*
X564Y-2194D01*
X559Y-2201D01*
X559Y-2205D01*
X575D01*
Y-2189D01*
D02*
G37*
G36*
X182Y-2193D02*
X176Y-2194D01*
X171Y-2197D01*
X168Y-2202D01*
X167Y-2208D01*
X168Y-2214D01*
X171Y-2219D01*
X176Y-2222D01*
X182Y-2223D01*
X188Y-2222D01*
X193Y-2219D01*
X196Y-2214D01*
X197Y-2208D01*
X196Y-2202D01*
X193Y-2197D01*
X188Y-2194D01*
X182Y-2193D01*
D02*
G37*
G36*
X601Y-2215D02*
X585D01*
Y-2231D01*
X589Y-2231D01*
X596Y-2226D01*
X601Y-2219D01*
X601Y-2215D01*
D02*
G37*
G36*
X575D02*
X559D01*
X559Y-2219D01*
X564Y-2226D01*
X571Y-2231D01*
X575Y-2231D01*
Y-2215D01*
D02*
G37*
G36*
X1000Y-2163D02*
X990Y-2164D01*
X982Y-2168D01*
X974Y-2174D01*
X968Y-2182D01*
X964Y-2190D01*
X963Y-2200D01*
X964Y-2210D01*
X968Y-2218D01*
X974Y-2226D01*
X982Y-2232D01*
X990Y-2236D01*
X1000Y-2237D01*
X1010Y-2236D01*
X1018Y-2232D01*
X1026Y-2226D01*
X1032Y-2218D01*
X1036Y-2210D01*
X1037Y-2200D01*
X1036Y-2190D01*
X1032Y-2182D01*
X1026Y-2174D01*
X1018Y-2168D01*
X1010Y-2164D01*
X1000Y-2163D01*
D02*
G37*
G36*
X100D02*
X90Y-2164D01*
X82Y-2168D01*
X74Y-2174D01*
X68Y-2182D01*
X64Y-2190D01*
X63Y-2200D01*
X64Y-2210D01*
X68Y-2218D01*
X74Y-2226D01*
X82Y-2232D01*
X90Y-2236D01*
X100Y-2237D01*
X110Y-2236D01*
X118Y-2232D01*
X126Y-2226D01*
X132Y-2218D01*
X136Y-2210D01*
X137Y-2200D01*
X136Y-2190D01*
X132Y-2182D01*
X126Y-2174D01*
X118Y-2168D01*
X110Y-2164D01*
X100Y-2163D01*
D02*
G37*
G36*
X641Y-2245D02*
X635Y-2246D01*
X630Y-2249D01*
X627Y-2254D01*
X626Y-2260D01*
X627Y-2266D01*
X630Y-2271D01*
X635Y-2274D01*
X641Y-2275D01*
X647Y-2274D01*
X652Y-2271D01*
X655Y-2266D01*
X656Y-2260D01*
X655Y-2254D01*
X652Y-2249D01*
X647Y-2246D01*
X641Y-2245D01*
D02*
G37*
G36*
X738Y-2271D02*
X731Y-2272D01*
X726Y-2276D01*
X722Y-2281D01*
X721Y-2288D01*
X722Y-2295D01*
X726Y-2300D01*
X731Y-2304D01*
X738Y-2305D01*
X745Y-2304D01*
X750Y-2300D01*
X754Y-2295D01*
X755Y-2288D01*
X754Y-2281D01*
X750Y-2276D01*
X745Y-2272D01*
X738Y-2271D01*
D02*
G37*
G36*
X182Y-2284D02*
X176Y-2285D01*
X171Y-2288D01*
X168Y-2293D01*
X167Y-2299D01*
X168Y-2305D01*
X171Y-2310D01*
X176Y-2313D01*
X182Y-2314D01*
X188Y-2313D01*
X193Y-2310D01*
X196Y-2305D01*
X197Y-2299D01*
X196Y-2293D01*
X193Y-2288D01*
X188Y-2285D01*
X182Y-2284D01*
D02*
G37*
G36*
X471Y-2282D02*
X464Y-2283D01*
X459Y-2287D01*
X455Y-2292D01*
X454Y-2299D01*
X455Y-2306D01*
X459Y-2311D01*
X464Y-2315D01*
X471Y-2316D01*
X478Y-2315D01*
X483Y-2311D01*
X487Y-2306D01*
X488Y-2299D01*
X487Y-2292D01*
X483Y-2287D01*
X478Y-2283D01*
X471Y-2282D01*
D02*
G37*
G36*
X536Y-2286D02*
X529Y-2287D01*
X524Y-2291D01*
X520Y-2296D01*
X519Y-2303D01*
X520Y-2310D01*
X524Y-2315D01*
X529Y-2319D01*
X536Y-2320D01*
X543Y-2319D01*
X548Y-2315D01*
X552Y-2310D01*
X553Y-2303D01*
X552Y-2296D01*
X548Y-2291D01*
X543Y-2287D01*
X536Y-2286D01*
D02*
G37*
G36*
X1000Y-2263D02*
X990Y-2264D01*
X982Y-2268D01*
X974Y-2274D01*
X968Y-2282D01*
X964Y-2290D01*
X963Y-2300D01*
X964Y-2310D01*
X968Y-2318D01*
X974Y-2326D01*
X982Y-2332D01*
X990Y-2336D01*
X1000Y-2337D01*
X1010Y-2336D01*
X1018Y-2332D01*
X1026Y-2326D01*
X1032Y-2318D01*
X1036Y-2310D01*
X1037Y-2300D01*
X1036Y-2290D01*
X1032Y-2282D01*
X1026Y-2274D01*
X1018Y-2268D01*
X1010Y-2264D01*
X1000Y-2263D01*
D02*
G37*
G36*
X100D02*
X90Y-2264D01*
X82Y-2268D01*
X74Y-2274D01*
X68Y-2282D01*
X64Y-2290D01*
X63Y-2300D01*
X64Y-2310D01*
X68Y-2318D01*
X74Y-2326D01*
X82Y-2332D01*
X90Y-2336D01*
X100Y-2337D01*
X110Y-2336D01*
X118Y-2332D01*
X126Y-2326D01*
X132Y-2318D01*
X136Y-2310D01*
X137Y-2300D01*
X136Y-2290D01*
X132Y-2282D01*
X126Y-2274D01*
X118Y-2268D01*
X110Y-2264D01*
X100Y-2263D01*
D02*
G37*
G36*
X425Y-2363D02*
Y-2379D01*
X441D01*
X441Y-2375D01*
X436Y-2368D01*
X429Y-2363D01*
X425Y-2363D01*
D02*
G37*
G36*
X415D02*
X411Y-2363D01*
X404Y-2368D01*
X399Y-2375D01*
X399Y-2379D01*
X415D01*
Y-2363D01*
D02*
G37*
G36*
X441Y-2389D02*
X425D01*
Y-2405D01*
X429Y-2405D01*
X436Y-2400D01*
X441Y-2393D01*
X441Y-2389D01*
D02*
G37*
G36*
X415D02*
X399D01*
X399Y-2393D01*
X404Y-2400D01*
X411Y-2405D01*
X415Y-2405D01*
Y-2389D01*
D02*
G37*
G36*
X1000Y-2363D02*
X990Y-2364D01*
X982Y-2368D01*
X974Y-2374D01*
X968Y-2382D01*
X964Y-2390D01*
X963Y-2400D01*
X964Y-2410D01*
X968Y-2418D01*
X974Y-2426D01*
X982Y-2432D01*
X990Y-2436D01*
X1000Y-2437D01*
X1010Y-2436D01*
X1018Y-2432D01*
X1026Y-2426D01*
X1032Y-2418D01*
X1036Y-2410D01*
X1037Y-2400D01*
X1036Y-2390D01*
X1032Y-2382D01*
X1026Y-2374D01*
X1018Y-2368D01*
X1010Y-2364D01*
X1000Y-2363D01*
D02*
G37*
G36*
X100D02*
X90Y-2364D01*
X82Y-2368D01*
X74Y-2374D01*
X68Y-2382D01*
X64Y-2390D01*
X63Y-2400D01*
X64Y-2410D01*
X68Y-2418D01*
X74Y-2426D01*
X82Y-2432D01*
X90Y-2436D01*
X100Y-2437D01*
X110Y-2436D01*
X118Y-2432D01*
X126Y-2426D01*
X132Y-2418D01*
X136Y-2410D01*
X137Y-2400D01*
X136Y-2390D01*
X132Y-2382D01*
X126Y-2374D01*
X118Y-2368D01*
X110Y-2364D01*
X100Y-2363D01*
D02*
G37*
G36*
X421Y-2429D02*
Y-2445D01*
X437D01*
X437Y-2441D01*
X432Y-2434D01*
X425Y-2429D01*
X421Y-2429D01*
D02*
G37*
G36*
X411D02*
X407Y-2429D01*
X400Y-2434D01*
X395Y-2441D01*
X395Y-2445D01*
X411D01*
Y-2429D01*
D02*
G37*
G36*
X616Y-2429D02*
X609Y-2430D01*
X604Y-2434D01*
X600Y-2439D01*
X599Y-2446D01*
X600Y-2453D01*
X604Y-2458D01*
X609Y-2462D01*
X616Y-2463D01*
X623Y-2462D01*
X628Y-2458D01*
X632Y-2453D01*
X633Y-2446D01*
X632Y-2439D01*
X628Y-2434D01*
X623Y-2430D01*
X616Y-2429D01*
D02*
G37*
G36*
X745Y-2434D02*
X739Y-2435D01*
X734Y-2438D01*
X731Y-2443D01*
X730Y-2449D01*
X731Y-2455D01*
X734Y-2460D01*
X739Y-2463D01*
X745Y-2464D01*
X751Y-2463D01*
X756Y-2460D01*
X759Y-2455D01*
X760Y-2449D01*
X759Y-2443D01*
X756Y-2438D01*
X751Y-2435D01*
X745Y-2434D01*
D02*
G37*
G36*
X437Y-2455D02*
X421D01*
Y-2471D01*
X425Y-2471D01*
X432Y-2466D01*
X437Y-2459D01*
X437Y-2455D01*
D02*
G37*
G36*
X411D02*
X395D01*
X395Y-2459D01*
X400Y-2466D01*
X407Y-2471D01*
X411Y-2471D01*
Y-2455D01*
D02*
G37*
G36*
X1005Y-2459D02*
Y-2495D01*
X1041D01*
X1040Y-2489D01*
X1036Y-2479D01*
X1030Y-2470D01*
X1021Y-2464D01*
X1011Y-2460D01*
X1005Y-2459D01*
D02*
G37*
G36*
X105D02*
Y-2495D01*
X141D01*
X140Y-2489D01*
X136Y-2479D01*
X130Y-2470D01*
X121Y-2464D01*
X111Y-2460D01*
X105Y-2459D01*
D02*
G37*
G36*
X95Y-2459D02*
X89Y-2460D01*
X79Y-2464D01*
X70Y-2470D01*
X64Y-2479D01*
X60Y-2489D01*
X59Y-2495D01*
X95D01*
Y-2459D01*
D02*
G37*
G36*
X995D02*
X989Y-2460D01*
X979Y-2464D01*
X970Y-2470D01*
X964Y-2479D01*
X960Y-2489D01*
X959Y-2495D01*
X995D01*
Y-2459D01*
D02*
G37*
G36*
X407Y-2482D02*
X400Y-2483D01*
X395Y-2487D01*
X391Y-2492D01*
X390Y-2499D01*
X391Y-2506D01*
X395Y-2511D01*
X400Y-2515D01*
X407Y-2516D01*
X414Y-2515D01*
X419Y-2511D01*
X423Y-2506D01*
X424Y-2499D01*
X423Y-2492D01*
X419Y-2487D01*
X414Y-2483D01*
X407Y-2482D01*
D02*
G37*
G36*
X141Y-2505D02*
X105D01*
Y-2541D01*
X111Y-2540D01*
X121Y-2536D01*
X130Y-2530D01*
X136Y-2521D01*
X140Y-2511D01*
X141Y-2505D01*
D02*
G37*
G36*
X1041D02*
X1005D01*
Y-2541D01*
X1011Y-2540D01*
X1021Y-2536D01*
X1030Y-2530D01*
X1036Y-2521D01*
X1040Y-2511D01*
X1041Y-2505D01*
D02*
G37*
G36*
X95D02*
X59D01*
X60Y-2511D01*
X64Y-2521D01*
X70Y-2530D01*
X79Y-2536D01*
X89Y-2540D01*
X95Y-2541D01*
Y-2505D01*
D02*
G37*
G36*
X995D02*
X959D01*
X960Y-2511D01*
X964Y-2521D01*
X970Y-2530D01*
X979Y-2536D01*
X989Y-2540D01*
X995Y-2541D01*
Y-2505D01*
D02*
G37*
G36*
X666Y-2533D02*
Y-2549D01*
X682D01*
X682Y-2545D01*
X677Y-2538D01*
X670Y-2533D01*
X666Y-2533D01*
D02*
G37*
G36*
X656D02*
X652Y-2533D01*
X645Y-2538D01*
X640Y-2545D01*
X640Y-2549D01*
X656D01*
Y-2533D01*
D02*
G37*
G36*
X572Y-2530D02*
X565Y-2531D01*
X560Y-2535D01*
X556Y-2540D01*
X555Y-2547D01*
X556Y-2554D01*
X560Y-2559D01*
X565Y-2563D01*
X572Y-2564D01*
X579Y-2563D01*
X584Y-2559D01*
X588Y-2554D01*
X589Y-2547D01*
X588Y-2540D01*
X584Y-2535D01*
X579Y-2531D01*
X572Y-2530D01*
D02*
G37*
G36*
X682Y-2559D02*
X666D01*
Y-2575D01*
X670Y-2575D01*
X677Y-2570D01*
X682Y-2563D01*
X682Y-2559D01*
D02*
G37*
G36*
X656D02*
X640D01*
X640Y-2563D01*
X645Y-2570D01*
X652Y-2575D01*
X656Y-2575D01*
Y-2559D01*
D02*
G37*
G36*
X853Y-2611D02*
Y-2627D01*
X869D01*
X869Y-2624D01*
X864Y-2617D01*
X857Y-2612D01*
X853Y-2611D01*
D02*
G37*
G36*
X843D02*
X840Y-2612D01*
X832Y-2617D01*
X827Y-2624D01*
X827Y-2627D01*
X843D01*
Y-2611D01*
D02*
G37*
G36*
X1016Y-2563D02*
X984D01*
X976Y-2565D01*
X969Y-2569D01*
X965Y-2576D01*
X963Y-2584D01*
Y-2616D01*
X965Y-2624D01*
X969Y-2631D01*
X976Y-2635D01*
X984Y-2637D01*
X1016D01*
X1024Y-2635D01*
X1031Y-2631D01*
X1035Y-2624D01*
X1037Y-2616D01*
Y-2584D01*
X1035Y-2576D01*
X1031Y-2569D01*
X1024Y-2565D01*
X1016Y-2563D01*
D02*
G37*
G36*
X116D02*
X84D01*
X76Y-2565D01*
X69Y-2569D01*
X65Y-2576D01*
X63Y-2584D01*
Y-2616D01*
X65Y-2624D01*
X69Y-2631D01*
X76Y-2635D01*
X84Y-2637D01*
X116D01*
X124Y-2635D01*
X131Y-2631D01*
X135Y-2624D01*
X137Y-2616D01*
Y-2584D01*
X135Y-2576D01*
X131Y-2569D01*
X124Y-2565D01*
X116Y-2563D01*
D02*
G37*
G36*
X869Y-2637D02*
X853D01*
Y-2654D01*
X857Y-2653D01*
X864Y-2648D01*
X869Y-2641D01*
X869Y-2637D01*
D02*
G37*
G36*
X843D02*
X827D01*
X827Y-2641D01*
X832Y-2648D01*
X840Y-2653D01*
X843Y-2654D01*
Y-2637D01*
D02*
G37*
%LPD*%
D78*
X1000Y-2500D02*
D03*
Y-900D02*
D03*
X337Y-1890D02*
D03*
X100Y-900D02*
D03*
Y-2500D02*
D03*
D83*
X738Y-58D02*
D03*
D84*
Y-222D02*
D03*
X397D02*
D03*
D86*
X438Y-1715D02*
D03*
X695Y-1710D02*
D03*
X737Y-1475D02*
D03*
X376Y-474D02*
D03*
X77Y-241D02*
D03*
X171Y-289D02*
D03*
X263Y-238D02*
D03*
X602Y-1046D02*
D03*
X829Y-1123D02*
D03*
X675Y-1341D02*
D03*
X262Y-1146D02*
D03*
X458Y-859D02*
D03*
X661Y-2554D02*
D03*
X941Y-290D02*
D03*
X1079Y-684D02*
D03*
X689Y-1062D02*
D03*
X555Y-1336D02*
D03*
X551Y-1376D02*
D03*
X827Y-679D02*
D03*
X769D02*
D03*
X351Y-280D02*
D03*
X473Y-2154D02*
D03*
X580Y-2210D02*
D03*
X416Y-2450D02*
D03*
X420Y-2384D02*
D03*
X848Y-2632D02*
D03*
M02*
