G04*
G04 #@! TF.GenerationSoftware,Altium Limited,Altium Designer,21.8.1 (53)*
G04*
G04 Layer_Color=8388736*
%FSLAX23Y23*%
%MOIN*%
G70*
G04*
G04 #@! TF.SameCoordinates,9A98099C-E915-48DC-B274-BBC1B63A1E23*
G04*
G04*
G04 #@! TF.FilePolarity,Positive*
G04*
G01*
G75*
%ADD11C,0.008*%
G36*
X381Y-1052D02*
Y-1052D01*
X381Y-1052D01*
X381Y-1052D01*
X381Y-1052D01*
X381Y-1052D01*
X381Y-1053D01*
X380Y-1053D01*
X380Y-1054D01*
X380Y-1055D01*
X380Y-1055D01*
X379Y-1056D01*
X379D01*
X379D01*
X380Y-1056D01*
X380D01*
X380Y-1056D01*
X380Y-1056D01*
X381Y-1056D01*
X382Y-1056D01*
X382Y-1055D01*
X383Y-1055D01*
X383D01*
X384D01*
Y-1058D01*
X384D01*
X384D01*
X383D01*
X383D01*
X383Y-1058D01*
X382Y-1058D01*
X382Y-1058D01*
X381Y-1058D01*
X380Y-1058D01*
X379Y-1057D01*
Y-1058D01*
X379Y-1058D01*
X379Y-1058D01*
X379Y-1058D01*
X380Y-1058D01*
X380Y-1059D01*
X380Y-1059D01*
X380Y-1060D01*
X381Y-1061D01*
X381Y-1062D01*
X379Y-1062D01*
Y-1062D01*
X379Y-1062D01*
X378Y-1062D01*
X378Y-1062D01*
X378Y-1062D01*
X378Y-1062D01*
X378Y-1061D01*
X378Y-1060D01*
X378Y-1060D01*
X378Y-1059D01*
X378Y-1058D01*
X378Y-1058D01*
X377Y-1058D01*
X377Y-1058D01*
X377Y-1059D01*
X376Y-1059D01*
X376Y-1060D01*
X375Y-1060D01*
X374Y-1061D01*
X373Y-1059D01*
X373Y-1059D01*
X373Y-1059D01*
X373Y-1059D01*
X374Y-1058D01*
X374Y-1058D01*
X375Y-1058D01*
X376Y-1057D01*
X377Y-1057D01*
X377D01*
X376Y-1057D01*
X376Y-1056D01*
X376Y-1056D01*
X376Y-1056D01*
X375Y-1056D01*
X375Y-1055D01*
X374Y-1055D01*
X373Y-1055D01*
X373Y-1054D01*
X374Y-1052D01*
X374Y-1052D01*
X374Y-1052D01*
X375Y-1053D01*
X375Y-1053D01*
X375Y-1053D01*
X376Y-1053D01*
X376Y-1054D01*
X377Y-1054D01*
X377Y-1055D01*
X377Y-1055D01*
X378Y-1055D01*
Y-1055D01*
X378Y-1055D01*
Y-1055D01*
X378Y-1055D01*
X378Y-1055D01*
X378Y-1054D01*
X378Y-1054D01*
X378Y-1053D01*
X378Y-1052D01*
X379Y-1051D01*
X381Y-1052D01*
D02*
G37*
D11*
X227Y-943D02*
X489D01*
X227Y-1159D02*
Y-943D01*
Y-1159D02*
X489D01*
Y-943D01*
M02*
